{"glyphs":{"0":{"ha":1176,"x_min":0,"x_max":1071,"o":"m 1071 654 q 907 243 1071 475 q 581 0 736 0 l 490 0 q 178 192 344 0 q 0 610 0 397 l 0 750 q 81 1008 0 856 q 274 1268 161 1164 q 521 1389 403 1389 l 581 1389 q 897 1193 735 1389 q 1071 743 1071 982 l 1071 654 m 885 601 q 858 694 872 647 q 826 785 844 740 q 782 872 807 831 q 721 950 757 914 q 673 1007 694 982 q 632 1047 651 1032 q 401 1144 521 1144 q 243 1085 303 1144 q 164 899 164 1007 l 164 825 q 332 450 164 669 q 625 231 501 231 l 714 231 q 749 254 722 240 q 803 282 775 268 q 858 392 822 301 q 885 439 874 432 l 885 601 z "},"1":{"ha":571,"x_min":0,"x_max":518,"o":"m 518 144 l 419 144 q 274 72 392 144 q 226 42 254 61 q 160 0 197 24 l 83 0 l 83 31 q 124 59 104 42 q 158 105 143 76 q 181 173 172 133 q 190 267 190 213 l 190 1046 q 164 1108 190 1090 q 114 1122 146 1122 q 57 1114 103 1122 q 21 1110 33 1110 q 0 1122 0 1110 q 94 1204 0 1135 q 170 1258 126 1228 q 272 1325 214 1288 q 374 1389 369 1389 q 440 1318 396 1389 q 465 1244 465 1276 l 465 313 q 500 208 465 247 q 518 168 518 189 l 518 144 z "},"2":{"ha":1026,"x_min":19,"x_max":1019,"o":"m 1019 372 q 901 165 1019 314 q 696 4 774 4 q 574 56 672 4 q 424 107 475 107 l 306 107 q 178 81 229 107 q 107 56 125 56 q 77 66 90 56 q 64 92 64 76 q 211 264 64 117 q 378 439 310 364 q 488 565 447 514 q 636 879 636 758 q 549 1061 636 986 q 431 1121 481 1121 l 314 1121 q 199 1056 271 1121 q 127 990 163 1024 q 56 922 92 957 q 26 932 33 922 q 19 967 19 942 q 140 1265 19 1143 q 424 1393 260 1393 q 717 1271 599 1393 q 835 960 835 1149 q 721 660 835 811 l 446 364 l 813 254 q 849 267 829 254 q 894 304 869 281 l 997 408 q 1017 399 1013 408 q 1019 372 1019 390 z "},"3":{"ha":1118,"x_min":0,"x_max":1017,"o":"m 1017 532 q 914 236 1017 368 q 697 60 829 128 q 508 0 583 0 l 371 0 q 138 118 256 0 q 0 447 0 256 q 38 501 0 501 l 265 501 l 265 456 q 261 454 263 454 q 258 453 260 454 q 242 403 242 440 l 242 333 q 317 189 242 261 q 515 107 403 107 q 739 207 649 107 q 811 349 811 285 l 811 425 q 742 563 811 489 q 599 638 672 638 l 469 638 q 467 650 468 644 q 467 661 467 656 q 469 675 469 667 q 603 794 469 682 q 667 903 667 849 l 667 994 q 590 1106 667 1046 q 425 1169 510 1169 q 294 1126 347 1169 l 197 1032 q 176 1042 186 1032 q 167 1069 167 1053 q 294 1299 167 1178 q 515 1389 392 1389 q 763 1297 660 1389 q 865 1085 865 1206 q 856 1022 865 1053 q 824 958 846 990 q 795 919 810 938 q 767 881 781 900 q 870 810 833 836 q 917 774 907 783 q 1017 532 1017 675 z "},"4":{"ha":1156,"x_min":0,"x_max":1049,"o":"m 1049 611 q 1025 508 1049 571 q 936 422 992 422 l 899 422 l 899 226 q 921 185 899 203 q 943 143 943 167 q 864 114 943 118 q 754 90 783 111 l 669 29 q 623 7 647 14 q 574 0 599 0 q 536 31 536 0 q 592 88 536 40 q 649 204 649 138 l 649 415 l 0 415 l 0 453 q 147 729 92 604 q 224 957 201 854 q 271 1168 268 1164 q 565 1389 317 1243 l 565 1336 l 528 1208 q 474 1063 504 1131 q 413 932 444 994 q 319 778 368 844 q 218 664 271 711 q 424 661 418 664 q 633 657 429 657 q 652 720 647 664 q 657 885 657 776 l 657 1049 l 657 1238 q 713 1270 685 1253 q 771 1307 742 1288 q 858 1366 826 1346 q 899 1389 890 1386 l 899 672 q 932 635 899 635 q 965 642 944 635 l 1049 642 l 1049 611 z "},"5":{"ha":954,"x_min":0,"x_max":868,"o":"m 868 551 q 767 261 868 396 q 549 69 681 146 q 347 0 429 0 q 131 83 247 0 q 0 288 0 176 l 0 407 q 44 415 14 415 q 72 415 60 415 q 93 414 83 415 q 178 409 143 411 q 235 407 214 407 l 235 369 q 218 326 225 342 q 211 310 211 311 q 269 190 211 257 q 415 114 336 114 q 643 246 556 114 q 710 431 710 347 l 710 567 q 642 717 710 640 q 424 815 556 815 q 339 794 393 815 q 197 725 285 774 l 197 1343 q 197 1367 197 1358 q 196 1378 196 1375 q 201 1388 196 1386 q 226 1389 204 1389 q 308 1351 243 1389 q 415 1314 372 1314 l 499 1314 q 593 1336 536 1314 q 658 1363 625 1350 q 725 1389 692 1375 q 754 1379 749 1389 q 756 1358 756 1378 q 622 1207 756 1296 q 382 1118 492 1118 q 332 1125 353 1118 l 294 1125 q 293 1101 294 1114 q 289 1072 292 1088 q 283 1035 283 1044 q 294 1019 283 1019 q 385 1044 306 1019 q 446 1057 424 1057 l 529 1057 q 757 926 647 1057 q 868 664 868 794 l 868 551 z "},"6":{"ha":1090,"x_min":0,"x_max":990,"o":"m 990 488 q 790 129 990 281 q 472 0 621 0 q 167 144 311 0 q 0 571 0 313 l 0 796 q 213 1214 49 1042 q 556 1389 376 1389 l 646 1389 l 754 1344 q 836 1301 810 1321 q 863 1269 863 1282 l 804 1188 q 735 1104 743 1104 q 696 1140 713 1125 q 665 1167 679 1156 q 518 1231 583 1231 l 450 1231 q 251 1100 349 1231 q 150 811 150 965 q 149 776 150 792 q 149 746 149 760 q 150 721 149 726 q 321 400 175 543 q 622 256 468 256 q 811 335 729 256 q 893 511 893 417 q 826 661 893 583 q 615 758 743 758 q 514 719 561 758 q 465 631 465 679 q 500 538 465 563 q 518 511 518 524 q 506 489 518 497 q 472 481 493 481 q 390 536 438 481 q 338 661 338 597 l 338 721 q 417 897 338 807 q 646 1006 513 1006 q 919 847 819 1006 q 990 646 990 736 l 990 488 z "},"7":{"ha":1071,"x_min":0,"x_max":974,"o":"m 974 1338 q 833 1107 974 1300 q 572 729 640 844 q 431 357 431 493 q 524 200 431 221 q 617 156 617 179 q 579 78 597 103 q 431 0 522 0 q 339 28 392 0 q 208 253 208 99 q 317 583 208 401 q 400 707 349 639 q 522 858 451 775 q 646 1025 640 999 l 629 1025 l 576 1025 q 524 1026 550 1025 q 483 1032 497 1028 q 410 1067 442 1051 q 357 1092 379 1082 q 193 1151 225 1151 q 81 1081 122 1151 q 29 1010 39 1010 q 7 1027 14 1010 q 0 1069 0 1044 q 82 1258 0 1149 q 282 1382 176 1382 l 349 1382 q 497 1325 368 1382 q 646 1269 622 1269 l 735 1269 q 819 1307 775 1269 q 936 1389 918 1389 q 971 1372 964 1389 q 974 1338 974 1364 z "},"8":{"ha":1071,"x_min":0,"x_max":974,"o":"m 974 468 q 810 160 974 314 q 453 0 640 0 q 150 149 307 0 q 0 407 0 292 l 0 528 q 75 706 0 615 q 131 763 97 732 q 211 831 164 794 q 158 902 179 872 q 129 950 136 932 q 114 1049 114 985 q 251 1308 114 1206 q 453 1389 358 1389 l 558 1389 q 763 1300 644 1389 q 890 1117 890 1204 l 890 1042 q 811 907 890 979 q 778 881 797 896 q 732 846 758 865 l 903 692 q 974 468 974 593 m 740 1011 q 590 1193 740 1101 q 369 1275 454 1275 q 304 1240 338 1275 q 272 1163 272 1206 q 365 1042 272 1110 q 444 992 400 1017 q 540 940 488 967 q 635 899 625 899 q 704 939 668 899 q 740 1011 740 979 m 793 354 q 597 600 793 464 q 438 697 518 656 q 272 769 357 739 q 239 741 253 754 q 215 717 225 728 q 158 604 158 653 q 325 324 158 463 q 619 189 485 189 q 746 239 700 189 q 793 354 793 290 z "},"9":{"ha":1172,"x_min":0,"x_max":1067,"o":"m 1067 751 q 951 368 1067 554 q 700 101 853 211 q 458 0 560 0 l 368 0 q 171 69 265 0 q 104 126 136 94 q 44 200 72 157 l 0 271 q 71 311 0 283 q 203 338 140 338 q 267 217 217 338 q 458 97 317 97 q 669 204 565 97 q 796 533 796 332 l 796 931 q 728 1172 796 1050 q 564 1307 653 1307 l 474 1307 q 347 1242 415 1307 q 271 1081 271 1169 l 271 953 q 318 710 271 818 q 496 563 381 563 q 596 611 556 563 q 631 699 631 651 q 625 724 631 707 q 611 761 619 740 q 592 806 603 782 q 571 856 581 831 q 594 879 571 879 q 607 878 601 878 q 617 878 613 878 q 682 824 649 878 q 721 683 721 763 q 590 425 721 526 q 414 346 490 346 l 331 346 q 151 465 250 346 q 38 765 38 601 l 38 864 q 203 1240 38 1071 q 481 1389 349 1389 l 601 1389 q 899 1218 750 1389 q 1067 751 1067 1024 z "},"\u0000":{"ha":0,"x_min":0,"x_max":0,"o":""},"\r":{"ha":694,"x_min":0,"x_max":0,"o":""}," ":{"ha":694,"x_min":0,"x_max":0,"o":""},"!":{"ha":518,"x_min":235,"x_max":504,"o":"m 267 88 q 303 193 260 121 q 337 239 324 229 q 371 254 350 249 q 402 259 382 257 q 438 242 422 261 q 478 149 465 203 q 469 56 490 92 q 403 10 447 19 q 358 8 381 4 q 317 23 336 13 q 285 50 299 33 q 267 88 271 67 m 435 833 l 435 600 q 433 567 435 583 q 430 537 431 551 q 433 508 429 522 q 447 485 436 494 q 456 468 456 476 q 448 452 456 461 q 419 428 440 443 q 390 411 401 414 q 369 406 379 408 q 348 399 358 404 q 322 378 338 394 q 302 351 307 361 q 288 340 297 340 q 274 347 279 340 q 268 363 268 354 q 275 392 268 371 q 280 414 279 407 q 279 429 281 421 q 276 453 278 438 q 274 500 274 468 l 272 851 l 263 1172 q 262 1208 263 1194 q 259 1231 261 1221 q 253 1248 257 1240 q 242 1267 249 1256 q 235 1285 235 1276 q 245 1302 235 1296 q 285 1318 256 1308 q 324 1333 304 1324 q 353 1347 343 1343 l 456 1386 q 476 1396 468 1392 q 488 1400 483 1400 q 504 1383 504 1400 q 492 1360 504 1372 q 466 1331 472 1340 q 454 1307 460 1322 q 448 1281 450 1293 q 446 1251 446 1268 q 446 1211 446 1235 q 444 1151 446 1188 l 435 833 z "},"\"":{"ha":567,"x_min":14,"x_max":506,"o":"m 283 1151 q 181 976 283 1108 q 108 887 140 925 q 49 822 75 849 l 14 822 l 14 847 q 44 931 24 868 q 94 1103 64 994 q 189 1240 133 1240 q 256 1210 229 1240 q 283 1151 283 1178 m 506 1147 q 403 972 506 1104 q 330 883 363 921 q 271 818 297 844 l 236 818 l 236 843 q 266 927 246 864 q 317 1099 286 990 q 411 1236 356 1236 q 478 1206 451 1236 q 506 1147 506 1174 z "},"#":{"ha":783,"x_min":36,"x_max":749,"o":"m 339 644 l 304 454 l 438 454 l 469 644 l 339 644 m 731 644 l 564 644 l 532 454 l 701 454 l 692 360 l 521 360 l 483 143 l 378 131 l 421 360 l 292 360 l 251 143 l 146 131 l 190 360 l 36 360 l 57 454 l 208 454 l 244 644 l 96 644 l 115 742 l 257 742 l 294 928 l 388 947 l 346 742 l 488 742 l 524 928 l 622 947 l 581 742 l 749 742 l 731 644 z "},"$":{"ha":811,"x_min":4,"x_max":806,"o":"m 800 332 q 781 211 806 250 q 638 110 756 176 l 458 11 l 460 -35 q 461 -61 461 -47 q 461 -90 461 -75 q 460 -156 461 -153 l 390 -214 l 332 -267 l 392 18 q 307 54 343 40 q 244 75 271 68 q 173 88 210 83 q 99 88 136 92 l 44 82 q 97 189 81 139 q 111 299 114 239 q 251 283 186 296 q 378 247 315 271 l 572 150 q 599 176 589 151 q 607 229 608 200 q 453 364 606 271 q 257 481 326 439 q 169 536 188 522 q 8 744 15 647 q 54 879 4 824 q 350 1053 128 965 l 340 1238 l 440 1306 l 408 1057 q 539 1001 467 1021 q 696 974 611 981 q 644 874 663 924 q 631 760 626 825 l 446 814 q 326 871 379 833 q 232 951 274 908 q 185 871 181 919 q 275 765 188 829 l 435 649 l 663 531 q 800 332 794 461 z "},"%":{"ha":935,"x_min":0,"x_max":918,"o":"m 332 700 q 265 833 332 771 q 161 890 207 892 l 131 889 q 46 904 85 888 q 33 844 33 885 q 82 740 33 789 q 218 686 136 686 q 325 636 267 686 q 332 700 332 654 m 876 197 q 811 331 876 269 q 756 374 782 358 q 707 386 729 389 l 675 385 q 631 388 651 383 q 590 401 610 393 q 579 377 583 390 q 575 340 575 364 q 625 238 575 285 q 764 182 682 182 q 864 135 808 182 q 867 147 867 143 q 869 156 868 151 q 876 197 876 183 m 374 789 q 362 698 374 744 q 328 604 350 651 l 297 606 q 249 589 279 607 q 192 546 219 571 q 136 587 164 569 q 71 625 108 604 q 21 699 42 654 q 0 790 0 743 q 9 863 0 828 q 40 936 18 897 q 112 970 81 951 q 178 1025 143 989 l 250 976 q 273 965 261 971 q 296 956 285 960 q 335 921 311 947 q 363 890 356 896 q 374 789 374 846 m 260 43 l 169 15 l 640 1018 l 717 1047 l 260 43 m 918 285 q 907 194 918 240 q 872 100 896 147 l 842 103 q 736 46 801 104 q 693 75 715 63 q 613 119 685 82 q 563 192 582 149 q 544 288 544 235 q 554 360 544 325 q 585 433 564 394 q 656 467 625 449 q 722 522 688 486 q 786 482 753 503 q 842 453 819 461 q 856 442 849 449 q 871 425 863 436 q 891 401 882 410 q 906 386 900 392 q 915 336 911 358 q 918 285 918 314 z "},"&":{"ha":953,"x_min":17,"x_max":929,"o":"m 518 182 l 260 497 l 242 496 q 218 368 203 450 q 299 208 232 283 q 444 133 365 135 q 476 137 460 133 q 508 151 492 140 q 514 156 511 153 q 521 161 517 158 l 518 182 m 458 757 q 411 869 449 815 q 331 924 374 922 q 294 846 279 925 q 342 721 303 796 q 403 647 379 649 q 431 658 419 647 q 450 683 443 668 q 459 718 457 699 q 458 757 461 738 m 929 185 q 906 151 926 178 q 844 81 886 125 l 764 -6 l 742 -12 q 652 51 693 18 q 576 119 611 83 l 543 113 q 484 51 510 74 q 442 15 458 28 q 350 -4 406 -6 q 144 81 239 -1 q 28 272 47 164 q 33 375 17 335 q 93 451 49 415 l 221 554 q 219 575 221 572 q 210 603 218 586 q 190 646 203 621 q 173 686 179 669 q 164 711 167 703 q 268 956 140 843 q 436 1046 378 1047 q 549 976 489 1043 q 594 914 578 944 q 617 856 611 883 q 574 721 632 775 q 501 661 538 689 q 428 604 464 633 q 491 519 463 557 q 543 450 519 481 q 601 379 578 406 q 640 342 625 353 q 660 425 669 358 q 650 463 657 442 q 633 503 643 483 q 612 541 624 524 q 588 569 600 558 l 553 569 l 553 585 l 708 697 q 735 686 722 697 q 760 658 749 675 q 780 620 772 642 q 792 576 788 599 q 785 438 804 506 q 704 286 765 369 q 756 199 711 242 q 835 154 799 154 q 852 158 842 154 q 878 169 863 161 l 918 193 l 929 185 l 929 185 z "},"'":{"ha":317,"x_min":14,"x_max":283,"o":"m 283 1144 q 181 969 283 1101 q 108 880 140 918 q 49 815 75 842 l 14 815 l 14 840 q 44 924 24 861 q 94 1096 64 988 q 189 1233 133 1233 q 256 1203 229 1233 q 283 1144 283 1171 z "},"(":{"ha":304,"x_min":-11,"x_max":306,"o":"m 306 -243 q 296 -301 306 -275 q 263 -326 286 -326 q 85 -94 171 -326 q -11 472 -11 160 q 4 715 -11 586 q 49 978 19 843 q 124 1252 79 1114 q 229 1524 169 1390 q 303 1499 278 1524 q 293 1453 297 1474 q 285 1415 289 1433 q 275 1376 281 1396 q 261 1333 269 1357 q 124 1025 172 1233 q 88 814 100 925 q 76 578 76 703 q 89 353 76 457 q 128 156 101 249 q 198 -21 156 63 q 299 -183 240 -104 q 301 -195 300 -190 q 303 -203 303 -200 q 305 -226 304 -217 q 306 -243 306 -236 z "},")":{"ha":304,"x_min":-8,"x_max":307,"o":"m -8 1471 q 1 1528 -8 1503 q 33 1554 11 1554 q 213 1321 126 1554 q 284 1053 261 1193 q 307 756 307 914 q 292 512 307 640 q 247 248 276 383 q 172 -26 217 113 q 68 -297 126 -164 q -6 -271 19 -297 q 4 -226 0 -246 q 13 -187 8 -206 q 22 -150 17 -169 q 36 -107 28 -131 q 174 201 125 -7 q 219 649 219 403 q 207 874 219 769 q 168 1071 194 978 q 99 1247 142 1164 q -1 1410 57 1331 q -4 1422 -3 1417 q -6 1429 -6 1428 q -8 1453 -7 1443 q -8 1471 -8 1463 z "},"*":{"ha":557,"x_min":25,"x_max":539,"o":"m 283 1058 q 303 1045 292 1053 q 326 1028 315 1038 q 344 1008 336 1018 q 351 986 351 997 q 346 958 351 972 q 333 931 340 944 q 319 903 326 917 q 308 876 313 889 q 303 843 304 861 q 301 811 301 825 q 322 823 313 817 q 340 838 332 829 q 377 871 364 853 q 401 904 390 889 q 430 930 414 919 q 474 940 446 940 q 509 931 490 940 q 539 915 528 922 q 538 874 539 894 q 528 842 536 854 q 503 817 519 826 q 464 808 488 808 q 426 809 443 808 q 392 810 408 810 q 354 795 372 803 q 322 781 336 788 q 454 744 386 744 q 496 733 479 744 q 522 707 513 722 q 531 667 529 688 q 535 628 532 647 q 499 618 517 625 q 464 611 482 611 q 424 624 443 611 q 385 665 404 636 q 354 705 374 685 q 301 744 335 725 q 303 713 301 731 q 308 681 304 696 q 334 624 317 653 q 351 571 351 596 q 344 549 351 560 q 326 529 336 539 q 303 511 315 519 q 283 497 292 503 q 263 511 275 503 q 240 529 251 519 q 222 549 229 539 q 214 571 214 560 q 219 597 214 583 q 232 624 225 610 q 246 652 239 638 q 257 681 253 667 q 263 713 261 696 q 264 744 264 731 q 212 705 231 725 q 182 665 193 685 q 142 624 161 636 q 103 611 124 611 q 67 618 85 611 q 31 628 49 625 q 36 667 35 647 q 44 707 38 688 q 71 733 54 722 q 111 744 88 744 q 243 781 182 744 q 213 795 231 788 q 175 810 194 803 q 141 809 158 810 q 103 808 124 808 q 63 817 78 808 q 38 842 47 826 q 29 874 31 854 q 25 915 28 894 q 57 931 39 922 q 93 940 75 940 q 136 930 121 940 q 164 904 151 919 q 190 871 176 889 q 226 838 203 853 q 243 823 233 829 q 264 811 253 817 q 263 843 264 825 q 257 876 261 861 q 246 903 253 889 q 232 931 239 917 q 219 958 225 944 q 214 986 214 972 q 222 1008 214 997 q 240 1028 229 1018 q 263 1045 251 1038 q 283 1058 275 1053 z "},"+":{"ha":706,"x_min":31,"x_max":675,"o":"m 411 289 q 412 245 411 261 q 415 219 413 229 q 424 200 418 208 q 440 178 429 192 q 449 163 449 169 q 442 153 449 157 q 415 140 435 149 q 385 126 397 132 q 360 113 372 119 q 338 97 349 106 q 314 74 328 88 q 281 53 292 53 q 268 59 274 53 q 263 74 263 65 q 269 101 263 88 q 283 178 278 129 q 288 288 288 226 l 288 357 q 200 355 236 357 q 138 347 164 353 q 94 331 111 340 q 67 306 78 321 q 44 294 56 294 q 31 311 31 294 q 33 323 31 315 q 39 340 36 331 q 55 382 49 365 q 65 411 61 399 q 72 435 69 424 q 79 461 75 446 q 89 501 85 492 q 101 510 93 510 q 111 507 106 510 q 133 493 117 504 q 149 487 142 489 q 170 483 156 485 q 212 482 185 482 q 288 482 239 482 l 288 544 q 287 592 288 574 q 284 621 286 610 q 278 640 282 632 q 267 657 274 649 q 261 675 261 671 q 271 694 261 686 q 308 708 281 701 q 337 720 324 715 q 361 732 350 725 q 397 753 381 743 q 429 774 413 763 q 447 783 439 779 q 460 788 454 788 q 475 771 475 788 q 463 747 475 760 q 438 713 447 732 q 422 663 428 693 q 414 588 417 632 q 411 482 411 544 l 447 482 l 485 482 q 633 501 586 482 q 656 508 646 508 q 675 489 675 508 q 657 457 675 476 q 619 410 633 433 q 593 356 604 386 q 568 319 582 319 q 554 322 560 319 q 529 342 549 325 q 456 357 513 357 l 433 357 l 411 357 l 411 289 z "},",":{"ha":418,"x_min":57,"x_max":340,"o":"m 340 21 q 231 -112 340 -25 l 93 -222 l 57 -222 l 57 -192 l 143 31 q 188 97 161 75 q 244 119 214 119 q 283 110 265 119 q 313 87 300 101 q 333 55 326 72 q 340 21 340 38 z "},"-":{"ha":792,"x_min":76,"x_max":706,"o":"m 76 571 q 164 714 94 653 q 293 774 235 774 q 308 772 304 774 l 403 756 q 477 724 440 739 q 538 706 514 710 q 554 704 543 704 q 619 724 590 704 q 667 775 647 743 l 706 768 q 704 746 706 750 q 697 724 699 733 q 614 572 685 649 q 482 494 544 494 q 468 496 471 494 l 404 507 q 325 543 392 507 q 294 557 307 551 q 271 564 281 563 q 244 569 263 565 q 199 583 226 574 q 151 595 171 590 q 119 600 132 600 q 90 594 101 600 q 76 571 79 588 z "},".":{"ha":379,"x_min":79,"x_max":299,"o":"m 299 158 q 240 63 299 125 q 140 1 183 1 q 99 44 119 1 q 79 144 79 90 q 109 233 79 203 q 183 264 139 264 q 227 255 206 264 q 264 231 249 246 q 289 198 279 217 q 299 158 299 179 z "},"/":{"ha":582,"x_min":11,"x_max":644,"o":"m 86 -193 q 74 -192 79 -192 q 64 -194 69 -193 q 41 -199 50 -197 q 28 -200 32 -200 q 11 -181 11 -200 q 25 -144 11 -172 q 49 -94 38 -118 q 72 -37 60 -69 q 101 40 85 -6 q 140 153 117 85 q 196 317 164 221 q 272 549 228 414 q 340 756 308 657 q 394 935 371 854 q 433 1077 418 1017 q 451 1168 447 1138 q 460 1213 456 1204 q 479 1222 464 1222 q 490 1222 482 1222 q 508 1219 499 1221 q 524 1217 515 1218 q 540 1217 533 1217 q 593 1221 565 1217 q 628 1225 614 1225 q 644 1211 644 1225 q 641 1192 644 1203 q 626 1165 638 1182 q 583 1075 611 1143 q 517 906 554 1007 q 435 678 479 806 q 346 407 392 550 q 288 218 314 307 q 244 53 263 129 q 213 -82 225 -22 q 199 -181 201 -142 q 176 -203 194 -203 q 155 -201 171 -203 q 117 -194 139 -199 l 86 -193 z "},":":{"ha":472,"x_min":192,"x_max":431,"o":"m 426 156 q 368 60 426 122 q 268 -1 311 -1 q 226 42 247 -1 q 204 92 217 64 q 192 149 192 121 q 202 199 192 178 q 229 233 213 219 q 267 254 246 247 q 311 261 289 261 q 355 252 333 261 q 392 228 376 243 q 417 195 407 214 q 426 156 426 176 m 431 804 q 420 763 431 788 q 381 706 410 738 q 358 679 367 690 q 341 660 349 668 q 326 649 333 653 q 308 644 319 644 q 269 656 297 644 q 231 690 242 668 q 211 790 211 736 q 241 879 211 849 q 315 910 271 910 q 359 901 338 910 q 396 877 381 892 q 421 844 411 863 q 431 804 431 825 z "},";":{"ha":479,"x_min":135,"x_max":446,"o":"m 446 800 q 388 704 446 767 q 288 643 331 643 q 246 686 265 643 q 226 786 226 729 q 256 875 226 844 q 331 906 286 906 q 374 897 353 906 q 411 873 396 888 q 436 840 426 858 q 446 800 446 821 m 404 121 q 301 -54 404 78 q 228 -144 261 -106 q 169 -208 196 -182 l 135 -208 l 135 -183 q 165 -99 144 -162 q 215 72 185 -36 q 310 210 254 210 q 376 179 350 210 q 404 121 404 147 z "},"<":{"ha":457,"x_min":31,"x_max":453,"o":"m 453 733 q 409 676 436 706 q 346 614 382 646 q 279 559 313 586 q 214 504 246 532 l 399 176 l 204 61 q 203 90 204 75 q 196 122 203 106 l 31 500 q 93 547 63 521 q 154 603 124 572 q 256 733 224 672 l 453 733 l 453 733 z "},"=":{"ha":740,"x_min":36,"x_max":693,"o":"m 317 551 q 220 549 258 551 q 155 541 182 547 q 110 525 128 535 q 75 499 92 515 q 53 486 63 486 q 36 504 36 486 q 46 535 36 513 q 62 579 56 563 q 72 608 68 596 q 79 632 76 621 q 85 660 82 643 q 96 699 92 690 q 107 708 100 708 q 119 706 114 708 q 142 690 124 703 q 154 685 147 686 q 181 682 161 683 q 242 681 201 681 q 356 681 282 681 q 485 681 436 681 q 565 684 535 682 q 613 690 596 686 q 649 700 631 693 q 672 707 661 707 q 688 701 682 707 q 693 688 693 694 q 674 654 693 674 q 635 604 650 628 q 610 550 621 581 q 597 521 603 529 q 582 513 592 513 q 569 516 574 513 q 544 536 564 519 q 531 545 538 542 q 502 550 524 549 q 438 551 481 551 q 317 551 394 551 m 317 296 q 220 294 258 296 q 155 286 182 292 q 110 270 128 281 q 75 243 92 260 q 53 231 60 231 q 36 249 36 231 q 46 279 36 257 q 62 324 56 307 q 72 353 68 340 q 79 376 76 365 q 85 404 82 388 q 96 444 92 435 q 107 453 100 453 q 119 450 114 453 q 142 436 124 447 q 154 430 147 432 q 181 426 161 428 q 242 425 201 425 q 356 425 282 425 q 485 426 436 425 q 565 428 535 426 q 613 434 596 431 q 649 444 631 438 q 672 451 661 451 q 693 432 693 451 q 674 399 693 418 q 635 349 650 372 q 610 294 621 325 q 597 265 603 274 q 582 257 592 257 q 569 260 574 257 q 544 281 564 264 q 531 290 538 286 q 502 294 524 293 q 438 296 481 296 q 317 296 394 296 z "},">":{"ha":457,"x_min":36,"x_max":438,"o":"m 438 314 q 324 200 383 272 q 231 65 264 128 l 36 65 q 136 182 71 113 q 192 238 161 208 q 258 303 222 268 l 74 633 l 268 746 q 271 715 269 731 q 278 686 272 700 l 438 314 l 438 314 z "},"?":{"ha":1093,"x_min":228,"x_max":1043,"o":"m 758 154 q 700 58 758 121 q 600 -3 643 -3 q 558 40 578 -3 q 539 140 539 83 q 569 229 539 199 q 643 260 599 260 q 687 251 665 260 q 724 227 708 242 q 749 194 739 213 q 758 154 758 175 m 844 881 q 757 1063 844 985 q 639 1122 686 1122 l 522 1122 q 407 1057 479 1122 q 335 992 371 1025 q 264 924 300 958 q 235 933 242 924 q 228 968 228 943 q 349 1267 228 1139 q 632 1394 472 1394 q 925 1272 807 1394 q 1043 961 1043 1150 q 929 661 1043 813 l 654 365 q 651 381 651 376 q 723 508 690 447 q 783 628 756 568 q 844 881 844 750 z "},"@":{"ha":1097,"x_min":35,"x_max":1076,"o":"m 639 592 q 569 553 596 568 q 533 531 543 538 q 461 403 461 478 q 468 356 461 379 q 486 316 475 333 q 513 288 497 299 q 543 276 528 276 q 639 328 581 276 l 639 592 m 1076 560 q 1059 402 1076 472 q 1008 283 1042 332 q 926 207 975 233 q 813 181 876 181 q 724 224 775 181 q 654 299 688 254 l 592 260 q 551 224 574 249 q 496 167 528 200 q 361 260 408 193 q 324 368 324 311 q 425 594 324 489 q 464 588 442 590 q 496 585 486 585 q 600 608 551 585 q 618 618 610 613 q 639 631 626 624 l 639 690 q 623 753 639 738 q 569 768 607 768 q 481 722 526 768 q 410 678 436 678 q 395 683 403 678 q 381 697 388 689 q 370 712 375 704 q 365 724 365 719 q 374 756 365 738 q 388 774 382 774 l 431 772 q 550 813 479 769 l 639 867 q 659 869 650 868 q 672 871 668 871 q 693 867 689 871 q 750 803 715 818 q 775 715 775 758 l 775 331 q 794 289 775 307 q 842 271 814 271 q 926 343 892 271 q 964 501 964 415 q 863 842 964 681 q 525 1049 735 1049 q 278 910 388 1049 q 168 585 168 769 q 308 175 168 350 q 672 -15 458 -15 q 581 -58 624 -43 q 506 -81 538 -74 q 185 108 326 -54 q 35 507 35 285 q 217 974 35 783 q 558 1138 376 1138 q 925 967 772 1138 q 1076 560 1076 799 z "},"A":{"ha":1385,"x_min":0,"x_max":1322,"o":"m 432 1094 q 401 1111 426 1096 q 328 1154 375 1126 q 183 1199 254 1199 q 119 1179 150 1199 q 78 1100 78 1151 q 88 1050 78 1078 q 97 1003 97 1022 q 90 963 97 969 q 58 957 82 957 q 15 982 32 957 q 0 1022 0 1010 q 124 1260 0 1136 q 261 1363 229 1363 l 340 1363 q 481 1311 369 1363 q 526 1290 500 1303 q 589 1258 553 1276 l 608 1274 q 635 1290 631 1290 q 653 1284 643 1290 q 674 1258 663 1278 l 432 1094 m 1322 183 q 1243 64 1307 132 q 1165 0 1185 0 q 1117 22 1138 11 q 1083 44 1097 33 q 1001 217 1001 110 l 1001 361 l 1001 393 q 989 400 992 394 q 982 426 982 411 q 978 469 981 446 q 976 501 976 493 q 982 524 976 514 l 963 524 q 925 504 944 519 q 886 467 906 489 q 847 422 867 446 q 806 374 826 397 q 683 435 728 415 q 478 497 543 497 q 410 458 439 497 q 372 419 381 419 q 351 431 361 419 q 340 458 340 443 q 436 581 340 485 q 603 688 543 688 l 956 576 l 963 825 q 930 942 951 883 q 876 1064 908 1001 q 772 1167 822 1167 q 663 1076 746 1167 q 561 950 610 1018 q 465 799 513 882 q 410 699 433 743 q 372 624 388 656 q 307 386 307 478 q 307 267 307 311 q 308 206 307 222 q 308 199 308 203 q 307 190 308 196 q 278 96 292 129 q 196 0 238 0 q 153 15 169 0 q 138 53 138 29 q 181 140 138 72 q 203 203 203 175 q 117 325 203 226 q 32 531 32 422 q 124 781 32 668 q 237 892 164 829 q 419 1031 310 956 l 950 1389 l 982 1389 l 982 1363 q 969 1348 975 1356 q 963 1331 963 1340 q 1110 1164 1047 1267 q 1179 938 1179 1050 l 1179 865 q 1186 795 1179 813 q 1199 767 1193 778 q 1203 678 1203 717 q 1202 628 1203 642 q 1199 603 1201 614 q 1211 587 1204 594 q 1218 569 1218 579 l 1218 504 q 1235 307 1218 369 q 1322 217 1258 217 l 1322 183 z "},"B":{"ha":1631,"x_min":0,"x_max":1563,"o":"m 1563 592 q 1356 217 1563 435 q 997 0 1149 0 l 939 0 q 865 12 907 0 q 772 50 824 24 l 575 151 q 473 193 518 181 q 393 206 428 206 l 328 206 q 226 128 254 206 q 168 51 200 51 q 132 57 138 51 q 117 115 117 69 q 264 282 117 207 q 413 406 411 358 q 417 529 415 485 q 419 588 419 574 q 413 624 419 607 q 413 667 413 650 q 415 694 414 683 q 419 710 417 704 q 425 721 421 717 q 411 749 411 735 q 413 763 413 754 q 406 785 413 768 q 347 819 392 811 q 290 849 306 828 l 290 888 q 488 942 388 888 q 588 997 538 969 q 689 1054 638 1025 l 707 1054 l 707 1010 q 674 968 692 999 q 650 900 650 928 l 650 528 q 679 468 650 501 q 694 438 694 450 q 649 403 694 421 q 586 367 613 389 l 682 367 q 844 308 732 367 l 1088 181 l 1158 181 q 1276 261 1200 181 q 1369 457 1369 358 q 1221 643 1369 544 q 990 733 1081 733 q 839 646 868 733 q 760 560 810 560 q 727 576 740 560 q 714 604 714 592 q 810 743 714 653 q 1158 990 929 854 q 1063 1133 1125 1076 q 946 1189 1003 1189 l 856 1189 q 781 1172 829 1189 q 663 1117 733 1154 l 403 981 q 276 924 328 942 q 193 907 224 907 l 103 907 q 36 942 72 907 q 0 1010 0 978 q 17 1041 0 1028 q 58 1054 35 1054 q 104 1013 93 1054 q 161 971 114 971 q 392 1079 233 971 q 595 1217 521 1167 q 690 1279 669 1267 q 1010 1389 875 1389 q 1221 1318 1133 1389 q 1272 1267 1243 1300 q 1335 1185 1300 1233 q 1421 1113 1386 1113 q 1423 1099 1422 1104 q 1424 1092 1424 1094 q 1422 1076 1422 1082 q 1421 1068 1421 1071 q 1371 1017 1421 1042 q 1222 932 1233 947 l 1469 782 q 1563 592 1563 697 z "},"C":{"ha":1221,"x_min":0,"x_max":1158,"o":"m 1158 375 q 1096 257 1158 340 q 911 88 1019 156 q 611 0 771 0 q 289 113 440 0 q 76 356 164 206 q 0 579 0 486 l 0 718 q 82 967 0 826 q 296 1204 165 1107 q 412 1281 354 1247 q 524 1340 469 1315 q 627 1376 578 1364 q 717 1389 676 1389 q 894 1357 754 1389 q 951 1343 918 1351 q 1026 1324 983 1335 q 1082 1363 1038 1324 q 1118 1382 1106 1382 q 1140 1370 1128 1382 q 1151 1350 1151 1358 q 1092 1244 1151 1333 q 1028 1144 1056 1189 q 982 1065 1000 1100 q 921 869 921 946 l 921 796 l 868 796 q 858 853 858 836 q 865 867 858 864 q 868 869 868 869 q 878 965 868 931 q 889 996 883 981 q 901 1026 894 1011 q 771 1113 901 1044 q 526 1192 622 1192 q 265 1068 374 1192 q 164 810 164 953 q 278 507 164 647 q 519 313 372 389 q 738 243 651 243 l 829 243 q 1017 332 928 243 q 1125 421 1106 421 q 1148 408 1138 421 q 1158 375 1158 394 z "},"D":{"ha":1433,"x_min":0,"x_max":1371,"o":"m 1371 694 q 1332 492 1371 614 q 1240 285 1292 365 q 1172 201 1214 244 q 1071 113 1131 157 q 815 0 922 0 l 758 0 q 663 19 711 0 q 567 81 614 38 l 404 231 q 311 293 357 274 q 224 313 265 313 q 97 214 121 313 q 32 115 74 115 q 8 130 15 115 q 0 165 0 144 q 19 232 0 197 q 79 299 39 267 l 225 415 q 287 489 268 450 q 306 567 306 528 l 306 694 q 211 882 306 871 q 167 911 167 889 q 172 928 167 922 q 199 936 178 936 l 256 936 q 325 944 288 936 q 407 974 363 953 l 581 1057 q 599 1032 599 1057 q 569 990 599 1017 q 542 936 542 963 l 542 586 q 561 539 542 561 q 581 510 581 517 q 519 478 581 493 q 421 414 457 465 q 433 411 426 413 q 451 409 440 410 q 481 408 463 408 q 529 408 500 408 q 596 394 561 408 q 668 349 631 381 q 733 293 701 321 q 797 239 765 265 q 938 178 872 178 q 1156 325 1050 178 q 1256 586 1256 464 l 1256 643 q 1138 954 1256 822 q 879 1089 1019 1089 l 644 1089 l 568 1076 q 465 1064 486 1064 l 293 1064 q 160 1100 217 1064 q 96 1211 96 1142 q 136 1332 96 1275 q 224 1389 178 1389 q 244 1364 236 1389 q 338 1306 263 1306 q 517 1328 431 1318 q 657 1338 603 1338 l 893 1338 q 1244 1164 1103 1338 q 1371 835 1371 1011 l 1371 694 z "},"E":{"ha":1174,"x_min":0,"x_max":1132,"o":"m 1132 1318 q 1038 1160 1132 1247 q 854 1074 943 1074 q 692 1115 821 1074 q 546 1157 563 1157 l 418 1157 q 242 1058 343 1157 q 128 824 128 949 l 128 707 q 140 660 128 686 q 174 624 151 633 q 242 792 174 718 q 367 861 304 861 l 463 861 q 543 844 503 851 q 604 836 583 836 q 672 860 640 836 q 719 926 703 883 l 758 926 q 760 914 760 922 l 760 904 q 758 889 758 894 q 758 881 758 883 q 699 713 758 801 q 572 617 633 617 l 507 617 q 442 633 489 617 q 360 650 393 650 q 265 618 314 650 q 218 540 218 588 q 275 457 218 522 q 349 385 311 417 q 426 329 386 353 q 643 264 536 264 l 836 264 q 906 277 872 264 q 968 322 940 290 l 1086 450 q 1114 434 1110 450 q 1118 392 1118 418 q 960 142 1118 285 q 675 0 801 0 l 546 0 q 408 35 483 0 q 154 244 276 94 q 35 454 75 343 q 0 624 0 549 l 0 714 q 60 942 0 804 q 193 1164 121 1083 q 365 1296 246 1222 q 617 1389 517 1389 l 700 1389 q 838 1343 718 1389 q 976 1299 958 1299 q 1065 1347 1025 1299 q 1099 1369 1083 1369 q 1125 1356 1118 1369 q 1132 1318 1132 1343 z "},"F":{"ha":1133,"x_min":0,"x_max":1133,"o":"m 1133 1336 q 1053 1200 1133 1324 q 985 1097 1013 1138 q 943 1035 958 1056 l 904 1035 q 903 1058 903 1042 q 903 1079 903 1067 q 904 1107 904 1092 q 814 1186 906 1146 q 661 1225 726 1225 q 567 1210 613 1225 q 524 1172 524 1196 l 524 688 l 543 688 l 672 790 q 799 832 740 832 l 982 832 q 1015 814 997 832 l 1022 806 l 944 675 q 851 544 867 544 q 818 579 824 544 q 707 656 804 656 q 603 622 665 656 q 531 544 531 583 l 531 236 q 550 107 531 153 l 596 33 l 586 21 q 543 7 571 7 q 501 17 532 7 q 458 26 471 26 l 379 26 q 355 19 365 22 q 338 15 344 17 q 288 0 299 6 l 256 0 l 256 72 q 263 90 257 75 q 278 132 268 104 q 282 142 279 136 q 288 157 285 149 l 288 885 q 278 889 279 888 q 268 917 268 897 l 268 1153 q 72 1238 143 1199 q 0 1317 0 1276 q 26 1343 0 1343 q 136 1293 74 1315 q 275 1271 199 1271 q 506 1329 332 1271 q 747 1389 676 1389 l 844 1389 q 960 1372 913 1389 q 1054 1336 1007 1354 q 1079 1354 1060 1336 q 1094 1363 1089 1363 l 1114 1354 q 1133 1336 1133 1343 z "},"G":{"ha":1468,"x_min":0,"x_max":1375,"o":"m 1375 558 l 1363 501 q 1332 430 1351 465 q 1286 358 1313 394 q 1090 168 1213 257 q 1010 114 1050 139 q 932 69 971 89 q 719 0 800 0 l 596 0 l 543 8 q 419 50 478 19 q 304 124 361 81 q 75 373 150 240 q 0 649 0 506 q 54 861 0 724 q 175 1071 108 997 q 418 1261 272 1179 q 528 1316 471 1292 q 649 1360 586 1340 q 778 1389 742 1389 l 882 1389 q 948 1379 910 1389 q 1038 1347 986 1369 q 1086 1326 1061 1336 q 1135 1304 1111 1315 q 1163 1326 1154 1304 q 1188 1350 1171 1350 q 1215 1336 1199 1350 q 1232 1311 1232 1322 q 1172 1228 1197 1264 q 1129 1169 1146 1193 q 1025 1013 1025 1024 q 1064 989 1025 997 q 1251 903 1185 961 q 1333 803 1290 869 q 1375 701 1375 738 l 1375 558 m 1161 532 q 1078 715 1161 607 q 953 831 1000 814 q 937 805 943 815 q 928 779 931 794 l 882 779 l 865 796 q 863 811 863 801 q 866 844 863 833 q 882 863 869 854 l 882 883 q 838 896 858 889 q 811 903 817 903 l 746 903 l 704 869 q 675 804 675 846 q 710 738 675 767 l 726 726 q 751 740 733 726 q 785 753 768 753 q 811 714 811 753 q 783 667 811 690 q 734 624 757 646 q 694 578 711 603 l 617 461 q 597 440 607 446 q 576 435 586 435 q 549 439 557 435 q 542 450 542 443 q 549 464 542 454 q 551 467 549 464 q 542 478 542 471 q 551 506 542 488 q 503 569 535 515 q 467 629 471 628 l 467 733 q 542 867 503 810 q 649 954 582 925 q 824 1006 742 994 q 960 1044 932 1021 l 960 1071 q 880 1105 915 1090 q 819 1129 844 1119 q 603 1188 667 1188 l 538 1188 q 300 1054 426 1188 q 175 799 175 922 q 413 392 175 597 q 831 194 639 194 l 908 194 q 1072 283 983 194 q 1161 447 1161 372 l 1161 532 z "},"H":{"ha":1407,"x_min":0,"x_max":1339,"o":"m 1339 381 q 1319 284 1339 328 q 1257 210 1300 240 l 1182 157 q 1265 76 1208 104 q 1314 33 1314 53 q 1295 -2 1314 8 q 1247 -12 1276 -12 q 1094 93 1171 -12 q 1032 307 1032 181 l 1032 538 l 1032 607 q 935 807 1019 726 q 743 888 850 888 q 535 819 644 888 q 425 706 425 753 l 425 157 q 446 102 425 136 q 490 33 467 68 q 479 10 490 13 q 450 7 468 7 q 408 15 436 7 q 353 33 381 24 l 242 33 q 190 17 225 33 l 157 0 q 133 8 143 0 q 118 39 118 21 q 157 106 118 50 q 176 157 176 133 l 176 1111 q 88 1246 176 1192 q 0 1333 0 1297 q 6 1363 0 1353 q 39 1372 13 1372 q 163 1324 46 1372 q 261 1300 221 1300 l 333 1300 q 532 1342 428 1317 q 653 1370 604 1360 q 731 1386 703 1381 q 748 1388 736 1388 q 768 1388 760 1388 q 851 1387 810 1388 q 933 1386 892 1386 q 1079 1325 989 1386 q 1182 1182 1182 1256 q 1169 1131 1182 1144 q 1122 1117 1157 1117 q 954 1199 1085 1117 q 751 1281 824 1281 l 699 1281 q 652 1274 683 1281 q 572 1257 621 1268 q 438 1215 475 1235 l 438 856 q 540 922 499 896 q 604 958 581 947 q 790 999 692 999 q 1196 813 1031 999 q 1339 478 1339 653 l 1339 381 z "},"I":{"ha":1065,"x_min":0,"x_max":1060,"o":"m 1060 1350 q 1023 1299 1040 1324 q 990 1251 1006 1275 q 957 1143 957 1197 l 957 529 q 969 499 961 515 q 976 465 976 482 q 974 435 976 454 q 969 400 972 417 q 935 292 963 344 q 860 190 907 240 q 671 50 778 107 q 524 0 575 0 l 382 0 q 185 88 303 0 q 32 175 65 175 q 12 185 24 175 q 0 207 0 196 q 143 326 0 214 q 304 439 286 439 q 336 407 336 439 q 317 379 336 394 q 297 349 297 364 q 376 214 297 311 q 563 97 472 97 q 664 147 611 97 q 724 285 724 206 l 724 865 q 683 979 724 956 l 601 1028 q 671 1078 626 1061 q 763 1131 751 1107 q 772 1142 767 1133 q 789 1143 774 1143 q 828 1164 810 1143 q 853 1208 847 1185 l 671 1121 q 511 1092 589 1092 l 382 1092 l 117 1176 q 97 1171 107 1176 q 76 1159 86 1165 q 58 1148 67 1153 q 46 1143 50 1143 q 29 1149 36 1143 q 13 1182 13 1161 q 99 1290 13 1192 q 200 1389 186 1389 q 267 1364 233 1376 q 335 1340 300 1351 q 524 1292 472 1292 l 711 1292 q 775 1299 739 1292 q 856 1322 811 1306 l 1028 1389 q 1060 1350 1060 1389 z "},"J":{"ha":1081,"x_min":0,"x_max":1075,"o":"m 1075 1219 q 1015 1165 1075 1208 q 956 1049 956 1122 l 956 299 l 989 169 q 1015 59 1007 101 q 1022 -1 1022 17 q 1010 -45 1015 -24 q 999 -89 1004 -67 q 872 -251 960 -185 q 568 -339 753 -339 q 418 -317 489 -339 q 286 -256 325 -287 q 213 -165 235 -199 q 139 -1 139 -62 l 139 138 q 153 222 139 174 q 200 329 168 271 l 314 540 q 361 651 346 601 q 376 738 376 701 q 340 821 376 788 q 304 869 304 854 q 319 895 304 883 q 343 907 333 907 q 390 878 378 889 q 439 793 439 838 l 439 696 q 378 533 439 649 q 301 388 329 443 q 264 313 274 333 q 203 60 203 171 q 310 -158 203 -64 q 476 -239 400 -239 l 533 -239 q 715 -162 639 -239 q 781 -40 781 -97 l 781 31 q 738 128 757 71 q 718 260 718 185 l 718 703 q 728 757 724 714 q 732 881 732 800 q 678 944 732 925 q 624 986 624 963 q 683 1029 624 1000 q 751 1066 714 1044 q 831 1118 788 1088 q 740 1157 813 1140 q 669 1169 717 1163 l 561 1169 q 502 1160 528 1164 q 458 1154 476 1157 q 319 1138 343 1138 l 258 1138 q 92 1181 165 1138 q 0 1317 0 1232 q 6 1356 0 1343 q 32 1368 11 1368 q 76 1288 46 1368 q 221 1208 107 1208 q 372 1253 271 1208 q 473 1297 424 1275 q 571 1340 522 1319 q 683 1376 632 1365 q 775 1388 733 1388 q 951 1346 851 1388 q 1075 1219 1075 1293 z "},"K":{"ha":1338,"x_min":0,"x_max":1350,"o":"m 1350 1331 q 1337 1309 1350 1319 q 1311 1299 1324 1299 l 1246 1299 l 1219 1299 q 1188 1292 1200 1299 q 1163 1260 1176 1285 l 1207 1218 q 1226 1138 1226 1190 q 1190 1028 1226 1082 q 1072 933 1153 975 l 878 833 l 988 721 q 1035 618 1013 681 q 1085 472 1057 556 l 1150 278 q 1257 208 1186 214 q 1331 175 1331 201 q 1221 81 1331 161 l 1111 0 q 1061 24 1085 0 l 1033 51 q 958 135 990 94 q 908 219 926 176 q 867 388 901 235 q 832 500 853 446 q 781 607 811 554 q 744 666 761 642 q 714 704 728 690 q 651 736 682 736 l 622 732 q 560 716 586 726 q 517 692 535 706 l 517 188 q 551 93 517 149 q 588 26 588 36 q 549 0 588 0 q 478 22 513 13 q 419 32 444 32 q 322 19 361 32 q 271 7 283 7 q 244 11 250 7 q 232 46 232 19 q 261 113 232 50 q 290 200 290 175 l 290 1118 q 144 1229 290 1201 q 0 1324 0 1257 q 7 1350 0 1343 q 32 1357 14 1357 q 76 1328 40 1357 q 168 1299 111 1299 q 266 1332 219 1317 q 353 1360 313 1347 q 522 1389 444 1389 q 600 1376 575 1382 q 678 1318 678 1356 l 678 1292 q 551 1256 586 1292 q 517 1138 517 1219 l 517 782 l 561 782 q 737 893 654 831 q 885 1043 819 956 l 1064 1283 q 1157 1364 1106 1339 q 1265 1389 1208 1389 q 1324 1373 1297 1389 q 1350 1331 1350 1357 z "},"L":{"ha":1269,"x_min":0,"x_max":1264,"o":"m 1264 46 q 1252 9 1264 18 q 1210 0 1240 0 l 978 33 l 614 33 l 479 33 q 397 31 432 33 q 336 26 361 29 l 240 14 l 121 14 l 100 14 l 93 8 q 78 1 82 1 q 61 40 61 1 q 101 82 61 75 q 160 100 140 88 l 160 1050 q 79 1175 160 1140 q 0 1222 0 1210 q 88 1268 0 1249 q 274 1310 207 1292 l 447 1360 q 558 1389 544 1389 l 732 1389 q 784 1375 763 1382 q 821 1363 806 1368 q 911 1289 911 1326 q 897 1263 911 1276 q 864 1250 883 1250 q 814 1273 839 1263 q 764 1293 789 1283 q 658 1315 706 1315 q 463 1239 526 1315 q 406 1050 406 1169 l 406 126 l 432 126 q 613 231 483 144 q 825 299 714 299 q 887 290 856 299 q 950 261 918 281 q 1010 220 986 238 q 1050 193 1035 203 q 1058 256 1051 199 q 1063 309 1061 283 q 1064 358 1064 335 q 1072 438 1064 408 q 1090 525 1090 500 l 1090 592 q 1086 618 1090 601 q 1076 651 1082 635 q 1061 684 1069 668 q 1044 711 1053 700 l 1044 751 l 1083 751 q 1169 637 1142 693 q 1197 506 1197 581 l 1197 286 q 1196 261 1196 281 q 1242 113 1196 201 q 1264 46 1264 69 z "},"M":{"ha":1953,"x_min":-19,"x_max":1890,"o":"m 1890 567 q 1754 222 1890 424 q 1493 13 1613 13 l 1421 13 q 1354 44 1403 13 l 1304 78 q 1271 65 1293 78 q 1251 58 1257 58 q 1231 72 1242 58 q 1219 97 1219 86 q 1283 165 1256 136 q 1329 214 1311 194 q 1454 332 1442 332 q 1483 247 1479 332 q 1565 163 1488 163 q 1686 226 1624 163 q 1760 404 1760 303 q 1628 674 1760 490 q 1516 820 1578 744 q 1379 979 1454 896 q 1283 1084 1318 1047 q 1239 1128 1249 1121 l 1050 951 l 1050 228 q 1072 122 1050 165 q 1090 96 1078 113 q 1121 53 1101 79 l 1121 13 l 1101 13 q 1018 25 1057 13 q 985 32 993 32 l 906 32 q 849 15 878 22 q 801 7 821 7 q 782 10 793 7 q 763 32 763 17 q 808 104 788 71 q 828 176 828 138 l 828 1036 q 781 1103 828 1051 q 711 1154 733 1154 q 596 1053 693 1154 q 436 861 492 944 q 344 676 383 779 q 307 528 307 572 l 307 332 l 346 150 l 346 72 q 341 49 346 61 q 329 26 336 36 q 313 8 322 15 q 293 0 303 0 q 251 17 267 0 q 235 53 235 35 q 247 99 235 61 q 254 138 254 122 q 126 225 254 151 q 0 443 0 300 l 0 496 l 11 567 q 97 743 35 653 q 201 860 140 806 q 332 972 261 915 l 419 1042 q 517 1122 478 1089 q 579 1172 557 1154 q 649 1231 622 1208 q 685 1265 675 1254 q 721 1303 700 1281 q 769 1357 742 1326 q 801 1389 799 1389 q 874 1342 843 1363 q 925 1303 906 1321 q 1050 1096 1050 1196 l 1069 1096 q 1253 1263 1182 1176 q 1363 1376 1346 1376 q 1386 1350 1374 1363 q 1410 1325 1399 1338 q 1492 1234 1463 1267 q 1529 1194 1522 1201 q 1601 1111 1564 1156 q 1682 1017 1639 1067 q 1735 960 1685 1017 q 1790 889 1765 925 q 1835 817 1815 853 q 1890 632 1890 715 l 1890 567 m 639 1297 q 611 1267 639 1292 q 515 1186 583 1242 q 449 1117 478 1146 q 411 1089 421 1089 q 319 1154 369 1128 q 201 1186 258 1186 q 88 1140 131 1186 q 51 1069 51 1101 l 51 958 l 7 958 q -15 982 -14 976 q -19 1024 -19 992 q 96 1283 -19 1172 q 274 1376 193 1376 l 365 1376 q 395 1371 376 1376 q 440 1351 414 1365 l 547 1297 q 557 1302 551 1297 q 569 1313 563 1307 q 585 1325 576 1319 q 606 1331 593 1331 q 631 1325 622 1331 q 639 1297 639 1319 z "},"N":{"ha":1353,"x_min":0,"x_max":1260,"o":"m 1260 504 q 1229 379 1260 446 q 1164 285 1197 308 q 1106 264 1153 278 q 1074 232 1074 256 q 1154 113 1074 164 q 1235 46 1235 61 q 1221 24 1228 31 q 1164 0 1197 0 q 1038 78 1099 0 q 969 278 969 163 l 969 704 q 878 993 969 839 q 640 1169 774 1169 q 571 1135 624 1169 q 493 1080 535 1111 q 407 1008 451 1049 l 407 188 q 431 103 407 150 q 451 71 440 85 q 472 46 461 57 q 458 28 465 36 q 440 19 451 19 q 378 35 442 19 q 304 51 317 51 l 246 51 q 201 41 231 51 q 143 19 172 31 q 119 28 129 19 q 104 58 104 40 q 129 99 104 69 l 156 129 q 161 144 158 133 q 163 161 163 149 q 161 178 161 171 q 161 190 161 185 q 175 239 161 215 l 175 879 q 163 879 172 881 q 165 922 164 896 q 167 953 167 947 q 163 989 167 982 l 175 989 q 158 1074 175 1033 q 92 1131 135 1131 q 51 1121 65 1131 q 26 1111 38 1111 q 6 1117 11 1111 q 0 1150 0 1122 q 79 1231 0 1168 l 278 1389 q 363 1294 328 1365 l 421 1138 l 750 1382 q 1044 1199 926 1333 q 1125 1093 1088 1150 q 1183 965 1163 1036 l 1221 840 q 1233 813 1228 825 q 1240 792 1238 801 q 1260 697 1260 733 l 1260 504 z "},"O":{"ha":1246,"x_min":0,"x_max":1179,"o":"m 1179 682 q 1104 436 1179 594 q 901 143 1022 264 q 606 0 757 0 q 204 189 393 0 q 0 650 0 390 q 44 868 0 715 q 96 1019 82 999 q 176 1135 131 1079 q 276 1244 221 1192 q 556 1389 429 1389 l 663 1389 q 829 1331 726 1389 q 982 1204 915 1283 q 1038 1144 1013 1174 q 1082 1086 1063 1114 q 1179 803 1179 943 l 1179 682 m 1033 643 q 949 829 994 740 q 842 975 899 924 q 783 1035 810 1010 q 736 1076 756 1060 q 517 1179 610 1179 l 408 1179 q 258 1085 338 1179 q 179 918 179 990 l 179 751 q 261 540 179 672 q 294 490 272 522 q 351 414 317 458 q 538 247 433 306 q 682 197 622 197 l 753 197 q 958 338 860 197 q 1033 478 989 382 l 1033 643 z "},"P":{"ha":1628,"x_min":0,"x_max":1621,"o":"m 1621 785 q 1510 444 1621 638 q 1394 276 1457 353 q 1257 135 1332 199 q 985 0 1104 0 q 913 7 949 0 q 842 35 876 14 l 689 126 l 689 -147 q 710 -268 689 -226 l 758 -332 q 747 -353 758 -343 q 718 -364 736 -364 q 660 -347 696 -354 q 571 -339 624 -339 q 513 -349 536 -339 q 453 -371 458 -371 q 424 -356 435 -371 q 413 -319 413 -340 q 439 -262 413 -314 q 453 -211 453 -236 l 453 260 l 378 260 q 306 142 326 218 q 274 119 300 119 q 245 134 258 119 q 232 161 232 149 q 333 318 232 254 l 453 378 l 453 711 q 367 828 453 817 q 326 864 326 835 q 344 896 326 886 q 435 929 386 910 q 540 976 483 949 q 595 1008 563 988 q 674 1058 628 1028 q 764 1104 742 1104 q 789 1076 789 1104 l 726 978 q 696 904 696 931 l 696 378 l 968 250 q 1032 220 1008 231 q 1064 207 1056 210 q 1117 203 1081 203 q 1288 307 1206 203 q 1382 597 1382 426 l 1382 711 q 1218 1054 1382 899 q 963 1189 1075 1189 l 817 1189 q 657 1131 779 1189 q 403 1014 533 1072 q 200 957 272 957 q 64 990 119 957 q 0 1097 0 1029 q 21 1147 0 1125 q 61 1169 42 1169 q 85 1160 74 1165 q 113 1142 96 1154 l 113 1050 q 150 1028 129 1043 q 189 1024 156 1024 q 397 1118 246 1024 q 689 1293 618 1257 q 1015 1389 876 1389 l 1103 1389 q 1476 1206 1318 1389 q 1621 857 1621 1038 l 1621 785 z "},"Q":{"ha":1335,"x_min":0,"x_max":1285,"o":"m 1285 731 q 1228 494 1285 619 l 1103 288 l 1133 246 q 1181 203 1165 203 l 1219 203 q 1243 207 1240 207 q 1246 182 1246 207 q 1135 85 1246 171 l 1024 0 q 988 65 1015 0 q 939 131 960 131 q 868 82 907 106 q 785 40 829 58 q 692 11 740 22 q 593 0 643 0 q 394 78 497 0 q 344 122 383 86 q 238 222 306 158 q 111 300 156 300 l 46 300 q 42 297 43 297 q 19 290 28 290 q 0 319 0 290 q 72 378 0 332 q 144 508 144 424 l 144 900 q 92 972 144 931 q 39 1024 39 1014 q 125 1067 39 1043 q 229 1108 185 1081 l 283 1161 q 358 1232 343 1221 q 549 1351 463 1313 q 718 1389 635 1389 l 776 1389 q 871 1367 836 1381 q 1076 1226 981 1326 q 1235 1008 1185 1113 q 1285 789 1285 903 l 1285 731 m 1083 482 l 1083 724 q 1022 907 1061 814 q 933 1043 983 1000 l 789 1165 q 633 1219 703 1219 l 561 1219 q 486 1200 536 1219 q 379 1135 426 1175 l 379 626 q 382 575 379 599 q 393 533 385 551 l 424 469 q 317 418 424 451 l 208 385 q 238 379 219 379 q 271 382 244 379 q 319 385 297 385 q 501 321 415 385 l 631 201 q 750 138 699 138 q 811 151 781 138 q 874 182 842 165 l 874 203 q 840 220 857 211 q 807 238 824 229 q 756 249 786 249 q 732 247 749 249 q 692 242 715 244 q 685 263 686 256 q 672 274 683 267 q 763 343 697 315 q 849 365 813 365 l 933 365 q 947 365 942 365 q 958 362 951 364 q 976 354 965 360 q 1004 339 986 349 l 1031 339 l 1083 482 z "},"R":{"ha":1503,"x_min":0,"x_max":1497,"o":"m 1494 179 q 1468 143 1494 161 q 1388 88 1399 97 q 1311 13 1346 54 q 1271 -25 1279 -25 q 1114 151 1182 -25 q 1018 481 1099 190 q 925 657 971 657 q 857 576 886 657 q 796 496 828 496 q 763 518 768 496 q 743 556 757 540 q 764 600 753 565 q 967 771 776 635 q 1049 826 1007 799 q 1132 881 1090 854 q 1200 940 1200 924 q 1142 1086 1200 1011 q 939 1186 1064 1186 q 821 1172 888 1186 q 674 1121 754 1157 l 404 1000 q 275 951 329 967 q 185 935 221 935 q 57 972 113 935 q 0 1067 0 1013 q 13 1101 0 1088 q 46 1114 26 1114 q 97 1064 85 1114 q 193 1014 110 1014 q 428 1111 272 1014 l 718 1292 q 885 1367 806 1346 q 1032 1389 964 1389 q 1249 1311 1150 1389 q 1316 1248 1285 1283 q 1369 1167 1347 1213 l 1407 1088 q 1442 1076 1410 1083 q 1475 1026 1475 1069 q 1382 943 1435 979 q 1278 876 1338 911 q 1144 803 1219 842 q 1169 758 1154 778 l 1213 713 q 1304 375 1260 513 q 1388 214 1349 236 q 1419 208 1397 208 q 1435 209 1425 208 q 1461 211 1446 210 q 1485 213 1476 213 q 1494 214 1493 214 q 1497 202 1496 207 q 1497 192 1497 197 q 1494 179 1494 189 m 711 1033 q 667 975 710 1029 q 636 894 636 936 q 636 635 636 731 q 635 513 636 540 q 631 460 633 485 q 624 415 629 435 q 626 388 625 407 q 628 326 628 368 q 627 267 628 299 q 625 200 626 236 q 624 146 624 164 q 624 126 624 128 l 661 79 q 699 21 699 31 l 686 8 q 657 -6 672 -6 q 610 6 639 -6 q 508 33 539 33 q 454 24 483 33 q 375 1 383 1 q 331 40 331 1 q 356 81 331 56 q 382 140 382 107 l 382 757 q 326 838 382 815 q 271 875 271 860 q 339 910 271 892 q 405 930 374 919 q 463 956 436 940 q 534 996 503 978 q 592 1025 565 1014 q 676 1053 651 1053 q 692 1043 683 1047 q 711 1033 701 1039 z "},"S":{"ha":1328,"x_min":0,"x_max":1247,"o":"m 1247 504 q 1188 306 1247 415 q 1006 97 1119 178 q 697 0 869 0 l 563 0 q 245 78 379 0 q 32 304 111 157 q 17 325 19 318 q 0 368 0 351 l 0 433 q 57 556 0 503 q 181 607 113 607 q 233 599 208 607 q 282 578 258 592 q 329 510 329 549 l 329 490 q 228 467 256 490 q 200 381 200 443 q 304 183 200 272 q 600 83 422 83 q 875 189 761 83 q 989 426 989 294 q 903 639 989 549 q 711 731 817 731 q 565 689 628 731 q 504 575 504 649 l 485 575 q 178 686 314 575 q 32 982 32 804 q 179 1276 32 1151 q 451 1389 310 1389 q 701 1336 569 1389 q 845 1278 774 1308 q 989 1221 917 1249 q 1075 1263 1043 1221 q 1124 1306 1106 1306 q 1143 1294 1131 1306 q 1156 1267 1156 1283 q 1054 1071 1156 1172 q 878 994 978 994 q 789 1008 836 994 q 689 1053 742 1022 q 587 1113 636 1082 q 489 1171 538 1143 q 392 1218 435 1203 q 317 1233 349 1233 q 199 1185 251 1233 q 149 1085 149 1136 q 251 918 149 1004 q 478 826 361 826 l 658 826 q 742 892 682 861 q 885 931 814 931 q 1093 851 999 931 q 1210 694 1161 793 q 1247 582 1247 617 l 1247 504 z "},"T":{"ha":1303,"x_min":0,"x_max":1396,"o":"m 1396 1311 q 1274 1182 1396 1304 q 1182 1078 1207 1115 q 1122 982 1150 1032 q 1068 879 1094 932 q 1019 838 1049 838 q 990 851 1006 838 q 974 876 974 864 q 1015 965 974 879 q 1058 1058 1058 1050 l 931 1065 q 831 1072 867 1068 q 786 1078 796 1075 q 756 1086 776 1081 q 704 1101 736 1092 q 629 1122 639 1122 q 474 1010 575 1122 q 357 753 357 878 l 357 649 q 411 474 357 567 q 586 296 476 363 q 896 214 722 214 q 1072 272 986 214 q 1175 331 1157 331 q 1207 317 1200 331 q 1214 286 1214 303 q 1083 117 1214 221 q 799 0 938 0 l 675 0 q 335 157 513 0 q 150 486 150 321 l 150 636 l 158 706 q 246 890 181 794 q 500 1149 338 1024 q 440 1164 468 1157 q 388 1176 413 1171 q 267 1194 310 1194 q 104 1083 154 1194 q 39 974 54 974 q 7 988 14 974 q 0 1032 0 1003 q 131 1271 0 1154 q 396 1389 261 1389 l 571 1389 l 1097 1279 l 1261 1324 l 1344 1350 q 1378 1338 1360 1350 q 1396 1311 1396 1326 z "},"U":{"ha":1303,"x_min":0,"x_max":1299,"o":"m 1299 181 q 1174 76 1299 157 q 1122 44 1153 63 q 1047 0 1090 25 q 964 72 1028 0 q 888 225 888 157 l 868 225 q 644 65 844 215 q 533 0 556 0 q 431 54 519 0 q 239 213 311 126 q 135 469 135 335 l 135 842 q 147 849 144 843 q 154 875 154 860 l 154 1054 q 117 1138 154 1117 q 39 1151 94 1151 q 0 1189 0 1151 q 103 1293 0 1211 q 218 1376 204 1376 q 311 1315 278 1347 q 404 1086 404 1226 q 405 1062 404 1076 q 406 1033 406 1047 q 406 1004 406 1018 q 407 982 407 990 l 407 963 q 406 943 407 954 q 404 926 404 932 q 396 914 404 919 q 392 911 394 913 q 386 907 389 910 l 399 907 q 393 894 396 900 q 389 883 390 889 q 379 790 379 850 l 379 528 q 453 356 379 444 q 593 233 503 296 q 675 186 661 186 l 781 258 q 888 354 888 332 l 888 604 q 886 610 888 610 l 874 604 l 874 1125 q 851 1271 874 1221 q 826 1314 839 1293 q 803 1357 814 1335 q 822 1382 803 1382 l 836 1382 q 910 1363 843 1382 q 990 1344 972 1344 q 1064 1367 999 1344 q 1144 1389 1129 1389 q 1174 1379 1158 1389 q 1189 1357 1189 1369 q 1139 1285 1160 1335 q 1118 1144 1118 1236 l 1118 360 q 1175 240 1118 281 q 1299 206 1222 206 l 1299 181 z "},"V":{"ha":1224,"x_min":0,"x_max":1217,"o":"m 1217 949 q 1211 888 1217 911 q 1188 810 1204 851 q 1147 721 1171 768 q 961 453 1079 592 q 870 344 917 400 q 779 229 824 289 l 688 108 q 674 76 681 93 q 661 44 668 60 q 592 0 636 0 q 544 54 558 0 q 506 208 521 146 q 478 300 492 269 l 439 390 l 350 606 q 327 658 343 624 q 288 746 311 693 q 244 840 264 799 q 210 911 225 881 q 160 1009 181 969 q 128 1068 140 1049 q 99 1106 108 1101 q 74 1111 90 1111 q 58 1110 64 1110 q 46 1110 51 1110 q 11 1115 22 1110 q 0 1140 0 1121 q 158 1278 0 1167 q 225 1322 185 1296 q 318 1382 265 1347 q 338 1372 332 1382 q 344 1350 344 1361 q 331 1319 344 1329 q 313 1274 317 1310 l 726 300 q 888 514 776 338 q 1013 796 1013 711 l 1013 892 q 956 1054 1013 957 q 815 1165 889 1165 q 774 1151 792 1165 q 714 1121 731 1121 q 688 1165 688 1121 q 742 1222 688 1186 l 847 1293 l 904 1358 q 933 1382 919 1375 q 956 1389 946 1389 q 1119 1276 1028 1389 q 1217 1044 1217 1158 l 1217 949 z "},"W":{"ha":1714,"x_min":0,"x_max":1707,"o":"m 1707 919 q 1676 769 1707 849 q 1574 607 1644 690 l 1326 317 q 1224 160 1256 233 q 1193 25 1193 88 q 1183 10 1193 19 l 1174 0 l 1110 0 l 1072 146 q 1040 242 1058 199 q 1003 324 1022 286 q 942 450 971 386 q 885 581 913 514 q 844 635 861 635 q 815 615 828 635 q 788 578 801 594 q 643 378 696 463 q 576 236 590 294 q 501 0 549 119 l 438 0 q 395 158 419 88 q 339 283 371 228 q 215 439 299 353 q 141 519 171 483 q 96 578 111 554 q 68 644 81 615 q 49 692 56 672 q 0 838 0 817 l 0 944 q 156 1243 17 1104 q 469 1389 301 1389 q 651 1301 543 1389 q 749 1199 749 1222 q 607 1113 749 1185 q 548 1082 583 1100 q 464 1040 513 1064 l 451 1047 q 438 1078 438 1060 q 447 1096 438 1086 q 469 1135 469 1118 q 432 1206 469 1169 q 318 1250 385 1250 q 206 1199 251 1250 q 160 1090 160 1149 l 160 989 q 180 893 160 944 q 244 788 200 842 q 327 690 285 738 q 413 594 369 643 q 533 400 513 481 l 553 400 q 681 589 576 468 q 774 710 774 694 q 707 781 774 715 q 642 850 642 843 q 736 921 642 858 l 832 983 q 878 940 839 983 q 946 882 904 911 q 1026 944 999 925 q 1060 964 1053 964 q 1083 935 1063 964 q 1099 912 1093 921 q 1104 900 1104 903 q 1075 867 1104 885 q 1008 806 1008 821 q 1063 719 1010 806 q 1123 620 1096 665 q 1169 539 1150 575 q 1243 381 1231 426 q 1390 532 1285 392 q 1510 781 1510 689 l 1510 888 q 1446 1053 1510 960 q 1326 1147 1381 1147 q 1294 1136 1319 1147 q 1275 1129 1278 1129 q 1260 1135 1267 1129 q 1248 1149 1253 1140 q 1240 1165 1243 1157 q 1238 1179 1238 1174 q 1364 1289 1238 1201 l 1490 1376 q 1604 1247 1510 1376 q 1707 1021 1707 1103 l 1707 919 z "},"X":{"ha":1596,"x_min":0,"x_max":1589,"o":"m 1589 186 q 1511 132 1557 163 q 1404 65 1465 101 l 1293 0 l 1228 0 q 1050 103 1140 0 q 906 328 986 178 l 785 553 q 669 390 758 538 q 493 133 560 211 q 276 0 378 0 l 225 0 q 104 53 197 0 q 0 154 0 113 q 103 251 0 169 l 206 335 l 238 335 l 238 296 q 266 216 238 246 q 342 186 294 186 q 501 289 419 186 q 531 332 515 306 q 567 392 546 358 q 617 466 590 428 q 671 549 643 504 q 726 650 726 638 l 654 783 q 567 939 581 921 q 521 1008 543 974 q 476 1076 499 1042 q 322 1157 413 1157 q 228 1135 290 1157 q 202 1126 217 1132 q 168 1113 188 1119 q 142 1157 142 1113 q 222 1229 142 1169 q 286 1274 249 1249 q 375 1335 324 1300 q 457 1389 456 1389 q 613 1300 532 1389 q 677 1218 643 1267 q 749 1103 711 1169 l 863 900 q 960 1038 878 910 q 1047 1172 1010 1117 q 1110 1260 1085 1228 q 1254 1376 1201 1376 q 1360 1338 1288 1376 q 1453 1299 1432 1299 q 1506 1321 1485 1299 q 1538 1344 1529 1344 q 1562 1333 1549 1344 q 1575 1306 1575 1321 q 1542 1236 1557 1265 q 1514 1188 1526 1207 q 1357 1068 1436 1068 q 1278 1096 1333 1068 q 1183 1125 1224 1125 q 1076 1051 1133 1125 q 1056 1021 1067 1040 q 1029 978 1046 1001 l 975 900 q 919 804 919 819 l 961 726 l 1049 568 q 1095 488 1076 519 q 1125 443 1114 457 l 1254 279 q 1467 206 1349 206 l 1589 206 l 1589 186 z "},"Y":{"ha":1347,"x_min":0,"x_max":1342,"o":"m 1342 996 q 1307 854 1342 933 q 1262 757 1290 814 q 1192 626 1233 700 l 994 281 q 867 53 914 140 q 800 -65 819 -33 q 771 -110 785 -89 q 742 -150 757 -132 q 689 -207 713 -182 q 647 -247 665 -232 q 469 -346 536 -346 l 351 -346 q 261 -325 325 -346 q 182 -275 182 -300 l 254 -161 q 331 -46 328 -46 l 364 -111 q 517 -176 397 -176 q 681 -89 610 -176 q 733 0 706 -57 q 599 78 672 24 q 458 250 515 139 l 357 572 q 342 634 356 582 q 301 782 328 686 q 253 950 272 888 q 224 1035 235 1013 q 187 1106 201 1079 q 165 1139 172 1132 q 106 1165 140 1165 q 58 1153 68 1165 q 33 1140 47 1140 q 26 1144 31 1140 q 15 1155 21 1149 q 4 1168 8 1161 q 0 1179 0 1175 q 121 1290 0 1192 q 263 1389 244 1389 q 428 1225 360 1389 q 538 849 463 1143 q 608 604 574 707 q 669 432 642 501 q 695 367 685 396 q 715 321 706 339 q 850 210 776 210 q 935 342 856 210 q 1043 529 1015 472 l 1106 654 q 1154 771 1138 717 q 1171 871 1171 825 q 1113 992 1171 931 q 982 1160 982 1126 l 982 1251 q 1036 1339 982 1289 q 1132 1389 1090 1389 l 1186 1389 q 1260 1361 1213 1389 q 1317 1285 1317 1325 q 1311 1246 1317 1251 q 1278 1233 1304 1239 q 1269 1272 1275 1258 q 1240 1304 1258 1304 q 1203 1288 1219 1304 q 1186 1251 1186 1271 q 1264 1171 1186 1233 q 1342 1050 1342 1108 l 1342 996 z "},"Z":{"ha":1374,"x_min":-19,"x_max":1311,"o":"m 1311 313 q 1260 204 1311 272 q 1110 68 1199 122 q 874 0 999 0 l 801 0 q 635 39 743 0 l 411 118 l 332 118 q 154 65 222 118 q 58 13 86 13 q 21 25 31 13 q 0 58 10 43 l 581 665 l 574 678 q 467 644 533 685 q 378 561 414 614 l 339 561 l 339 588 q 436 724 339 622 q 665 847 556 847 l 724 847 q 783 897 733 847 q 837 953 811 925 q 886 1011 863 982 q 935 1066 908 1038 q 997 1126 963 1094 q 1031 1181 1031 1157 q 890 1136 957 1157 q 763 1099 822 1115 q 654 1072 704 1082 q 567 1063 604 1063 l 392 1063 q 258 1101 317 1063 q 176 1213 200 1140 l 157 1213 q 61 1106 94 1151 q 19 1076 40 1076 q -19 1115 -19 1076 q 85 1274 -19 1171 q 319 1389 204 1389 l 450 1389 q 707 1314 478 1389 q 900 1278 819 1278 l 965 1278 q 1147 1324 1057 1278 q 1258 1369 1236 1369 q 1278 1357 1267 1369 q 1304 1324 1299 1329 l 854 842 l 992 697 q 955 665 975 682 q 911 629 935 647 q 789 489 868 596 l 769 489 l 743 597 q 685 639 736 624 l 288 222 l 300 215 q 447 274 371 247 q 692 332 607 332 l 801 332 q 1017 254 935 332 q 1043 222 1031 242 q 1069 176 1056 203 q 1192 275 1147 188 q 1265 365 1240 365 q 1299 351 1288 365 q 1311 313 1311 336 z "},"[":{"ha":461,"x_min":118,"x_max":379,"o":"m 118 1429 q 128 1460 118 1453 q 150 1467 138 1467 q 190 1465 169 1467 q 229 1463 210 1463 q 264 1465 247 1463 q 294 1467 281 1467 q 353 1465 338 1467 q 368 1449 368 1463 q 354 1419 368 1426 q 324 1405 340 1413 q 293 1383 307 1397 q 279 1332 279 1369 l 290 -181 q 304 -232 290 -218 q 335 -253 318 -246 q 365 -268 351 -261 q 379 -297 379 -275 q 364 -313 379 -311 q 306 -315 349 -315 q 275 -313 292 -315 q 240 -311 258 -311 q 201 -313 221 -311 q 161 -315 181 -315 q 139 -308 149 -315 q 129 -278 129 -301 l 118 1429 z "},"\\":{"ha":582,"x_min":-14,"x_max":621,"o":"m 515 -203 q 454 -211 469 -211 q 432 -189 438 -211 q 417 -90 429 -150 q 387 45 406 -31 q 342 210 368 121 q 285 399 317 299 q 197 669 240 542 q 115 898 153 797 q 49 1067 78 999 q 4 1157 19 1135 q -10 1184 -7 1174 q -14 1203 -14 1194 q 3 1217 -14 1217 q 38 1213 17 1217 q 65 1208 51 1210 q 90 1207 78 1207 q 107 1208 99 1207 q 122 1211 115 1210 q 140 1213 132 1213 q 151 1214 149 1214 q 171 1205 167 1214 q 181 1160 175 1196 q 199 1069 185 1129 q 238 927 214 1008 q 292 747 261 846 q 358 540 322 649 q 435 309 403 406 q 491 144 468 213 q 530 31 514 76 q 558 -46 546 -14 q 582 -102 571 -78 q 606 -153 593 -126 q 617 -176 613 -168 q 621 -189 621 -183 q 603 -208 621 -208 q 590 -207 599 -208 q 568 -203 581 -206 q 556 -201 561 -201 q 544 -201 551 -200 l 515 -203 z "},"]":{"ha":461,"x_min":74,"x_max":335,"o":"m 324 -278 q 314 -308 324 -301 q 292 -315 304 -315 q 252 -313 272 -315 q 213 -311 232 -311 q 178 -313 194 -311 q 147 -315 161 -315 q 89 -313 104 -315 q 74 -297 74 -311 q 88 -268 74 -275 q 118 -253 101 -261 q 149 -232 135 -246 q 163 -181 163 -218 l 174 1332 q 160 1383 174 1369 q 129 1405 146 1397 q 99 1419 113 1413 q 85 1449 85 1426 q 100 1465 85 1463 q 158 1467 115 1467 q 189 1465 172 1467 q 224 1463 206 1463 q 263 1465 243 1463 q 303 1467 283 1467 q 325 1460 315 1467 q 335 1429 335 1453 l 324 -278 z "},"^":{"ha":567,"x_min":-6,"x_max":567,"o":"m 28 864 l -6 875 l 3 899 q 46 951 21 917 q 99 1026 71 986 q 156 1105 126 1065 q 214 1172 186 1144 q 241 1203 225 1190 q 278 1217 257 1217 q 300 1211 289 1217 q 333 1188 318 1206 q 394 1122 363 1163 q 455 1040 425 1082 q 512 959 485 997 q 558 901 539 921 l 567 878 l 533 867 q 487 893 517 875 q 422 935 457 911 q 349 985 386 960 q 281 1035 311 1011 q 212 985 249 1011 q 140 934 175 958 q 74 891 104 910 q 28 864 44 872 z "},"_":{"ha":694,"x_min":0,"x_max":694,"o":"m 694 -11 l 694 -96 l 0 -96 l 0 -11 l 694 -11 z "},"`":{"ha":317,"x_min":36,"x_max":306,"o":"m 306 960 l 271 960 q 213 1024 244 986 q 140 1113 181 1061 q 36 1289 36 1246 q 61 1344 36 1317 q 131 1378 92 1378 q 225 1242 185 1378 q 306 985 288 1022 l 306 960 z "},"a":{"ha":1031,"x_min":0,"x_max":936,"o":"m 840 74 q 731 7 740 7 q 656 53 692 7 l 578 153 q 460 76 574 153 q 332 0 346 0 q 126 103 233 0 q 0 399 0 225 q 165 735 0 557 q 525 924 340 924 q 640 871 563 924 q 751 818 718 818 q 876 883 794 818 l 903 883 l 903 857 q 817 738 851 796 q 776 597 776 672 l 776 299 q 856 179 776 210 q 936 139 936 149 l 840 74 m 671 644 q 638 653 656 653 q 615 650 625 653 q 597 644 606 647 q 471 711 542 644 q 358 778 400 778 q 246 711 293 778 q 200 558 200 646 q 193 537 200 554 q 186 506 186 519 q 283 289 186 415 q 451 193 356 193 q 528 208 489 193 l 571 226 l 571 492 q 586 513 579 503 q 599 532 593 522 q 632 589 614 556 q 671 664 650 622 l 671 644 z "},"b":{"ha":965,"x_min":0,"x_max":876,"o":"m 876 539 q 826 394 876 472 q 671 219 776 315 q 583 156 621 183 q 518 110 544 128 q 332 0 361 0 q 133 156 217 0 q 104 221 119 182 q 72 313 89 260 l 72 1103 q 24 1192 72 1139 q 0 1236 0 1218 q 81 1281 46 1263 q 139 1313 115 1300 q 292 1389 279 1389 q 327 1384 315 1389 q 339 1363 339 1379 q 294 1318 315 1347 q 272 1229 272 1286 l 272 790 q 324 809 286 792 q 426 858 363 826 q 590 924 554 924 q 772 807 668 924 q 876 599 876 690 l 876 539 m 678 499 q 594 668 678 576 q 425 764 507 764 q 331 728 386 764 q 285 692 317 719 l 285 365 q 356 239 285 311 q 465 167 426 167 q 600 254 522 167 q 678 392 678 343 l 678 499 z "},"c":{"ha":807,"x_min":0,"x_max":733,"o":"m 733 256 q 633 99 733 186 q 392 0 518 0 q 93 153 210 0 q 0 379 0 275 l 0 531 q 115 778 0 643 q 386 924 242 924 q 438 917 407 924 q 508 894 468 911 l 582 864 l 635 864 q 658 872 646 864 q 700 892 689 892 q 733 864 733 892 q 671 769 733 833 q 536 694 597 694 q 351 747 474 694 q 254 774 293 774 q 140 713 189 774 q 104 636 104 665 l 104 564 q 217 361 104 479 q 432 236 335 236 l 517 236 q 561 246 539 236 q 606 270 583 256 q 649 303 628 285 q 693 340 671 322 l 733 340 l 733 256 z "},"d":{"ha":994,"x_min":0,"x_max":903,"o":"m 903 1363 q 883 1342 892 1351 q 869 1326 875 1333 q 836 1243 836 1282 l 836 172 q 863 103 836 160 q 890 33 890 43 q 864 0 890 0 q 849 5 860 0 q 825 16 839 10 q 793 28 811 22 q 757 33 775 33 q 707 25 728 33 q 650 7 663 7 q 624 22 631 7 q 618 60 618 36 q 624 97 624 78 q 618 133 624 113 q 476 38 539 76 q 344 0 413 0 q 125 118 243 0 q 0 353 0 240 l 0 478 q 88 672 0 560 q 264 844 161 767 q 411 924 365 924 l 504 924 q 542 914 518 924 q 611 878 565 904 l 631 897 l 631 1110 q 593 1193 631 1161 q 557 1236 557 1222 l 697 1313 q 864 1389 840 1389 q 903 1363 903 1389 m 624 279 l 624 638 q 501 739 565 697 q 378 785 431 785 q 224 713 282 785 q 165 539 165 642 l 165 506 q 153 492 154 497 q 264 292 196 372 q 444 206 338 206 l 504 206 q 568 226 536 206 l 624 279 z "},"e":{"ha":833,"x_min":0,"x_max":758,"o":"m 758 731 q 653 643 758 714 q 560 583 611 615 q 449 517 510 551 l 313 439 q 218 384 250 403 q 186 358 186 365 q 222 316 206 335 q 253 286 238 297 q 451 213 343 213 q 604 263 539 213 l 711 372 q 734 360 729 372 q 739 326 739 349 q 624 110 739 221 q 413 0 510 0 l 319 0 q 114 129 228 0 q 0 372 0 257 l 0 551 q 113 788 0 660 q 353 924 233 924 l 419 924 q 611 836 465 924 q 758 731 758 749 m 506 644 q 353 788 442 675 q 279 824 324 824 q 185 774 226 824 q 151 715 168 744 q 119 657 135 686 l 119 525 q 133 493 131 519 q 167 439 135 469 q 281 513 176 451 q 393 578 338 544 q 506 644 449 611 z "},"f":{"ha":706,"x_min":0,"x_max":642,"o":"m 642 1322 q 592 1243 610 1269 q 546 1178 564 1203 q 517 1144 528 1154 q 485 1173 501 1160 q 453 1197 468 1186 q 378 1231 404 1231 l 297 1231 l 297 879 q 338 871 311 871 q 388 875 351 871 q 443 879 422 879 q 492 884 471 879 q 529 901 514 889 l 589 953 q 614 926 599 953 l 622 913 q 586 843 603 872 q 557 794 569 814 q 424 675 479 675 l 292 675 l 292 192 q 321 78 292 119 q 350 33 350 36 q 342 11 350 19 q 324 0 339 7 q 254 18 317 0 l 225 26 l 165 26 q 131 13 154 26 q 72 0 107 0 q 46 26 46 0 q 78 89 46 46 q 93 125 93 108 l 93 668 q 49 647 50 668 q 26 628 46 628 q 10 638 19 628 q 0 661 0 647 q 33 761 0 692 q 93 853 67 831 l 93 1025 q 219 1264 93 1142 q 443 1389 346 1389 l 496 1389 q 538 1381 519 1385 q 568 1374 557 1376 q 642 1322 642 1350 z "},"g":{"ha":972,"x_min":0,"x_max":885,"o":"m 885 93 q 714 -183 885 -32 q 365 -340 536 -340 l 306 -340 q 100 -269 210 -340 q 0 -172 0 -206 l 92 -103 q 213 -19 189 -31 q 326 -176 231 -119 q 457 -218 397 -218 q 606 -154 525 -218 q 693 -8 693 -86 l 693 61 l 676 122 q 659 181 667 157 q 646 218 651 204 q 500 68 576 128 q 319 0 418 0 q 88 114 183 0 q 0 340 0 218 l 0 407 q 101 665 0 538 q 314 851 186 772 q 496 924 429 924 l 565 924 q 661 904 581 924 q 692 897 674 901 q 736 885 711 892 q 793 904 739 885 q 814 912 801 907 q 844 924 826 917 q 860 913 854 917 q 876 885 876 897 q 843 826 858 854 q 814 774 828 799 q 783 678 783 718 l 783 585 q 795 522 783 567 q 833 404 807 478 q 885 239 885 257 l 885 93 m 686 729 q 622 697 653 708 q 550 686 590 686 q 435 714 506 686 q 340 743 365 743 q 243 681 289 743 q 199 544 199 619 q 258 325 199 418 q 408 204 335 204 l 476 204 q 513 228 497 218 q 538 246 528 239 q 599 332 599 294 q 585 389 599 356 q 572 438 572 424 l 572 496 q 625 647 572 558 q 686 729 669 721 z "},"h":{"ha":969,"x_min":-14,"x_max":867,"o":"m 867 375 q 742 33 867 210 q 471 -236 631 -124 q 215 -344 317 -344 l 136 -344 q 106 -329 117 -344 q 94 -303 94 -314 q 160 -268 94 -283 q 483 -96 349 -222 q 593 81 543 -42 q 644 294 644 201 l 644 369 q 578 607 644 478 q 465 738 511 738 q 417 714 461 738 q 254 610 314 657 l 254 161 q 278 79 254 118 q 296 47 289 60 q 303 26 303 33 q 292 5 303 10 q 268 0 282 0 l 224 13 q 172 24 196 21 q 129 26 149 26 q 86 19 114 26 q 40 0 58 13 l 0 0 l 0 53 q 17 78 8 65 q 35 103 25 90 q 46 161 46 129 l 46 1143 q 6 1193 46 1161 q -14 1222 -14 1208 l 138 1306 q 256 1369 215 1349 q 303 1389 297 1389 q 336 1358 336 1389 q 279 1285 304 1318 q 254 1215 254 1253 q 252 1138 254 1175 q 243 1075 250 1101 q 247 1000 246 1038 q 250 925 247 963 q 253 862 251 889 q 254 818 254 835 l 254 768 q 251 737 254 749 q 243 718 247 725 l 268 718 q 454 826 310 726 q 613 928 597 928 q 685 867 626 928 q 804 703 760 790 q 867 463 867 582 l 867 375 z "},"i":{"ha":464,"x_min":0,"x_max":421,"o":"m 400 1214 q 344 1093 400 1178 q 242 1001 283 1001 q 201 1071 222 1001 q 181 1200 181 1142 q 210 1289 181 1258 q 285 1319 240 1319 q 328 1310 307 1319 q 365 1287 350 1301 q 390 1253 381 1272 q 400 1214 400 1235 m 421 0 l 83 0 l 83 28 l 118 97 q 138 181 138 136 l 138 675 q 113 731 138 717 q 49 746 89 746 q 0 781 26 746 q 126 864 21 804 q 242 924 228 924 q 321 839 278 924 q 338 803 328 825 q 358 754 347 782 l 358 153 q 363 111 358 131 q 381 75 368 92 q 405 42 394 56 q 421 21 415 29 l 421 0 z "},"j":{"ha":472,"x_min":-7,"x_max":422,"o":"m 422 1211 q 311 1089 422 1167 l 171 989 l 132 989 l 132 1017 l 221 1221 q 267 1285 240 1265 q 324 1306 293 1306 q 393 1272 364 1306 q 422 1211 422 1239 m 400 -199 q 363 -282 400 -228 q 118 -417 269 -417 l 33 -417 q 6 -403 18 -417 q -7 -381 -7 -389 q 15 -358 -7 -358 q 54 -369 32 -358 l 76 -381 q 143 -339 119 -356 q 211 -240 211 -287 l 211 -176 q 164 -75 211 -168 q 142 0 142 -32 l 142 636 q 125 696 142 672 q 72 726 108 719 l 0 740 l 0 761 q 124 853 3 783 l 246 924 q 354 738 338 924 q 358 656 357 707 q 360 535 360 606 l 360 99 q 379 -60 360 31 q 400 -135 385 -89 l 400 -199 z "},"k":{"ha":963,"x_min":0,"x_max":874,"o":"m 874 114 q 785 42 874 93 q 747 21 769 33 q 694 -7 725 8 q 638 19 667 -7 q 589 101 610 46 l 511 304 q 419 414 468 414 q 374 400 401 414 q 279 333 331 378 l 279 133 q 303 82 279 118 q 326 33 326 46 l 326 7 l 267 7 q 212 29 242 18 q 167 40 182 40 q 132 29 157 40 l 67 0 l 39 0 l 39 46 q 61 99 51 72 q 77 145 71 125 q 88 178 83 165 q 93 193 92 192 l 93 1088 q 46 1149 93 1101 q 0 1201 0 1196 q 31 1231 0 1221 q 146 1282 126 1263 q 229 1344 179 1313 q 313 1382 289 1382 q 338 1372 324 1382 q 353 1349 353 1363 q 301 1294 324 1333 q 279 1189 279 1256 l 279 701 l 313 701 q 460 801 343 729 q 654 894 607 894 q 694 861 694 894 q 683 842 694 844 q 674 814 674 840 q 711 750 694 782 q 728 681 728 718 q 664 588 728 626 q 600 533 600 549 q 629 510 613 525 q 663 467 646 494 q 697 401 681 440 q 728 307 714 361 q 750 231 739 263 q 772 185 761 200 q 874 140 804 140 l 874 114 m 540 628 q 524 658 540 638 q 507 735 507 679 l 486 735 l 286 600 l 286 447 q 349 475 313 454 q 435 528 386 496 q 540 628 540 596 z "},"l":{"ha":392,"x_min":0,"x_max":356,"o":"m 356 1363 q 334 1338 343 1349 q 319 1319 325 1328 q 282 1235 282 1267 l 282 215 q 317 68 282 107 q 335 26 335 49 q 326 5 335 10 q 301 0 317 0 q 247 19 297 0 q 181 40 199 40 q 111 27 150 40 q 33 0 72 14 l 7 0 l 7 47 q 42 117 24 64 q 60 188 60 167 l 60 1114 q 19 1183 60 1151 q 0 1214 0 1199 q 80 1265 44 1243 q 139 1301 115 1286 q 322 1389 285 1389 q 344 1381 336 1389 q 356 1363 349 1378 z "},"m":{"ha":1599,"x_min":0,"x_max":1453,"o":"m 1453 100 q 1372 35 1453 90 q 1286 -21 1294 -21 q 1186 51 1250 -21 q 1124 175 1124 124 q 1128 233 1126 193 q 1133 339 1131 274 q 1138 476 1136 404 q 1139 629 1139 549 q 1104 704 1139 661 q 1025 756 1065 756 q 924 700 1010 756 q 836 629 836 646 l 836 140 q 841 125 836 138 q 857 90 846 113 q 876 52 868 69 q 892 21 885 35 q 869 13 876 13 q 861 17 863 13 q 857 21 858 21 q 818 22 838 21 q 779 31 799 24 q 765 35 772 32 q 750 40 758 38 l 714 33 q 676 22 694 29 q 642 7 658 15 l 603 7 l 603 33 q 625 120 615 75 q 635 201 635 165 l 635 622 q 586 718 635 678 q 515 751 546 751 q 470 724 489 736 q 439 703 451 713 q 361 622 361 646 l 361 160 q 383 67 361 93 q 407 28 407 39 q 382 0 407 0 q 315 26 374 0 q 254 40 286 40 q 204 24 243 40 q 147 7 164 7 q 121 10 129 7 q 113 33 113 14 q 140 93 128 54 q 153 194 153 132 l 153 643 q 125 708 153 672 q 68 744 97 744 q 34 741 49 744 q 8 735 19 738 q 0 744 0 735 q 101 850 0 774 q 143 881 118 863 q 203 924 168 900 q 306 824 240 924 q 330 782 317 807 q 361 724 343 757 l 635 924 q 768 828 682 924 q 801 788 782 813 q 844 731 821 763 l 1139 931 q 1274 822 1207 900 q 1346 676 1346 740 l 1346 288 q 1369 149 1346 185 q 1417 126 1383 126 q 1446 122 1442 126 q 1453 100 1453 115 z "},"n":{"ha":1110,"x_min":0,"x_max":1008,"o":"m 1008 108 q 922 42 1008 99 q 835 -12 894 22 q 751 43 819 -12 q 674 149 674 108 l 674 581 q 651 665 674 635 q 551 754 629 699 l 349 636 l 349 135 q 371 54 349 68 q 383 21 383 46 l 383 0 l 335 0 q 317 11 329 6 q 222 33 274 33 q 121 0 185 33 l 94 0 q 92 12 93 7 q 92 22 92 17 q 94 33 94 28 q 117 108 94 50 q 140 182 140 171 l 140 661 q 69 751 140 726 q 0 789 0 775 q 22 816 0 796 q 90 865 44 836 l 181 924 q 236 903 208 924 q 288 840 264 883 l 356 721 l 681 917 q 821 806 750 889 q 894 642 894 715 l 894 263 q 951 135 894 138 q 1008 108 1008 132 z "},"o":{"ha":917,"x_min":0,"x_max":833,"o":"m 833 464 q 669 129 833 279 q 414 0 528 0 q 104 157 233 0 q 0 375 0 283 l 0 464 q 125 754 0 593 q 382 924 257 924 l 458 924 q 694 797 572 924 q 833 464 833 654 m 704 304 l 704 394 l 649 492 q 581 589 617 546 q 510 664 546 632 q 290 756 406 756 q 178 701 228 756 q 129 575 129 649 q 279 314 129 453 q 549 175 428 175 q 638 211 599 175 l 704 304 z "},"p":{"ha":1010,"x_min":0,"x_max":917,"o":"m 917 465 q 767 153 917 313 q 506 0 622 0 l 450 0 q 385 32 446 0 q 317 61 351 50 l 317 -250 q 327 -277 317 -257 q 357 -317 338 -297 l 357 -365 l 322 -365 q 283 -350 299 -356 q 260 -342 267 -344 q 194 -331 222 -331 q 140 -341 171 -331 q 89 -351 108 -351 l 53 -351 l 53 -310 q 69 -297 63 -303 q 81 -285 75 -290 q 115 -164 115 -249 l 115 115 q 85 106 97 113 q 49 89 63 94 q 33 82 36 83 q 25 104 25 96 q 29 111 25 108 q 33 115 33 113 q 74 193 33 172 q 115 243 115 215 l 115 647 q 85 728 115 707 q 0 743 61 743 l 0 783 q 93 851 10 793 q 203 917 188 917 q 265 869 236 917 l 336 750 l 614 924 q 803 782 711 886 q 917 519 917 654 l 917 465 m 775 396 q 704 615 775 521 q 569 728 654 681 q 497 760 510 760 l 482 747 q 428 711 458 728 q 358 675 397 694 l 354 518 l 343 518 q 346 483 344 514 q 347 411 347 451 q 343 343 347 369 l 343 307 q 443 264 393 294 q 572 160 515 219 l 654 160 l 736 250 q 775 396 775 306 z "},"q":{"ha":1000,"x_min":0,"x_max":910,"o":"m 910 -343 q 892 -347 899 -347 q 878 -346 881 -347 q 876 -343 876 -344 q 812 -333 842 -343 q 754 -322 782 -322 q 668 -339 706 -322 q 619 -357 632 -357 q 599 -346 606 -357 q 593 -322 593 -335 q 617 -278 593 -301 q 640 -222 640 -254 l 640 135 q 518 63 611 128 q 357 0 432 0 q 100 143 214 0 q 0 369 0 268 l 0 451 q 94 679 0 561 q 293 851 174 779 q 485 924 411 924 l 567 924 q 644 899 597 924 q 742 849 692 875 q 781 885 753 849 q 829 936 804 915 l 863 936 l 863 -201 q 861 -212 861 -207 q 861 -221 861 -217 q 870 -269 861 -246 q 910 -322 879 -293 l 910 -343 m 689 458 l 676 465 l 676 493 l 689 508 l 676 521 l 676 643 q 588 754 676 699 q 425 810 501 810 q 276 739 339 810 q 224 628 224 678 l 224 521 q 293 350 224 444 q 519 231 383 231 q 600 246 561 231 q 676 285 613 251 l 676 458 l 689 458 z "},"r":{"ha":789,"x_min":0,"x_max":717,"o":"m 531 590 l 511 590 q 508 624 508 604 q 510 655 508 635 q 511 683 511 675 q 500 725 511 711 q 444 743 486 743 q 386 706 421 743 q 351 643 351 669 l 351 132 q 381 75 351 101 q 411 26 411 46 q 402 5 411 10 q 378 0 393 0 q 327 26 357 14 q 258 39 297 39 q 179 26 211 39 q 113 0 147 14 l 96 0 l 79 26 q 99 50 90 40 q 113 67 107 60 q 146 139 146 113 l 146 638 q 100 726 146 699 l 0 764 q 89 850 0 779 q 192 922 178 922 q 222 906 214 913 q 338 769 293 857 q 411 847 354 774 q 538 915 463 915 q 629 897 557 915 q 717 863 704 878 l 531 590 z "},"s":{"ha":879,"x_min":0,"x_max":799,"o":"m 799 340 q 675 118 799 225 q 347 0 539 0 q 117 54 214 0 q 0 229 0 118 q 35 315 0 279 q 111 354 69 354 q 171 336 133 354 q 196 314 196 325 q 179 293 196 303 q 143 210 143 269 q 206 110 143 149 q 353 72 268 72 q 533 149 458 72 q 608 321 608 225 q 567 429 608 381 q 471 478 525 478 q 399 436 429 478 q 374 379 374 400 q 381 355 374 364 q 393 340 389 346 l 393 314 q 150 390 243 314 q 50 536 81 447 q 38 579 43 558 q 26 622 32 600 q 39 649 28 636 q 124 851 39 775 q 314 924 200 924 q 452 897 385 924 q 590 844 519 871 q 619 864 603 844 q 654 883 636 883 l 688 883 l 688 864 l 628 760 q 524 694 592 694 l 465 694 q 335 753 435 694 q 183 813 236 813 q 151 793 160 801 q 118 707 118 761 q 182 603 118 653 q 360 544 254 544 q 468 607 382 544 q 543 636 507 636 l 596 636 q 722 575 657 636 q 799 413 799 504 l 799 340 z "},"t":{"ha":651,"x_min":0,"x_max":593,"o":"m 593 935 q 449 742 593 803 q 304 708 400 722 l 304 356 q 367 217 304 258 q 479 188 410 188 q 504 188 492 188 q 525 190 517 189 q 557 184 547 190 q 567 161 567 178 q 444 76 567 153 q 304 0 322 0 q 185 72 275 0 q 81 215 81 153 l 81 722 q 60 720 69 724 q 42 710 50 717 q 29 699 35 704 q 21 694 24 694 q 22 699 21 697 q 0 694 21 700 l 0 756 q 79 881 31 828 q 94 910 94 899 l 94 1065 q 115 1228 94 1200 q 285 1321 131 1247 l 304 1321 l 304 922 l 439 922 q 518 939 490 922 l 567 976 q 583 965 574 976 q 593 935 593 953 z "},"u":{"ha":1092,"x_min":0,"x_max":993,"o":"m 993 132 q 849 29 901 64 q 793 -1 804 -1 q 653 167 753 -1 l 379 -1 q 221 90 321 13 q 106 239 106 181 l 106 690 q 93 739 106 726 q 60 751 81 751 q 38 750 50 751 q 24 749 25 749 q 0 772 0 749 q 111 856 0 786 q 233 924 222 924 q 282 879 249 924 q 325 746 325 822 l 325 585 q 315 574 318 575 q 306 551 306 568 l 306 404 q 354 242 306 311 q 493 167 408 167 q 582 207 521 167 q 653 297 653 254 l 653 799 q 644 826 653 807 q 628 853 638 839 q 606 883 619 868 l 606 911 l 639 911 q 687 904 671 911 q 721 890 703 897 l 800 890 q 836 903 807 890 q 878 917 864 917 q 899 908 894 917 q 904 883 904 899 q 876 831 888 858 q 859 779 867 807 q 844 719 851 751 l 844 272 l 881 188 q 931 176 903 182 q 993 160 958 169 l 993 132 z "},"v":{"ha":933,"x_min":0,"x_max":847,"o":"m 847 625 q 818 503 847 582 q 696 297 774 386 q 681 281 689 290 q 661 257 672 271 q 574 142 615 199 q 468 26 532 86 l 439 -1 q 358 38 431 -1 q 208 142 267 88 q 126 292 126 219 l 126 649 q 103 742 126 718 q 51 758 86 758 l 29 758 q 0 783 0 758 q 107 861 0 800 l 215 924 q 267 881 232 924 q 311 758 311 824 l 311 406 q 410 242 311 307 q 510 196 440 221 q 593 296 565 256 q 676 526 676 418 q 635 654 676 583 q 547 726 593 726 l 476 726 q 466 740 475 729 q 457 758 457 751 q 586 864 457 774 q 676 911 654 911 q 765 847 701 911 q 847 675 847 765 l 847 625 z "},"w":{"ha":1472,"x_min":0,"x_max":1338,"o":"m 1338 682 q 1294 504 1338 603 q 1186 318 1253 403 q 1073 165 1128 242 q 960 13 1018 89 q 917 -12 940 -12 q 761 76 885 -12 q 622 228 622 174 l 622 546 q 601 676 622 615 q 519 758 574 758 l 344 650 l 344 163 q 369 74 344 113 q 396 26 396 35 q 385 6 396 13 q 364 0 375 0 q 322 10 346 0 q 226 33 260 33 q 197 28 211 33 q 168 16 182 22 q 141 5 154 10 q 117 0 128 0 q 92 10 107 0 q 78 33 78 19 q 98 61 89 49 q 113 83 107 74 q 149 168 149 140 q 147 174 149 174 l 135 168 q 144 239 146 188 q 141 338 143 290 q 138 435 139 386 q 135 534 136 483 q 135 643 135 585 q 112 721 135 694 q 31 747 89 747 q 10 758 19 747 q 0 786 0 768 q 96 863 0 801 q 214 924 194 924 q 248 895 233 908 q 272 871 263 882 q 331 733 331 804 q 486 826 357 735 q 636 917 614 917 q 743 835 668 917 q 829 656 829 740 l 829 344 q 908 221 829 289 q 993 163 975 163 q 1083 268 1011 163 q 1168 481 1168 390 l 1168 558 q 1100 688 1168 640 l 949 765 q 1051 847 949 772 q 1174 924 1153 924 q 1263 853 1200 924 q 1338 682 1338 767 z "},"x":{"ha":1097,"x_min":0,"x_max":969,"o":"m 969 883 q 919 769 969 829 q 824 719 879 719 q 769 728 801 719 q 706 746 738 736 q 626 685 681 746 q 567 567 567 619 q 669 351 567 517 q 844 171 782 171 l 911 171 q 931 174 919 171 q 944 178 943 178 q 956 151 956 178 q 879 69 956 140 q 765 -7 799 -7 q 588 82 656 -7 q 504 246 551 131 q 440 336 468 336 q 299 107 365 204 q 151 0 225 0 q 63 25 114 0 q 0 90 0 56 q 56 172 0 96 q 79 204 65 185 q 113 250 93 224 l 144 250 q 158 185 144 211 q 204 158 172 158 q 332 276 251 158 q 408 415 408 386 q 371 501 408 428 q 321 590 346 550 q 269 657 296 629 q 119 739 192 740 q 85 736 106 739 q 47 733 64 733 q 25 739 25 733 q 125 838 25 758 q 236 917 225 917 q 342 867 279 917 q 521 646 431 793 q 588 763 557 711 q 649 850 619 814 q 709 905 679 886 q 772 924 739 924 q 832 906 782 924 q 878 897 854 897 q 908 907 896 897 q 931 924 921 917 l 950 924 q 963 901 950 922 q 969 883 969 888 z "},"y":{"ha":946,"x_min":0,"x_max":858,"o":"m 858 714 q 831 607 858 675 q 744 443 804 539 l 532 103 q 445 -51 474 10 q 417 -139 417 -111 q 475 -206 417 -196 q 535 -236 535 -215 q 447 -303 535 -254 l 358 -353 q 322 -308 351 -353 q 293 -242 293 -265 l 293 -189 q 331 -94 293 -157 q 385 0 379 -12 q 247 83 260 72 q 150 235 150 156 l 150 656 q 117 735 150 710 q 26 760 85 760 q 9 767 18 760 q 0 786 0 775 q 94 858 0 793 l 189 924 q 283 842 222 924 q 346 728 346 760 l 346 365 q 388 238 346 293 q 476 181 429 181 q 523 223 492 181 q 601 353 554 265 l 696 528 l 696 656 q 618 739 696 719 q 542 775 542 757 q 644 854 542 793 l 747 917 q 824 864 783 917 q 858 779 858 817 l 858 714 z "},"z":{"ha":899,"x_min":0,"x_max":818,"o":"m 818 267 q 710 108 818 210 q 518 0 594 0 q 426 17 482 0 q 286 54 297 54 l 179 54 q 117 33 156 54 q 54 13 76 13 q 28 40 28 13 q 48 75 28 46 q 113 157 68 104 l 306 392 q 345 445 329 419 q 376 490 361 471 l 457 589 l 585 744 l 560 744 l 447 707 q 313 671 340 671 l 239 671 q 164 707 196 671 q 142 735 153 721 q 121 764 132 749 q 68 681 81 732 q 28 631 57 631 q 19 636 22 633 q 14 642 17 639 q 0 671 0 656 q 63 810 0 715 q 226 924 139 924 l 319 924 q 363 916 326 924 q 467 893 400 908 q 572 878 536 878 q 642 886 618 882 q 744 917 718 899 l 799 917 l 799 878 q 671 726 797 878 q 534 562 594 635 q 429 433 474 489 q 286 239 297 271 q 430 210 375 221 q 508 194 485 199 q 548 188 532 189 q 572 186 564 186 l 651 186 q 728 235 679 186 q 785 285 775 285 q 807 278 796 285 q 818 267 818 272 z "},"{":{"ha":500,"x_min":29,"x_max":492,"o":"m 258 1388 q 236 1394 240 1394 q 213 1373 224 1394 q 201 1328 201 1351 q 207 1267 201 1314 q 228 1152 213 1219 q 271 1003 243 1085 q 343 840 299 922 q 371 781 363 803 q 379 743 379 758 q 333 653 379 692 q 186 579 288 614 q 260 548 225 569 q 321 497 294 526 q 363 435 347 468 q 379 369 379 401 q 375 306 379 353 q 363 203 371 260 q 342 90 354 147 q 315 -6 331 33 q 281 -106 290 -72 q 271 -161 271 -139 q 300 -216 271 -194 q 392 -250 329 -237 q 432 -261 424 -257 q 440 -281 440 -265 q 404 -311 440 -311 q 359 -306 388 -311 q 298 -290 331 -300 q 231 -267 265 -281 q 167 -240 196 -254 q 93 -154 93 -204 q 97 -119 93 -142 q 108 -61 100 -97 q 131 26 117 -25 q 169 147 146 78 q 199 233 183 190 q 225 310 214 275 q 244 373 236 346 q 251 411 251 400 q 234 456 251 432 q 191 501 217 481 q 134 537 165 522 q 76 553 103 551 q 39 560 49 554 q 29 583 29 567 q 40 606 29 600 q 79 615 50 613 q 167 647 135 619 q 200 719 200 675 q 190 777 200 743 q 154 878 181 811 q 128 978 140 915 q 106 1104 115 1040 q 92 1222 97 1168 q 88 1292 88 1275 q 204 1479 88 1403 q 276 1513 251 1513 q 281 1513 279 1513 q 289 1511 283 1513 q 306 1508 294 1510 q 338 1501 317 1506 q 368 1498 351 1499 q 401 1497 385 1497 q 420 1499 410 1497 q 450 1504 431 1500 q 478 1508 468 1508 q 492 1492 492 1508 q 483 1463 492 1479 q 444 1406 474 1446 q 407 1365 424 1375 q 364 1356 390 1356 q 341 1358 350 1356 q 306 1371 332 1360 l 258 1388 z "},"|":{"ha":694,"x_min":256,"x_max":374,"o":"m 256 -275 l 256 1240 l 374 1240 l 374 -275 l 256 -275 z "},"}":{"ha":500,"x_min":4,"x_max":467,"o":"m 192 1372 q 155 1359 164 1361 q 133 1357 146 1357 q 90 1367 106 1357 q 51 1407 74 1376 q 13 1463 22 1447 q 4 1493 4 1479 q 19 1510 4 1510 q 47 1506 26 1510 q 76 1499 67 1500 q 94 1499 86 1499 q 128 1499 111 1499 q 158 1503 146 1500 q 190 1509 179 1507 q 207 1513 201 1511 q 215 1514 213 1514 q 221 1514 218 1514 q 293 1481 244 1514 q 380 1395 350 1443 q 410 1293 410 1347 q 405 1223 410 1276 q 390 1106 400 1169 q 368 978 381 1042 q 342 878 356 915 q 306 778 315 813 q 297 721 297 743 q 329 649 297 676 q 418 617 361 621 q 457 608 447 614 q 467 585 467 601 q 458 562 467 568 q 421 554 449 556 q 363 538 393 553 q 306 503 332 524 q 263 458 279 482 q 246 413 246 433 q 253 374 246 401 q 272 312 261 347 q 298 234 283 276 q 326 149 313 192 q 365 28 350 79 q 389 -60 381 -24 q 400 -118 397 -96 q 403 -153 403 -140 q 329 -239 403 -204 q 266 -266 300 -253 q 199 -289 232 -279 q 137 -304 165 -299 q 92 -310 108 -310 q 56 -279 56 -310 q 64 -260 56 -264 q 106 -249 72 -256 q 197 -215 168 -236 q 226 -160 226 -194 q 216 -104 226 -137 q 181 -4 206 -71 q 154 92 165 35 q 135 205 143 149 q 122 308 126 261 q 118 371 118 354 q 134 436 118 403 q 176 499 150 469 q 238 549 203 528 q 310 579 272 571 q 164 654 210 615 q 118 744 118 693 q 126 782 118 760 q 154 842 133 804 q 225 1005 197 924 q 268 1153 253 1086 q 289 1267 283 1221 q 294 1329 294 1314 q 283 1374 294 1353 q 261 1396 272 1396 q 238 1389 257 1396 l 192 1372 z "},"~":{"ha":792,"x_min":71,"x_max":700,"o":"m 71 1035 q 158 1178 89 1119 q 288 1238 226 1238 q 303 1236 299 1238 l 397 1219 q 472 1188 435 1203 q 532 1169 508 1174 q 549 1168 538 1168 q 613 1188 585 1168 q 661 1239 642 1207 l 700 1232 q 699 1210 700 1214 q 692 1188 693 1197 q 608 1036 679 1115 q 476 958 538 958 q 463 960 465 958 l 399 971 q 374 981 393 972 q 319 1007 354 989 q 265 1028 283 1025 q 239 1034 257 1029 q 193 1047 221 1039 q 114 1064 139 1064 q 85 1058 96 1064 q 71 1035 74 1051 z "},"":{"ha":694,"x_min":0,"x_max":0,"o":""},"":{"ha":518,"x_min":207,"x_max":476,"o":"m 444 957 q 408 850 453 924 q 374 804 388 814 q 340 789 361 794 q 326 786 335 788 q 309 785 318 785 q 290 788 300 785 q 274 801 281 792 q 233 894 246 840 q 243 988 221 951 q 310 1035 265 1024 q 353 1035 332 1039 q 394 1021 375 1032 q 426 994 413 1010 q 444 957 440 978 m 276 210 l 276 443 q 278 476 276 460 q 281 506 281 492 q 278 534 282 521 q 264 558 275 547 q 256 575 256 567 q 263 591 256 582 q 292 615 271 600 q 321 632 310 629 q 342 637 332 635 q 363 644 353 639 q 389 665 374 649 q 409 692 404 682 q 424 703 414 703 q 438 696 432 703 q 443 681 443 689 q 436 651 443 672 q 431 629 432 636 q 432 614 431 622 q 435 590 433 606 q 438 543 438 575 l 439 192 l 449 -128 q 449 -163 449 -150 q 452 -186 450 -176 q 458 -204 454 -196 q 469 -222 463 -212 q 476 -240 476 -232 q 466 -258 476 -251 q 426 -274 456 -265 q 388 -290 407 -281 q 358 -303 369 -300 l 256 -343 q 236 -352 244 -347 q 224 -357 228 -357 q 207 -340 207 -357 q 219 -317 207 -332 q 245 -287 239 -296 q 257 -264 251 -279 q 263 -238 261 -250 q 265 -210 265 -226 q 265 -169 265 -193 q 267 -108 265 -144 l 276 210 z "},"":{"ha":751,"x_min":13,"x_max":738,"o":"m 163 579 q 132 523 135 556 q 144 450 129 490 q 210 348 167 393 q 342 256 254 303 l 347 514 l 163 579 m 618 696 q 600 649 607 671 q 588 603 593 626 q 578 551 582 579 q 572 488 575 522 q 538 492 551 490 q 518 493 525 493 q 489 492 504 492 q 454 490 474 493 l 457 221 q 525 219 493 218 q 586 222 557 219 q 738 256 644 231 q 574 19 654 183 q 534 15 563 17 q 461 11 506 13 l 450 -79 l 331 -146 l 339 24 q 245 56 290 35 q 158 111 200 78 q 91 180 118 144 q 49 253 64 215 q 33 461 13 346 q 118 632 54 574 l 271 765 l 353 733 l 354 890 l 464 944 l 461 708 q 541 693 501 697 q 618 696 581 689 z "},"":{"ha":917,"x_min":38,"x_max":901,"o":"m 901 160 q 825 100 851 140 q 792 -21 792 51 q 766 -8 779 -14 q 728 6 753 -3 l 104 6 l 133 79 l 169 440 l 38 440 l 74 550 l 181 550 q 216 784 200 694 q 244 908 232 874 q 496 1097 313 1097 q 658 1040 582 1097 q 789 871 735 982 q 713 847 744 861 q 646 800 682 832 q 497 983 592 983 q 425 833 460 983 q 389 531 389 685 l 569 531 l 535 418 l 376 418 q 375 358 376 399 q 371 249 374 317 q 367 139 368 181 q 365 75 365 97 l 651 75 q 768 311 651 208 q 901 160 815 238 z "},"":{"ha":840,"x_min":19,"x_max":831,"o":"m 636 225 q 482 372 636 286 l 292 478 q 260 458 272 467 q 240 442 247 449 q 218 382 221 418 q 394 192 215 292 q 467 155 429 172 q 544 122 504 138 q 612 154 589 129 q 636 225 635 179 m 815 -174 q 654 -385 813 -314 q 492 -468 553 -432 q 413 -532 432 -504 q 345 -467 383 -497 q 264 -413 307 -436 q 174 -376 221 -390 q 83 -361 128 -362 l 19 -371 q 78 -276 60 -314 q 97 -224 90 -250 q 104 -175 103 -199 q 339 -233 221 -178 q 441 -296 389 -258 q 546 -381 493 -333 q 574 -371 560 -381 q 599 -345 588 -361 q 618 -310 611 -329 q 625 -271 625 -290 q 472 -142 626 -212 q 276 -47 347 -83 q 185 4 206 -11 q 32 251 31 111 q 139 429 35 354 q 243 485 175 454 q 92 619 150 536 q 46 750 46 686 q 158 947 47 871 q 251 997 186 967 q 417 1068 315 1028 l 446 1094 q 601 985 525 1024 q 767 944 678 947 q 710 861 728 900 q 683 750 683 806 l 625 785 q 533 806 575 792 q 453 844 490 821 q 379 903 415 868 q 306 986 343 938 q 229 888 229 971 q 382 704 226 772 q 527 644 454 672 q 672 585 600 615 q 826 344 831 497 q 776 185 824 235 q 626 96 739 144 q 766 -2 715 69 q 815 -174 817 -74 z "},"":{"ha":994,"x_min":17,"x_max":972,"o":"m 565 510 q 521 543 521 510 q 544 565 521 565 q 561 560 551 565 q 564 558 563 560 q 572 554 565 556 l 588 558 l 589 571 l 469 664 q 461 665 468 665 l 454 665 q 419 658 444 665 q 378 454 378 560 q 407 288 378 347 q 517 217 442 217 q 593 240 560 217 q 626 304 626 264 q 622 331 626 319 q 594 363 617 342 q 650 390 615 390 q 690 375 674 390 q 707 329 707 360 q 655 231 707 269 q 519 192 603 192 q 325 244 394 192 q 247 429 247 306 q 300 611 247 517 q 354 686 317 642 l 422 685 q 477 688 450 683 q 532 703 504 693 q 553 710 542 706 q 579 722 564 715 q 649 670 610 696 q 731 625 689 644 l 565 510 m 906 460 q 786 750 906 631 q 494 871 667 871 q 204 750 326 871 q 83 460 83 631 q 203 168 83 292 q 494 47 321 47 q 783 167 660 47 q 906 460 906 288 m 972 460 q 833 124 972 263 q 494 -17 696 -17 q 157 121 299 -17 q 17 460 17 258 q 156 796 17 657 q 494 938 294 938 q 832 799 693 938 q 972 460 972 661 z "},"":{"ha":719,"x_min":26,"x_max":675,"o":"m 367 676 q 324 623 347 649 q 278 571 301 597 q 179 483 238 529 l 329 232 l 275 196 q 238 165 261 185 q 182 118 214 146 l 26 481 q 121 565 76 515 q 197 676 165 614 l 367 676 l 367 676 m 675 676 q 590 574 632 618 q 486 483 547 531 l 632 232 q 603 212 618 222 q 574 189 589 201 l 486 118 l 335 481 q 503 676 433 554 l 675 676 l 675 676 z "},"":{"ha":792,"x_min":0,"x_max":0,"o":""},"":{"ha":1028,"x_min":25,"x_max":981,"o":"m 618 571 q 610 622 618 597 q 589 663 603 646 q 557 691 575 681 q 518 700 539 701 l 411 694 l 411 535 q 428 542 421 535 q 439 551 436 549 q 476 548 463 551 q 494 532 490 544 q 472 520 483 532 q 460 497 460 508 q 477 469 460 482 q 517 456 494 456 q 553 464 535 456 q 585 488 571 472 q 609 525 600 504 q 618 571 618 546 m 782 260 q 754 203 782 225 q 685 181 726 181 q 533 251 589 181 q 463 449 478 322 l 410 483 l 410 235 l 419 206 l 264 206 l 275 235 l 275 708 l 268 724 l 282 721 q 421 725 357 721 q 540 736 485 729 l 560 736 q 689 699 635 736 q 750 586 750 654 q 709 485 750 526 q 604 435 668 444 l 601 429 q 639 301 601 364 q 731 239 678 239 q 768 250 753 239 q 776 263 772 251 l 782 260 l 782 260 m 914 460 q 794 750 914 631 q 503 871 675 871 q 213 750 335 871 q 92 460 92 631 q 211 168 92 292 q 503 47 329 47 q 792 167 668 47 q 914 460 914 288 m 981 460 q 842 124 981 263 q 503 -17 704 -17 q 165 121 307 -17 q 25 460 25 258 q 164 796 25 657 q 503 938 303 938 q 840 799 701 938 q 981 460 981 661 z "},"":{"ha":431,"x_min":15,"x_max":389,"o":"m 321 1025 q 321 1038 321 1031 q 317 1055 321 1046 q 306 1076 314 1064 q 282 1104 299 1089 q 226 1143 253 1132 q 178 1161 199 1154 l 151 1169 q 127 1164 139 1167 q 96 1149 115 1161 q 88 1135 93 1144 q 79 1113 83 1125 q 73 1090 75 1101 q 72 1068 71 1078 q 72 1060 72 1065 q 72 1049 71 1056 q 79 1033 74 1042 q 97 1011 85 1024 q 142 967 124 983 q 200 943 160 951 q 227 937 217 939 q 249 936 238 935 q 274 944 260 938 q 308 964 288 950 q 317 987 311 972 q 321 1025 324 1001 m 389 1060 q 381 982 389 1015 q 351 901 374 949 l 313 876 q 290 865 306 871 q 258 852 278 860 q 206 838 238 844 q 169 848 183 842 q 142 861 154 854 q 118 876 131 868 q 88 896 106 885 q 36 969 57 924 q 15 1061 15 1014 q 21 1136 15 1099 q 56 1207 26 1174 q 121 1251 85 1240 q 193 1269 157 1263 l 265 1247 q 289 1235 278 1240 q 311 1226 300 1231 q 350 1192 325 1221 q 379 1161 368 1169 q 386 1115 383 1140 q 389 1060 389 1090 z "},"":{"ha":744,"x_min":43,"x_max":701,"o":"m 613 56 l 43 56 l 131 178 l 701 183 l 613 56 m 613 544 l 464 544 l 464 303 l 285 219 l 315 303 l 315 544 l 43 544 l 131 665 l 315 665 l 315 908 l 435 992 l 464 992 l 464 671 l 701 671 l 613 544 z "},"":{"ha":1153,"x_min":154,"x_max":1129,"o":"m 815 814 q 799 853 815 842 q 746 864 783 864 q 690 858 711 864 q 658 836 669 853 q 644 790 647 819 q 640 713 640 760 l 640 128 q 644 51 640 81 q 659 4 647 21 q 691 -18 671 -12 q 744 -24 711 -24 q 799 -12 783 -24 q 815 26 815 0 l 815 814 m 1129 -83 q 1124 -101 1129 -96 q 1100 -106 1118 -106 l 669 -106 q 493 -87 565 -106 q 358 -22 421 -68 q 300 28 326 1 q 251 86 274 54 q 179 240 204 154 q 154 410 154 325 q 173 551 154 482 q 225 680 192 619 q 306 790 258 740 q 413 876 354 840 q 476 909 444 896 q 541 931 507 922 q 614 942 575 939 q 699 946 653 946 l 1097 946 q 1124 941 1118 946 q 1129 921 1129 936 l 1129 886 q 1125 865 1129 868 q 1101 861 1121 861 l 928 861 q 896 854 903 861 q 889 818 889 847 l 889 17 q 896 -15 889 -10 q 933 -21 903 -21 l 1093 -21 q 1123 -24 1117 -21 q 1129 -40 1129 -28 l 1129 -83 z "},"":{"ha":307,"x_min":0,"x_max":0,"o":""},"":{"ha":544,"x_min":1,"x_max":514,"o":"m 444 804 q 333 965 444 900 q 107 1049 249 1015 q 68 957 68 1026 q 144 817 68 876 q 257 756 189 782 q 417 710 325 729 q 444 804 444 750 m 25 440 l 25 522 l 514 522 l 514 440 l 25 440 m 510 885 q 492 774 510 824 q 424 679 472 710 q 348 648 388 664 q 264 607 308 632 l 132 649 q 40 729 76 668 q 1 865 1 794 q 25 992 1 944 q 79 1083 63 1043 q 135 1103 111 1093 q 180 1122 160 1113 q 218 1144 200 1132 q 256 1171 236 1156 l 378 1115 q 474 1028 438 1088 q 510 885 510 968 z "},"":{"ha":719,"x_min":26,"x_max":675,"o":"m 367 322 q 199 124 263 240 l 26 124 q 122 232 81 190 q 169 275 146 256 q 218 313 193 294 l 69 565 q 144 616 115 596 q 183 646 172 636 q 218 681 200 664 l 367 322 l 367 322 m 675 322 q 501 124 567 239 l 336 124 q 414 220 371 176 q 519 313 457 264 l 371 565 q 424 601 401 585 q 461 628 446 617 l 519 681 l 675 322 l 675 322 z "},"":{"ha":800,"x_min":49,"x_max":768,"o":"m 153 -6 l 61 -24 l 499 806 l 575 829 l 153 -6 m 601 426 q 535 364 565 410 q 506 275 506 318 q 529 208 506 240 l 601 208 l 601 426 m 729 167 l 729 33 l 735 -1 l 594 -1 l 603 33 l 603 167 l 404 167 l 403 183 q 452 340 396 271 q 601 451 508 410 l 599 482 l 735 482 l 729 450 l 729 200 l 768 200 l 768 167 l 729 167 m 65 388 l 76 410 l 76 819 l 49 838 q 101 854 83 846 q 188 893 125 863 l 188 413 l 200 388 l 65 388 z "},"":{"ha":786,"x_min":49,"x_max":765,"o":"m 154 -6 l 63 -24 l 500 806 l 576 829 l 154 -6 m 726 1 l 410 1 q 613 211 435 83 q 689 306 689 265 q 660 365 689 340 q 586 390 631 390 q 499 367 540 390 q 469 349 483 358 q 440 332 456 340 q 464 460 464 392 q 528 487 493 476 q 599 497 563 497 q 722 447 674 497 q 765 335 765 404 q 686 221 765 275 q 608 168 647 194 q 528 115 568 142 l 536 111 l 747 111 l 765 117 l 726 1 m 65 385 l 76 407 l 76 817 l 49 835 q 101 851 83 843 q 188 890 125 860 l 188 410 l 200 385 l 65 385 z "},"":{"ha":946,"x_min":31,"x_max":906,"o":"m 313 -6 l 221 -24 l 658 806 l 735 829 l 313 -6 m 739 433 q 672 371 703 417 q 643 282 643 325 q 667 215 643 247 l 739 215 l 739 433 m 867 174 l 867 40 l 872 4 l 732 4 l 740 40 l 740 174 l 542 174 l 540 190 q 590 347 533 278 q 739 458 646 417 l 736 489 l 872 489 l 867 457 l 867 207 l 906 207 l 906 174 l 867 174 m 403 506 q 351 406 403 443 q 217 369 300 369 q 83 404 136 369 q 31 493 31 439 q 63 554 31 539 q 101 573 86 565 q 118 586 115 581 q 117 603 118 593 q 114 619 115 613 q 169 596 147 619 q 192 538 192 572 q 161 476 192 500 q 92 453 131 453 l 92 442 q 175 407 135 407 q 254 447 218 407 q 289 543 289 486 q 279 596 289 569 q 247 631 269 622 q 210 635 228 631 q 178 654 192 640 l 183 674 q 193 671 194 671 q 210 667 207 667 q 259 688 236 667 q 282 744 282 710 q 256 814 282 790 q 192 838 229 838 q 154 827 174 838 q 135 803 135 817 q 157 778 135 778 q 175 788 167 778 q 176 789 176 788 q 178 793 176 790 q 199 751 199 774 q 181 712 199 731 q 136 693 164 693 q 88 715 107 693 q 68 768 68 738 q 110 843 68 818 q 224 868 153 868 q 346 833 294 868 q 392 740 397 799 q 310 633 392 665 q 374 582 353 607 q 403 506 403 546 z "},"":{"ha":1099,"x_min":257,"x_max":1072,"o":"m 542 893 q 600 989 542 926 q 700 1050 657 1050 q 742 1007 724 1050 q 761 907 761 967 q 731 818 761 849 q 657 788 701 788 q 613 796 633 788 q 576 819 592 804 q 551 853 561 833 q 542 893 542 872 m 456 167 q 543 -15 456 60 q 661 -75 611 -75 l 778 -75 q 893 -10 821 -75 q 965 56 929 22 q 1036 124 1000 89 q 1065 114 1058 124 q 1072 79 1072 104 q 951 -219 1072 -94 q 668 -347 829 -347 q 375 -225 493 -347 q 257 86 257 -103 q 371 386 257 235 l 646 682 q 649 667 649 671 q 577 539 610 600 q 517 419 544 478 q 456 167 456 290 z "},"":{"ha":1385,"x_min":0,"x_max":1322,"o":"m 1322 217 q 1235 307 1258 217 q 1218 504 1218 369 l 1218 569 q 1211 587 1218 579 q 1199 603 1204 594 q 1202 628 1201 614 q 1203 678 1203 642 q 1199 767 1203 717 q 1186 795 1193 778 q 1179 865 1179 813 l 1179 938 q 1110 1164 1179 1050 q 963 1331 1047 1267 q 969 1348 963 1340 q 982 1363 975 1356 l 982 1389 l 950 1389 l 419 1031 q 237 892 310 956 q 124 781 164 829 q 32 531 32 668 q 117 325 32 422 q 203 203 203 226 q 181 140 203 175 q 138 53 138 72 q 153 15 138 29 q 196 0 169 0 q 278 96 238 0 q 307 190 292 129 q 308 199 308 196 q 308 206 308 203 q 307 267 307 222 q 307 386 307 311 q 372 624 307 478 q 410 699 388 656 q 465 799 433 743 q 561 950 513 882 q 663 1076 610 1018 q 772 1167 746 1167 q 876 1064 822 1167 q 930 942 908 1001 q 963 825 951 883 l 956 576 l 603 688 q 436 581 543 688 q 340 458 340 485 q 351 431 340 443 q 372 419 361 419 q 410 458 381 419 q 478 497 439 497 q 683 435 543 497 q 806 374 728 415 q 847 422 826 397 q 886 467 867 446 q 925 504 906 489 q 963 524 944 519 l 982 524 q 976 501 976 514 q 978 469 976 493 q 982 426 981 446 q 989 400 982 411 q 1001 393 992 394 l 1001 361 l 1001 217 q 1083 44 1001 110 q 1117 22 1097 33 q 1165 0 1138 11 q 1243 64 1185 0 q 1322 183 1307 132 l 1322 217 m 674 1258 q 653 1284 663 1278 q 635 1290 643 1290 q 608 1274 631 1290 l 589 1258 q 526 1290 553 1276 q 481 1311 500 1303 q 340 1363 369 1363 l 261 1363 q 124 1260 229 1363 q 0 1022 0 1136 q 15 982 0 1010 q 58 957 32 957 q 90 963 82 957 q 97 1003 97 969 q 88 1050 97 1022 q 78 1100 78 1078 q 119 1179 78 1151 q 183 1199 150 1199 q 328 1154 254 1199 q 401 1111 375 1126 q 432 1094 426 1096 l 674 1258 m 471 1600 q 500 1661 471 1628 q 569 1694 529 1694 q 626 1674 600 1694 q 672 1610 653 1653 l 761 1406 l 761 1378 l 722 1378 l 582 1478 q 471 1600 471 1557 z "},"":{"ha":1385,"x_min":0,"x_max":1322,"o":"m 931 1594 q 819 1472 931 1550 l 679 1372 l 640 1372 l 640 1400 l 729 1604 q 775 1669 749 1649 q 832 1689 801 1689 q 901 1656 872 1689 q 931 1594 931 1622 m 432 1094 q 401 1111 426 1096 q 328 1154 375 1126 q 183 1199 254 1199 q 119 1179 150 1199 q 78 1100 78 1151 q 88 1050 78 1078 q 97 1003 97 1022 q 90 963 97 969 q 58 957 82 957 q 15 982 32 957 q 0 1022 0 1010 q 124 1260 0 1136 q 261 1363 229 1363 l 340 1363 q 481 1311 369 1363 q 526 1290 500 1303 q 589 1258 553 1276 l 608 1274 q 635 1290 631 1290 q 653 1284 643 1290 q 674 1258 663 1278 l 432 1094 m 1322 183 q 1243 64 1307 132 q 1165 0 1185 0 q 1117 22 1138 11 q 1083 44 1097 33 q 1001 217 1001 110 l 1001 361 l 1001 393 q 989 400 992 394 q 982 426 982 411 q 978 469 981 446 q 976 501 976 493 q 982 524 976 514 l 963 524 q 925 504 944 519 q 886 467 906 489 q 847 422 867 446 q 806 374 826 397 q 683 435 728 415 q 478 497 543 497 q 410 458 439 497 q 372 419 381 419 q 351 431 361 419 q 340 458 340 443 q 436 581 340 485 q 603 688 543 688 l 956 576 l 963 825 q 930 942 951 883 q 876 1064 908 1001 q 772 1167 822 1167 q 663 1076 746 1167 q 561 950 610 1018 q 465 799 513 882 q 410 699 433 743 q 372 624 388 656 q 307 386 307 478 q 307 267 307 311 q 308 206 307 222 q 308 199 308 203 q 307 190 308 196 q 278 96 292 129 q 196 0 238 0 q 153 15 169 0 q 138 53 138 29 q 181 140 138 72 q 203 203 203 175 q 117 325 203 226 q 32 531 32 422 q 124 781 32 668 q 237 892 164 829 q 419 1031 310 956 l 950 1389 l 982 1389 l 982 1363 q 969 1348 975 1356 q 963 1331 963 1340 q 1110 1164 1047 1267 q 1179 938 1179 1050 l 1179 865 q 1186 795 1179 813 q 1199 767 1193 778 q 1203 678 1203 717 q 1202 628 1203 642 q 1199 603 1201 614 q 1211 587 1204 594 q 1218 569 1218 579 l 1218 504 q 1235 307 1218 369 q 1322 217 1258 217 l 1322 183 z "},"":{"ha":1385,"x_min":0,"x_max":1322,"o":"m 1322 217 q 1235 307 1258 217 q 1218 504 1218 369 l 1218 569 q 1211 587 1218 579 q 1199 603 1204 594 q 1202 628 1201 614 q 1203 678 1203 642 q 1199 767 1203 717 q 1186 795 1193 778 q 1179 865 1179 813 l 1179 938 q 1110 1164 1179 1050 q 963 1331 1047 1267 q 969 1348 963 1340 q 982 1363 975 1356 l 982 1389 l 950 1389 l 419 1031 q 237 892 310 956 q 124 781 164 829 q 32 531 32 668 q 117 325 32 422 q 203 203 203 226 q 181 140 203 175 q 138 53 138 72 q 153 15 138 29 q 196 0 169 0 q 278 96 238 0 q 307 190 292 129 q 308 199 308 196 q 308 206 308 203 q 307 267 307 222 q 307 386 307 311 q 372 624 307 478 q 410 699 388 656 q 465 799 433 743 q 561 950 513 882 q 663 1076 610 1018 q 772 1167 746 1167 q 876 1064 822 1167 q 930 942 908 1001 q 963 825 951 883 l 956 576 l 603 688 q 436 581 543 688 q 340 458 340 485 q 351 431 340 443 q 372 419 361 419 q 410 458 381 419 q 478 497 439 497 q 683 435 543 497 q 806 374 728 415 q 847 422 826 397 q 886 467 867 446 q 925 504 906 489 q 963 524 944 519 l 982 524 q 976 501 976 514 q 978 469 976 493 q 982 426 981 446 q 989 400 982 411 q 1001 393 992 394 l 1001 361 l 1001 217 q 1083 44 1001 110 q 1117 22 1097 33 q 1165 0 1138 11 q 1243 64 1185 0 q 1322 183 1307 132 l 1322 217 m 674 1258 q 653 1284 663 1278 q 635 1290 643 1290 q 608 1274 631 1290 l 589 1258 q 526 1290 553 1276 q 481 1311 500 1303 q 340 1363 369 1363 l 261 1363 q 124 1260 229 1363 q 0 1022 0 1136 q 15 982 0 1010 q 58 957 32 957 q 90 963 82 957 q 97 1003 97 969 q 88 1050 97 1022 q 78 1100 78 1078 q 119 1179 78 1151 q 183 1199 150 1199 q 328 1154 254 1199 q 401 1111 375 1126 q 432 1094 426 1096 l 674 1258 m 624 1367 l 590 1379 l 599 1403 q 642 1456 617 1421 q 694 1530 667 1490 q 752 1608 722 1569 q 810 1675 782 1647 q 838 1708 821 1694 q 874 1721 854 1721 q 896 1714 885 1721 q 929 1692 913 1710 q 990 1626 958 1667 q 1051 1542 1021 1585 q 1108 1463 1082 1500 q 1154 1406 1135 1425 l 1163 1382 l 1129 1371 q 1083 1397 1113 1379 q 1017 1439 1053 1415 q 944 1489 982 1463 q 876 1539 907 1515 q 808 1489 844 1515 q 735 1438 771 1463 q 670 1394 700 1414 q 624 1367 640 1375 z "},"":{"ha":1385,"x_min":0,"x_max":1322,"o":"m 308 1465 q 396 1608 326 1550 q 525 1668 464 1668 q 540 1667 536 1668 l 635 1650 q 709 1619 672 1633 q 769 1600 746 1604 q 786 1599 775 1599 q 851 1618 822 1599 q 899 1669 879 1638 l 938 1663 q 936 1640 938 1644 q 929 1618 931 1628 q 846 1467 917 1546 q 714 1389 775 1389 q 700 1390 703 1389 l 636 1401 q 611 1411 631 1403 q 557 1438 592 1419 q 503 1458 521 1456 q 476 1465 494 1460 q 431 1478 458 1469 q 351 1494 376 1494 q 322 1488 333 1494 q 308 1465 311 1482 m 432 1094 q 401 1111 426 1096 q 328 1154 375 1126 q 183 1199 254 1199 q 119 1179 150 1199 q 78 1100 78 1151 q 88 1050 78 1078 q 97 1003 97 1022 q 90 963 97 969 q 58 957 82 957 q 15 982 32 957 q 0 1022 0 1010 q 124 1260 0 1136 q 261 1363 229 1363 l 340 1363 q 481 1311 369 1363 q 526 1290 500 1303 q 589 1258 553 1276 l 608 1274 q 635 1290 631 1290 q 653 1284 643 1290 q 674 1258 663 1278 l 432 1094 m 1322 183 q 1243 64 1307 132 q 1165 0 1185 0 q 1117 22 1138 11 q 1083 44 1097 33 q 1001 217 1001 110 l 1001 361 l 1001 393 q 989 400 992 394 q 982 426 982 411 q 978 469 981 446 q 976 501 976 493 q 982 524 976 514 l 963 524 q 925 504 944 519 q 886 467 906 489 q 847 422 867 446 q 806 374 826 397 q 683 435 728 415 q 478 497 543 497 q 410 458 439 497 q 372 419 381 419 q 351 431 361 419 q 340 458 340 443 q 436 581 340 485 q 603 688 543 688 l 956 576 l 963 825 q 930 942 951 883 q 876 1064 908 1001 q 772 1167 822 1167 q 663 1076 746 1167 q 561 950 610 1018 q 465 799 513 882 q 410 699 433 743 q 372 624 388 656 q 307 386 307 478 q 307 267 307 311 q 308 206 307 222 q 308 199 308 203 q 307 190 308 196 q 278 96 292 129 q 196 0 238 0 q 153 15 169 0 q 138 53 138 29 q 181 140 138 72 q 203 203 203 175 q 117 325 203 226 q 32 531 32 422 q 124 781 32 668 q 237 892 164 829 q 419 1031 310 956 l 950 1389 l 982 1389 l 982 1363 q 969 1348 975 1356 q 963 1331 963 1340 q 1110 1164 1047 1267 q 1179 938 1179 1050 l 1179 865 q 1186 795 1179 813 q 1199 767 1193 778 q 1203 678 1203 717 q 1202 628 1203 642 q 1199 603 1201 614 q 1211 587 1204 594 q 1218 569 1218 579 l 1218 504 q 1235 307 1218 369 q 1322 217 1258 217 l 1322 183 z "},"":{"ha":1329,"x_min":0,"x_max":1322,"o":"m 963 1608 q 907 1488 963 1572 q 804 1396 846 1396 q 764 1465 785 1396 q 743 1594 743 1536 q 773 1683 743 1653 q 847 1714 803 1714 q 891 1705 869 1714 q 928 1681 913 1696 q 953 1648 943 1667 q 963 1608 963 1629 m 685 1601 q 629 1481 685 1565 q 526 1389 568 1389 q 486 1458 507 1389 q 465 1588 465 1529 q 495 1676 465 1646 q 569 1707 525 1707 q 613 1698 592 1707 q 650 1674 635 1689 q 675 1641 665 1660 q 685 1601 685 1622 m 432 1094 q 401 1111 426 1096 q 328 1154 375 1126 q 183 1199 254 1199 q 119 1179 150 1199 q 78 1100 78 1151 q 88 1050 78 1078 q 97 1003 97 1022 q 90 963 97 969 q 58 957 82 957 q 15 982 32 957 q 0 1022 0 1010 q 124 1260 0 1136 q 261 1363 229 1363 l 340 1363 q 481 1311 369 1363 q 526 1290 500 1303 q 589 1258 553 1276 l 608 1274 q 635 1290 631 1290 q 653 1284 643 1290 q 674 1258 663 1278 l 432 1094 m 1322 183 q 1243 64 1307 132 q 1165 0 1185 0 q 1117 22 1138 11 q 1083 44 1097 33 q 1001 217 1001 110 l 1001 361 l 1001 393 q 989 400 992 394 q 982 426 982 411 q 978 469 981 446 q 976 501 976 493 q 982 524 976 514 l 963 524 q 925 504 944 519 q 886 467 906 489 q 847 422 867 446 q 806 374 826 397 q 683 435 728 415 q 478 497 543 497 q 410 458 439 497 q 372 419 381 419 q 351 431 361 419 q 340 458 340 443 q 436 581 340 485 q 603 688 543 688 l 956 576 l 963 825 q 930 942 951 883 q 876 1064 908 1001 q 772 1167 822 1167 q 663 1076 746 1167 q 561 950 610 1018 q 465 799 513 882 q 410 699 433 743 q 372 624 388 656 q 307 386 307 478 q 307 267 307 311 q 308 206 307 222 q 308 199 308 203 q 307 190 308 196 q 278 96 292 129 q 196 0 238 0 q 153 15 169 0 q 138 53 138 29 q 181 140 138 72 q 203 203 203 175 q 117 325 203 226 q 32 531 32 422 q 124 781 32 668 q 237 892 164 829 q 419 1031 310 956 l 950 1389 l 982 1389 l 982 1363 q 969 1348 975 1356 q 963 1331 963 1340 q 1110 1164 1047 1267 q 1179 938 1179 1050 l 1179 865 q 1186 795 1179 813 q 1199 767 1193 778 q 1203 678 1203 717 q 1202 628 1203 642 q 1199 603 1201 614 q 1211 587 1204 594 q 1218 569 1218 579 l 1218 504 q 1235 307 1218 369 q 1322 217 1258 217 l 1322 183 z "},"":{"ha":1385,"x_min":0,"x_max":1322,"o":"m 810 1521 q 751 1421 810 1467 q 661 1383 701 1383 q 550 1429 596 1383 q 514 1494 514 1465 l 514 1521 q 558 1607 514 1561 q 650 1657 604 1657 l 676 1657 q 761 1619 717 1657 q 810 1521 810 1575 m 764 1474 l 764 1500 l 744 1529 q 694 1579 721 1560 q 617 1607 658 1607 q 576 1590 594 1607 q 560 1553 560 1575 q 613 1476 560 1518 q 708 1435 667 1435 q 740 1446 726 1435 l 764 1474 m 432 1094 q 401 1111 426 1096 q 328 1154 375 1126 q 183 1199 254 1199 q 119 1179 150 1199 q 78 1100 78 1151 q 88 1050 78 1078 q 97 1003 97 1022 q 90 963 97 969 q 58 957 82 957 q 15 982 32 957 q 0 1022 0 1010 q 124 1260 0 1136 q 261 1363 229 1363 l 340 1363 q 481 1311 369 1363 q 526 1290 500 1303 q 589 1258 553 1276 l 608 1274 q 635 1290 631 1290 q 653 1284 643 1290 q 674 1258 663 1278 l 432 1094 m 1322 183 q 1243 64 1307 132 q 1165 0 1185 0 q 1117 22 1138 11 q 1083 44 1097 33 q 1001 217 1001 110 l 1001 361 l 1001 393 q 989 400 992 394 q 982 426 982 411 q 978 469 981 446 q 976 501 976 493 q 982 524 976 514 l 963 524 q 925 504 944 519 q 886 467 906 489 q 847 422 867 446 q 806 374 826 397 q 683 435 728 415 q 478 497 543 497 q 410 458 439 497 q 372 419 381 419 q 351 431 361 419 q 340 458 340 443 q 436 581 340 485 q 603 688 543 688 l 956 576 l 963 825 q 930 942 951 883 q 876 1064 908 1001 q 772 1167 822 1167 q 663 1076 746 1167 q 561 950 610 1018 q 465 799 513 882 q 410 699 433 743 q 372 624 388 656 q 307 386 307 478 q 307 267 307 311 q 308 206 307 222 q 308 199 308 203 q 307 190 308 196 q 278 96 292 129 q 196 0 238 0 q 153 15 169 0 q 138 53 138 29 q 181 140 138 72 q 203 203 203 175 q 117 325 203 226 q 32 531 32 422 q 124 781 32 668 q 237 892 164 829 q 419 1031 310 956 l 950 1389 l 982 1389 l 982 1363 q 969 1348 975 1356 q 963 1331 963 1340 q 1110 1164 1047 1267 q 1179 938 1179 1050 l 1179 865 q 1186 795 1179 813 q 1199 767 1193 778 q 1203 678 1203 717 q 1202 628 1203 642 q 1199 603 1201 614 q 1211 587 1204 594 q 1218 569 1218 579 l 1218 504 q 1235 307 1218 369 q 1322 217 1258 217 l 1322 183 z "},"":{"ha":2154,"x_min":0,"x_max":2115,"o":"m 2115 1328 q 2021 1169 2115 1257 q 1838 1083 1926 1083 q 1675 1125 1804 1083 q 1529 1167 1546 1167 l 1401 1167 q 1225 1068 1326 1167 q 1197 1038 1210 1053 q 1172 1008 1183 1024 q 1179 938 1179 969 l 1179 865 q 1181 822 1179 839 q 1186 795 1183 806 q 1192 779 1189 785 q 1199 768 1196 774 q 1211 785 1204 776 q 1225 801 1218 793 q 1350 871 1288 871 l 1446 871 q 1526 853 1486 861 q 1588 846 1567 846 q 1655 869 1624 846 q 1703 936 1686 893 l 1742 936 q 1743 924 1743 932 l 1743 914 q 1742 899 1742 904 q 1742 890 1742 893 q 1682 722 1742 811 q 1556 626 1617 626 l 1490 626 q 1425 643 1472 626 q 1343 660 1376 660 q 1249 628 1297 660 q 1210 588 1224 613 q 1218 569 1218 576 l 1218 517 q 1235 494 1225 506 q 1258 467 1244 482 q 1332 394 1294 426 q 1410 339 1369 363 q 1626 274 1519 274 l 1819 274 q 1890 288 1856 274 q 1951 332 1924 301 l 2069 460 q 2097 444 2093 460 q 2101 401 2101 428 q 1943 151 2101 294 q 1658 10 1785 10 l 1529 10 q 1392 44 1467 10 q 1282 111 1338 68 q 1243 64 1265 88 q 1165 0 1185 0 q 1117 22 1138 11 q 1083 44 1097 33 q 1001 217 1001 110 l 1001 361 l 1001 393 q 989 400 992 394 q 982 426 982 411 q 978 469 981 446 q 976 501 976 493 q 982 524 976 514 l 963 524 q 925 504 944 519 q 886 467 906 489 q 847 422 867 446 q 806 374 826 397 q 683 435 728 415 q 478 497 543 497 q 410 458 439 497 q 372 419 381 419 q 351 431 361 419 q 340 458 340 443 q 436 581 340 485 q 603 688 543 688 l 956 576 l 963 825 q 930 942 951 883 q 876 1064 908 1001 q 772 1167 822 1167 q 663 1076 746 1167 q 561 950 610 1018 q 465 799 513 882 q 410 699 433 743 q 372 624 388 656 q 307 386 307 478 q 307 267 307 311 q 308 206 307 222 q 308 199 308 203 q 307 190 308 196 q 278 96 292 129 q 196 0 238 0 q 153 15 169 0 q 138 53 138 29 q 181 140 138 72 q 203 203 203 175 q 117 325 203 226 q 32 531 32 422 q 124 781 32 668 q 237 892 164 829 q 419 1031 310 956 l 950 1389 l 982 1389 l 982 1363 q 969 1348 975 1356 q 963 1331 963 1340 q 1110 1164 1047 1267 q 1122 1142 1117 1153 q 1133 1119 1128 1131 q 1176 1174 1156 1153 q 1349 1306 1229 1232 q 1600 1399 1500 1399 l 1683 1399 q 1821 1353 1701 1399 q 1960 1308 1942 1308 q 2049 1357 2008 1308 q 2082 1379 2067 1379 q 2108 1366 2101 1379 q 2115 1328 2115 1353 m 674 1258 l 432 1094 q 401 1111 426 1096 q 328 1154 375 1126 q 183 1199 254 1199 q 119 1179 150 1199 q 78 1100 78 1151 q 88 1050 78 1078 q 97 1003 97 1022 q 90 963 97 969 q 58 957 82 957 q 15 982 32 957 q 0 1022 0 1010 q 124 1260 0 1136 q 261 1363 229 1363 l 340 1363 q 481 1311 369 1363 q 526 1290 500 1303 q 589 1258 553 1276 l 608 1274 q 635 1290 631 1290 q 653 1284 643 1290 q 674 1258 663 1278 z "},"":{"ha":1221,"x_min":0,"x_max":1158,"o":"m 1158 375 q 1096 257 1158 340 q 911 88 1019 156 q 611 0 771 0 q 289 113 440 0 q 76 356 164 206 q 0 579 0 486 l 0 718 q 82 967 0 826 q 296 1204 165 1107 q 412 1281 354 1247 q 524 1340 469 1315 q 627 1376 578 1364 q 717 1389 676 1389 q 894 1357 754 1389 q 951 1343 918 1351 q 1026 1324 983 1335 q 1082 1363 1038 1324 q 1118 1382 1106 1382 q 1140 1370 1128 1382 q 1151 1350 1151 1358 q 1092 1244 1151 1333 q 1028 1144 1056 1189 q 982 1065 1000 1100 q 921 869 921 946 l 921 796 l 868 796 q 858 853 858 836 q 865 867 858 864 q 868 869 868 869 q 878 965 868 931 q 889 996 883 981 q 901 1026 894 1011 q 771 1113 901 1044 q 526 1192 622 1192 q 265 1068 374 1192 q 164 810 164 953 q 278 507 164 647 q 519 313 372 389 q 738 243 651 243 l 829 243 q 1017 332 928 243 q 1125 421 1106 421 q 1148 408 1138 421 q 1158 375 1158 394 m 769 86 q 728 60 763 82 q 632 3 694 39 q 686 -92 638 -10 q 724 -186 724 -154 l 724 -239 q 694 -306 724 -262 q 658 -350 665 -350 l 569 -300 q 482 -233 482 -251 q 542 -203 482 -212 q 600 -136 600 -193 q 566 -51 600 -108 q 485 106 532 6 l 769 86 z "},"":{"ha":1174,"x_min":0,"x_max":1132,"o":"m 1132 1318 q 1125 1356 1132 1343 q 1099 1369 1118 1369 q 1065 1347 1083 1369 q 976 1299 1025 1299 q 838 1343 958 1299 q 700 1389 718 1389 l 617 1389 q 365 1296 517 1389 q 193 1164 246 1222 q 60 942 121 1083 q 0 714 0 804 l 0 624 q 35 454 0 549 q 154 244 75 343 q 408 35 276 94 q 546 0 483 0 l 675 0 q 960 142 801 0 q 1118 392 1118 285 q 1114 434 1118 418 q 1086 450 1110 450 l 968 322 q 906 277 940 290 q 836 264 872 264 l 643 264 q 426 329 536 264 q 349 385 386 353 q 275 457 311 417 q 218 540 218 522 q 265 618 218 588 q 360 650 314 650 q 442 633 393 650 q 507 617 489 617 l 572 617 q 699 713 633 617 q 758 881 758 801 q 758 889 758 883 q 760 904 758 894 l 760 914 q 758 926 760 922 l 719 926 q 672 860 703 883 q 604 836 640 836 q 543 844 583 836 q 463 861 503 851 l 367 861 q 242 792 304 861 q 174 624 174 718 q 140 660 151 633 q 128 707 128 686 l 128 824 q 242 1058 128 949 q 418 1157 343 1157 l 546 1157 q 692 1115 563 1157 q 854 1074 821 1074 q 1038 1160 943 1074 q 1132 1318 1132 1247 m 450 1683 q 479 1744 450 1711 q 549 1778 508 1778 q 606 1758 579 1778 q 651 1693 632 1738 l 740 1489 l 740 1461 l 701 1461 l 561 1561 q 450 1683 450 1639 z "},"":{"ha":1174,"x_min":0,"x_max":1132,"o":"m 843 1692 q 732 1569 843 1649 l 592 1469 l 553 1469 l 553 1497 l 642 1701 q 688 1766 661 1746 q 744 1786 714 1786 q 814 1753 785 1786 q 843 1692 843 1719 m 1132 1318 q 1038 1160 1132 1247 q 854 1074 943 1074 q 692 1115 821 1074 q 546 1157 563 1157 l 418 1157 q 242 1058 343 1157 q 128 824 128 949 l 128 707 q 140 660 128 686 q 174 624 151 633 q 242 792 174 718 q 367 861 304 861 l 463 861 q 543 844 503 851 q 604 836 583 836 q 672 860 640 836 q 719 926 703 883 l 758 926 q 760 914 760 922 l 760 904 q 758 889 758 894 q 758 881 758 883 q 699 713 758 801 q 572 617 633 617 l 507 617 q 442 633 489 617 q 360 650 393 650 q 265 618 314 650 q 218 540 218 588 q 275 457 218 522 q 349 385 311 417 q 426 329 386 353 q 643 264 536 264 l 836 264 q 906 277 872 264 q 968 322 940 290 l 1086 450 q 1114 434 1110 450 q 1118 392 1118 418 q 960 142 1118 285 q 675 0 801 0 l 546 0 q 408 35 483 0 q 154 244 276 94 q 35 454 75 343 q 0 624 0 549 l 0 714 q 60 942 0 804 q 193 1164 121 1083 q 365 1296 246 1222 q 617 1389 517 1389 l 700 1389 q 838 1343 718 1389 q 976 1299 958 1299 q 1065 1347 1025 1299 q 1099 1369 1083 1369 q 1125 1356 1118 1369 q 1132 1318 1132 1343 z "},"":{"ha":1174,"x_min":0,"x_max":1132,"o":"m 1132 1318 q 1125 1356 1132 1343 q 1099 1369 1118 1369 q 1065 1347 1083 1369 q 976 1299 1025 1299 q 838 1343 958 1299 q 700 1389 718 1389 l 617 1389 q 365 1296 517 1389 q 193 1164 246 1222 q 60 942 121 1083 q 0 714 0 804 l 0 624 q 35 454 0 549 q 154 244 75 343 q 408 35 276 94 q 546 0 483 0 l 675 0 q 960 142 801 0 q 1118 392 1118 285 q 1114 434 1118 418 q 1086 450 1110 450 l 968 322 q 906 277 940 290 q 836 264 872 264 l 643 264 q 426 329 536 264 q 349 385 386 353 q 275 457 311 417 q 218 540 218 522 q 265 618 218 588 q 360 650 314 650 q 442 633 393 650 q 507 617 489 617 l 572 617 q 699 713 633 617 q 758 881 758 801 q 758 889 758 883 q 760 904 758 894 l 760 914 q 758 926 760 922 l 719 926 q 672 860 703 883 q 604 836 640 836 q 543 844 583 836 q 463 861 503 851 l 367 861 q 242 792 304 861 q 174 624 174 718 q 140 660 151 633 q 128 707 128 686 l 128 824 q 242 1058 128 949 q 418 1157 343 1157 l 546 1157 q 692 1115 563 1157 q 854 1074 821 1074 q 1038 1160 943 1074 q 1132 1318 1132 1247 m 400 1397 l 367 1408 l 375 1432 q 418 1485 393 1450 q 471 1560 443 1521 q 528 1639 499 1600 q 586 1706 558 1678 q 614 1738 597 1725 q 650 1750 631 1750 q 674 1744 663 1750 q 706 1722 692 1739 q 766 1656 735 1697 q 828 1573 797 1615 q 885 1493 858 1531 q 931 1436 911 1456 l 939 1413 l 906 1400 q 859 1427 889 1408 q 794 1469 829 1446 q 721 1519 758 1493 q 653 1568 683 1544 q 584 1518 621 1544 q 512 1468 547 1492 q 447 1425 476 1444 q 400 1397 417 1406 z "},"":{"ha":1174,"x_min":0,"x_max":1132,"o":"m 747 1699 q 636 1576 747 1656 l 496 1476 l 457 1476 l 457 1504 l 546 1708 q 592 1773 565 1753 q 649 1793 618 1793 q 718 1760 689 1793 q 747 1699 747 1726 m 1013 1688 q 901 1565 1013 1643 l 761 1465 l 722 1465 l 722 1493 l 811 1697 q 857 1762 831 1742 q 914 1782 883 1782 q 983 1749 954 1782 q 1013 1688 1013 1715 m 1132 1318 q 1038 1160 1132 1247 q 854 1074 943 1074 q 692 1115 821 1074 q 546 1157 563 1157 l 418 1157 q 242 1058 343 1157 q 128 824 128 949 l 128 707 q 140 660 128 686 q 174 624 151 633 q 242 792 174 718 q 367 861 304 861 l 463 861 q 543 844 503 851 q 604 836 583 836 q 672 860 640 836 q 719 926 703 883 l 758 926 q 760 914 760 922 l 760 904 q 758 889 758 894 q 758 881 758 883 q 699 713 758 801 q 572 617 633 617 l 507 617 q 442 633 489 617 q 360 650 393 650 q 265 618 314 650 q 218 540 218 588 q 275 457 218 522 q 349 385 311 417 q 426 329 386 353 q 643 264 536 264 l 836 264 q 906 277 872 264 q 968 322 940 290 l 1086 450 q 1114 434 1110 450 q 1118 392 1118 418 q 960 142 1118 285 q 675 0 801 0 l 546 0 q 408 35 483 0 q 154 244 276 94 q 35 454 75 343 q 0 624 0 549 l 0 714 q 60 942 0 804 q 193 1164 121 1083 q 365 1296 246 1222 q 617 1389 517 1389 l 700 1389 q 838 1343 718 1389 q 976 1299 958 1299 q 1065 1347 1025 1299 q 1099 1369 1083 1369 q 1125 1356 1118 1369 q 1132 1318 1132 1343 z "},"":{"ha":1065,"x_min":0,"x_max":1060,"o":"m 1060 1350 q 1028 1389 1060 1389 l 856 1322 q 775 1299 811 1306 q 711 1292 739 1292 l 524 1292 q 335 1340 472 1292 q 267 1364 300 1351 q 200 1389 233 1376 q 99 1290 186 1389 q 13 1182 13 1192 q 29 1149 13 1161 q 46 1143 36 1143 q 58 1148 50 1143 q 76 1159 67 1153 q 97 1171 86 1165 q 117 1176 107 1176 l 382 1092 l 511 1092 q 671 1121 589 1092 l 853 1208 q 828 1164 847 1185 q 789 1143 810 1143 q 772 1142 774 1143 q 763 1131 767 1133 q 671 1078 751 1107 q 601 1028 626 1061 l 683 979 q 724 865 724 956 l 724 285 q 664 147 724 206 q 563 97 611 97 q 376 214 472 97 q 297 349 297 311 q 317 379 297 364 q 336 407 336 394 q 304 439 336 439 q 143 326 286 439 q 0 207 0 214 q 12 185 0 196 q 32 175 24 175 q 185 88 65 175 q 382 0 303 0 l 524 0 q 671 50 575 0 q 860 190 778 107 q 935 292 907 240 q 969 400 963 344 q 974 435 972 417 q 976 465 976 454 q 969 499 976 482 q 957 529 961 515 l 957 1143 q 990 1251 957 1197 q 1023 1299 1006 1275 q 1060 1350 1040 1324 m 364 1593 q 393 1654 364 1621 q 463 1688 422 1688 q 519 1667 493 1688 q 565 1603 546 1647 l 654 1399 l 654 1371 l 615 1371 l 475 1471 q 364 1593 364 1550 z "},"":{"ha":1065,"x_min":0,"x_max":1060,"o":"m 814 1600 q 703 1478 814 1557 l 563 1378 l 524 1378 l 524 1406 l 613 1610 q 658 1674 632 1654 q 715 1694 685 1694 q 785 1661 756 1694 q 814 1600 814 1628 m 1060 1350 q 1023 1299 1040 1324 q 990 1251 1006 1275 q 957 1143 957 1197 l 957 529 q 969 499 961 515 q 976 465 976 482 q 974 435 976 454 q 969 400 972 417 q 935 292 963 344 q 860 190 907 240 q 671 50 778 107 q 524 0 575 0 l 382 0 q 185 88 303 0 q 32 175 65 175 q 12 185 24 175 q 0 207 0 196 q 143 326 0 214 q 304 439 286 439 q 336 407 336 439 q 317 379 336 394 q 297 349 297 364 q 376 214 297 311 q 563 97 472 97 q 664 147 611 97 q 724 285 724 206 l 724 865 q 683 979 724 956 l 601 1028 q 671 1078 626 1061 q 763 1131 751 1107 q 772 1142 767 1133 q 789 1143 774 1143 q 828 1164 810 1143 q 853 1208 847 1185 l 671 1121 q 511 1092 589 1092 l 382 1092 l 117 1176 q 97 1171 107 1176 q 76 1159 86 1165 q 58 1148 67 1153 q 46 1143 50 1143 q 29 1149 36 1143 q 13 1182 13 1161 q 99 1290 13 1192 q 200 1389 186 1389 q 267 1364 233 1376 q 335 1340 300 1351 q 524 1292 472 1292 l 711 1292 q 775 1299 739 1292 q 856 1322 811 1306 l 1028 1389 q 1060 1350 1060 1389 z "},"":{"ha":1065,"x_min":0,"x_max":1060,"o":"m 1060 1350 q 1028 1389 1060 1389 l 856 1322 q 775 1299 811 1306 q 711 1292 739 1292 l 524 1292 q 335 1340 472 1292 q 267 1364 300 1351 q 200 1389 233 1376 q 99 1290 186 1389 q 13 1182 13 1192 q 29 1149 13 1161 q 46 1143 36 1143 q 58 1148 50 1143 q 76 1159 67 1153 q 97 1171 86 1165 q 117 1176 107 1176 l 382 1092 l 511 1092 q 671 1121 589 1092 l 853 1208 q 828 1164 847 1185 q 789 1143 810 1143 q 772 1142 774 1143 q 763 1131 767 1133 q 671 1078 751 1107 q 601 1028 626 1061 l 683 979 q 724 865 724 956 l 724 285 q 664 147 724 206 q 563 97 611 97 q 376 214 472 97 q 297 349 297 311 q 317 379 297 364 q 336 407 336 394 q 304 439 336 439 q 143 326 286 439 q 0 207 0 214 q 12 185 0 196 q 32 175 24 175 q 185 88 65 175 q 382 0 303 0 l 524 0 q 671 50 575 0 q 860 190 778 107 q 935 292 907 240 q 969 400 963 344 q 974 435 972 417 q 976 465 976 454 q 969 499 976 482 q 957 529 961 515 l 957 1143 q 990 1251 957 1197 q 1023 1299 1006 1275 q 1060 1350 1040 1324 m 344 1401 l 311 1413 l 319 1436 q 363 1490 338 1454 q 415 1565 388 1525 q 473 1643 443 1604 q 531 1710 503 1682 q 558 1742 542 1729 q 594 1754 575 1754 q 618 1749 607 1754 q 650 1726 636 1743 q 710 1660 679 1701 q 772 1577 742 1619 q 829 1497 803 1535 q 875 1440 856 1460 l 883 1417 l 850 1404 q 803 1431 833 1413 q 738 1474 774 1450 q 665 1523 703 1497 q 597 1572 628 1549 q 528 1522 565 1549 q 456 1472 492 1496 q 391 1429 421 1449 q 344 1401 361 1410 z "},"":{"ha":1065,"x_min":0,"x_max":1060,"o":"m 682 1624 q 571 1501 682 1579 l 431 1401 l 392 1401 l 392 1429 l 481 1633 q 583 1718 519 1718 q 653 1685 624 1718 q 682 1624 682 1651 m 949 1613 q 838 1490 949 1569 l 697 1390 l 658 1390 l 658 1418 l 747 1622 q 793 1687 767 1667 q 850 1707 819 1707 q 919 1674 890 1707 q 949 1613 949 1640 m 1060 1350 q 1023 1299 1040 1324 q 990 1251 1006 1275 q 957 1143 957 1197 l 957 529 q 969 499 961 515 q 976 465 976 482 q 974 435 976 454 q 969 400 972 417 q 935 292 963 344 q 860 190 907 240 q 671 50 778 107 q 524 0 575 0 l 382 0 q 185 88 303 0 q 32 175 65 175 q 12 185 24 175 q 0 207 0 196 q 143 326 0 214 q 304 439 286 439 q 336 407 336 439 q 317 379 336 394 q 297 349 297 364 q 376 214 297 311 q 563 97 472 97 q 664 147 611 97 q 724 285 724 206 l 724 865 q 683 979 724 956 l 601 1028 q 671 1078 626 1061 q 763 1131 751 1107 q 772 1142 767 1133 q 789 1143 774 1143 q 828 1164 810 1143 q 853 1208 847 1185 l 671 1121 q 511 1092 589 1092 l 382 1092 l 117 1176 q 97 1171 107 1176 q 76 1159 86 1165 q 58 1148 67 1153 q 46 1143 50 1143 q 29 1149 36 1143 q 13 1182 13 1161 q 99 1290 13 1192 q 200 1389 186 1389 q 267 1364 233 1376 q 335 1340 300 1351 q 524 1292 472 1292 l 711 1292 q 775 1299 739 1292 q 856 1322 811 1306 l 1028 1389 q 1060 1350 1060 1389 z "},"":{"ha":1433,"x_min":-35,"x_max":1371,"o":"m 1371 694 q 1332 492 1371 614 q 1240 285 1292 365 q 1172 201 1214 244 q 1071 113 1131 157 q 815 0 922 0 l 758 0 q 663 19 711 0 q 567 81 614 38 l 404 231 q 311 293 357 274 q 224 313 265 313 q 97 214 121 313 q 32 115 74 115 q 8 130 15 115 q 0 165 0 144 q 19 232 0 197 q 79 299 39 267 l 225 415 q 287 489 268 450 q 306 567 306 528 l 306 694 q 211 882 306 871 q 167 911 167 889 q 172 928 167 922 q 199 936 178 936 l 256 936 q 325 944 288 936 q 407 974 363 953 l 581 1057 q 599 1032 599 1057 q 569 990 599 1017 q 542 936 542 963 l 542 586 q 561 539 542 561 q 581 510 581 517 q 519 478 581 493 q 421 414 457 465 q 433 411 426 413 q 451 409 440 410 q 481 408 463 408 q 529 408 500 408 q 596 394 561 408 q 668 349 631 381 q 733 293 701 321 q 797 239 765 265 q 938 178 872 178 q 1156 325 1050 178 q 1256 586 1256 464 l 1256 643 q 1138 954 1256 822 q 879 1089 1019 1089 l 644 1089 l 568 1076 q 465 1064 486 1064 l 293 1064 q 160 1100 217 1064 q 96 1211 96 1142 q 136 1332 96 1275 q 224 1389 178 1389 q 244 1364 236 1389 q 338 1306 263 1306 q 517 1328 431 1318 q 657 1338 603 1338 l 893 1338 q 1244 1164 1103 1338 q 1371 835 1371 1011 l 1371 694 m 640 732 l 714 739 q 755 744 743 743 q 774 744 767 744 q 792 745 781 744 q 833 750 804 746 q 790 722 811 736 q 747 696 769 708 q 688 674 728 685 q 603 652 649 663 q 515 635 557 642 q 447 629 472 629 q 392 635 422 629 q 332 647 363 640 q 272 658 301 653 q 218 665 243 664 q 156 667 189 667 q 93 668 122 668 q 58 669 74 668 q 29 673 43 671 q 0 676 15 675 q -35 676 -15 678 q 87 732 24 715 q 221 749 150 749 q 310 744 265 749 q 399 732 356 740 q 453 726 426 725 q 508 726 481 726 q 538 727 521 726 q 574 728 556 728 q 610 730 593 729 q 640 732 628 731 z "},"":{"ha":1353,"x_min":0,"x_max":1260,"o":"m 242 1524 q 329 1667 260 1606 q 458 1726 400 1726 q 474 1725 469 1726 l 568 1708 q 642 1677 606 1692 q 703 1658 679 1663 q 719 1657 708 1657 q 784 1676 756 1657 q 832 1728 813 1696 l 871 1721 q 869 1699 871 1703 q 863 1676 864 1686 q 779 1525 850 1601 q 647 1447 710 1447 q 633 1449 636 1447 l 569 1460 q 544 1469 564 1461 q 490 1496 525 1478 q 436 1517 454 1514 q 410 1523 428 1518 q 364 1536 392 1528 q 285 1553 310 1553 q 256 1547 267 1553 q 242 1524 244 1540 m 1260 504 q 1229 379 1260 446 q 1164 285 1197 308 q 1106 264 1153 278 q 1074 232 1074 256 q 1154 113 1074 164 q 1235 46 1235 61 q 1221 24 1228 31 q 1164 0 1197 0 q 1038 78 1099 0 q 969 278 969 163 l 969 704 q 878 993 969 839 q 640 1169 774 1169 q 571 1135 624 1169 q 493 1080 535 1111 q 407 1008 451 1049 l 407 188 q 431 103 407 150 q 451 71 440 85 q 472 46 461 57 q 458 28 465 36 q 440 19 451 19 q 378 35 442 19 q 304 51 317 51 l 246 51 q 201 41 231 51 q 143 19 172 31 q 119 28 129 19 q 104 58 104 40 q 129 99 104 69 l 156 129 q 161 144 158 133 q 163 161 163 149 q 161 178 161 171 q 161 190 161 185 q 175 239 161 215 l 175 879 q 163 879 172 881 q 165 922 164 896 q 167 953 167 947 q 163 989 167 982 l 175 989 q 158 1074 175 1033 q 92 1131 135 1131 q 51 1121 65 1131 q 26 1111 38 1111 q 6 1117 11 1111 q 0 1150 0 1122 q 79 1231 0 1168 l 278 1389 q 363 1294 328 1365 l 421 1138 l 750 1382 q 1044 1199 926 1333 q 1125 1093 1088 1150 q 1183 965 1163 1036 l 1221 840 q 1233 813 1228 825 q 1240 792 1238 801 q 1260 697 1260 733 l 1260 504 z "},"":{"ha":1246,"x_min":0,"x_max":1179,"o":"m 1033 478 q 958 338 989 382 q 753 197 860 197 l 682 197 q 538 247 622 197 q 351 414 433 306 q 294 490 317 458 q 261 540 272 522 q 179 751 179 672 l 179 918 q 258 1085 179 990 q 408 1179 338 1179 l 517 1179 q 736 1076 610 1179 q 783 1035 756 1060 q 842 975 810 1010 q 949 829 899 924 q 1033 643 994 740 l 1033 478 m 1179 803 q 1082 1086 1179 943 q 1038 1144 1063 1114 q 982 1204 1013 1174 q 829 1331 915 1283 q 663 1389 726 1389 l 556 1389 q 276 1244 429 1389 q 176 1135 221 1192 q 96 1019 131 1079 q 44 868 82 999 q 0 650 0 715 q 204 189 0 390 q 606 0 393 0 q 901 143 757 0 q 1104 436 1022 264 q 1179 682 1179 594 l 1179 803 m 314 1689 q 343 1750 314 1717 q 413 1783 372 1783 q 469 1763 443 1783 q 515 1699 496 1743 l 604 1494 l 604 1467 l 565 1467 l 425 1567 q 314 1689 314 1644 z "},"":{"ha":1246,"x_min":0,"x_max":1179,"o":"m 815 1696 q 704 1574 815 1651 l 564 1474 l 525 1474 l 525 1501 l 614 1706 q 660 1769 633 1749 q 717 1790 686 1790 q 786 1757 757 1790 q 815 1696 815 1724 m 1179 682 q 1104 436 1179 594 q 901 143 1022 264 q 606 0 757 0 q 204 189 393 0 q 0 650 0 390 q 44 868 0 715 q 96 1019 82 999 q 176 1135 131 1079 q 276 1244 221 1192 q 556 1389 429 1389 l 663 1389 q 829 1331 726 1389 q 982 1204 915 1283 q 1038 1144 1013 1174 q 1082 1086 1063 1114 q 1179 803 1179 943 l 1179 682 m 1033 643 q 949 829 994 740 q 842 975 899 924 q 783 1035 810 1010 q 736 1076 756 1060 q 517 1179 610 1179 l 408 1179 q 258 1085 338 1179 q 179 918 179 990 l 179 751 q 261 540 179 672 q 294 490 272 522 q 351 414 317 458 q 538 247 433 306 q 682 197 622 197 l 753 197 q 958 338 860 197 q 1033 478 989 382 l 1033 643 z "},"":{"ha":1246,"x_min":0,"x_max":1179,"o":"m 1033 478 q 958 338 989 382 q 753 197 860 197 l 682 197 q 538 247 622 197 q 351 414 433 306 q 294 490 317 458 q 261 540 272 522 q 179 751 179 672 l 179 918 q 258 1085 179 990 q 408 1179 338 1179 l 517 1179 q 736 1076 610 1179 q 783 1035 756 1060 q 842 975 810 1010 q 949 829 899 924 q 1033 643 994 740 l 1033 478 m 1179 803 q 1082 1086 1179 943 q 1038 1144 1063 1114 q 982 1204 1013 1174 q 829 1331 915 1283 q 663 1389 726 1389 l 556 1389 q 276 1244 429 1389 q 176 1135 221 1192 q 96 1019 131 1079 q 44 868 82 999 q 0 650 0 715 q 204 189 0 390 q 606 0 393 0 q 901 143 757 0 q 1104 436 1022 264 q 1179 682 1179 594 l 1179 803 m 356 1407 l 322 1418 l 331 1442 q 374 1494 349 1460 q 426 1569 399 1529 q 484 1648 454 1608 q 542 1715 514 1688 q 569 1747 553 1735 q 604 1760 585 1760 q 628 1754 617 1760 q 661 1731 646 1749 q 722 1665 690 1706 q 783 1583 753 1625 q 840 1502 813 1540 q 886 1444 867 1464 l 894 1421 l 861 1410 q 815 1436 844 1418 q 749 1478 785 1454 q 676 1528 714 1503 q 608 1578 639 1554 q 540 1528 576 1554 q 467 1477 503 1501 q 402 1434 432 1453 q 356 1407 372 1415 z "},"":{"ha":1246,"x_min":0,"x_max":1179,"o":"m 279 1526 q 367 1669 297 1608 q 496 1729 438 1729 q 511 1728 507 1729 l 606 1711 q 680 1680 643 1694 q 740 1661 717 1665 q 757 1660 746 1660 q 822 1679 793 1660 q 869 1731 850 1699 l 908 1724 q 907 1701 908 1706 q 900 1679 901 1689 q 817 1528 888 1604 q 685 1450 747 1450 q 671 1451 674 1450 l 607 1463 q 582 1472 601 1464 q 528 1499 563 1481 q 474 1519 492 1517 q 447 1526 465 1521 q 401 1539 429 1531 q 322 1556 347 1556 q 293 1549 304 1556 q 279 1526 282 1543 m 1179 682 q 1104 436 1179 594 q 901 143 1022 264 q 606 0 757 0 q 204 189 393 0 q 0 650 0 390 q 44 868 0 715 q 96 1019 82 999 q 176 1135 131 1079 q 276 1244 221 1192 q 556 1389 429 1389 l 663 1389 q 829 1331 726 1389 q 982 1204 915 1283 q 1038 1144 1013 1174 q 1082 1086 1063 1114 q 1179 803 1179 943 l 1179 682 m 1033 643 q 949 829 994 740 q 842 975 899 924 q 783 1035 810 1010 q 736 1076 756 1060 q 517 1179 610 1179 l 408 1179 q 258 1085 338 1179 q 179 918 179 990 l 179 751 q 261 540 179 672 q 294 490 272 522 q 351 414 317 458 q 538 247 433 306 q 682 197 622 197 l 753 197 q 958 338 860 197 q 1033 478 989 382 l 1033 643 z "},"":{"ha":1190,"x_min":0,"x_max":1179,"o":"m 517 1585 q 461 1464 517 1549 q 358 1372 400 1372 q 318 1442 339 1372 q 297 1571 297 1513 q 327 1660 297 1629 q 401 1690 357 1690 q 445 1681 424 1690 q 482 1658 467 1672 q 507 1624 497 1643 q 517 1585 517 1606 m 992 1581 q 936 1460 992 1544 q 833 1368 875 1368 q 793 1438 814 1368 q 772 1567 772 1508 q 802 1656 772 1625 q 876 1686 832 1686 q 920 1677 899 1686 q 957 1653 942 1668 q 982 1620 972 1639 q 992 1581 992 1601 m 1179 682 q 1104 436 1179 594 q 901 143 1022 264 q 606 0 757 0 q 204 189 393 0 q 0 650 0 390 q 44 868 0 715 q 96 1019 82 999 q 176 1135 131 1079 q 276 1244 221 1192 q 556 1389 429 1389 l 663 1389 q 829 1331 726 1389 q 982 1204 915 1283 q 1038 1144 1013 1174 q 1082 1086 1063 1114 q 1179 803 1179 943 l 1179 682 m 1033 643 q 949 829 994 740 q 842 975 899 924 q 783 1035 810 1010 q 736 1076 756 1060 q 517 1179 610 1179 l 408 1179 q 258 1085 338 1179 q 179 918 179 990 l 179 751 q 261 540 179 672 q 294 490 272 522 q 351 414 317 458 q 538 247 433 306 q 682 197 622 197 l 753 197 q 958 338 860 197 q 1033 478 989 382 l 1033 643 z "},"":{"ha":775,"x_min":36,"x_max":728,"o":"m 429 589 q 437 602 433 593 q 443 622 440 611 q 448 644 446 633 q 450 664 450 656 l 450 674 q 449 686 449 681 q 449 694 449 692 q 469 715 449 715 q 478 714 474 715 q 489 711 483 713 q 519 704 507 707 q 540 701 532 701 q 549 702 544 701 q 565 704 553 703 q 602 708 578 706 q 671 713 626 710 q 684 713 678 713 q 694 714 690 714 q 703 715 700 714 q 720 710 713 715 q 728 696 728 704 q 720 681 728 688 q 693 664 713 675 q 656 640 679 657 q 606 603 632 624 q 555 559 579 582 q 514 515 531 536 l 463 451 l 556 340 q 590 307 569 325 q 630 273 610 289 q 668 244 650 257 q 696 226 686 231 q 728 192 728 208 q 720 179 728 185 q 703 174 713 174 q 701 174 703 174 q 689 175 699 174 q 658 178 679 176 q 600 183 638 181 q 538 188 558 188 q 489 178 522 188 q 478 175 483 176 q 469 174 474 174 q 455 181 458 174 q 451 215 451 189 q 444 250 451 231 q 424 285 436 269 l 376 344 l 338 293 q 330 279 335 289 q 321 258 325 269 q 314 238 317 247 q 311 225 311 229 l 315 186 q 308 178 315 183 q 297 172 301 172 q 289 174 294 172 q 276 178 283 175 q 249 184 268 181 q 224 188 231 188 q 203 186 222 188 q 158 183 183 185 q 106 178 132 181 q 64 174 79 175 q 45 179 54 174 q 36 192 36 185 q 47 208 36 199 q 72 226 57 218 q 109 249 85 232 q 160 287 133 265 q 214 333 188 308 q 257 378 240 357 l 304 435 l 239 515 q 200 558 224 535 q 151 602 176 581 q 104 640 126 624 q 69 664 82 657 q 43 681 50 675 q 36 696 36 688 q 44 709 36 703 q 61 715 53 715 q 102 712 63 715 q 224 701 142 708 q 233 702 226 701 q 249 704 240 703 q 265 708 257 706 q 276 711 272 710 q 288 714 283 713 q 294 715 292 715 q 310 709 301 715 q 317 700 318 703 l 314 657 q 318 645 314 654 q 328 625 322 636 q 339 603 333 614 q 347 589 344 593 l 390 540 l 429 589 z "},"":{"ha":1246,"x_min":-58,"x_max":1194,"o":"m 800 1018 q 741 1073 774 1044 q 671 1125 708 1101 q 594 1164 633 1149 q 517 1179 556 1179 l 408 1179 q 331 1151 371 1179 q 257 1084 290 1124 q 201 999 224 1044 q 179 918 179 953 l 179 751 q 192 678 179 717 q 225 602 206 640 q 268 528 244 564 q 311 467 292 493 q 383 538 357 513 q 424 578 408 563 q 450 605 440 594 q 473 630 460 615 q 508 669 486 644 q 568 739 529 694 q 683 878 628 807 q 800 1018 739 950 m 1054 1122 q 1126 1015 1100 1064 q 1163 915 1151 965 q 1177 809 1175 865 q 1179 682 1179 753 q 1172 620 1179 653 q 1154 556 1165 588 q 1130 493 1143 524 q 1104 436 1117 463 q 1021 290 1071 367 q 907 148 971 213 q 767 42 843 83 q 606 0 690 0 q 482 17 542 0 q 368 63 422 33 q 266 133 314 93 q 176 218 218 172 q 95 175 132 193 q 35 146 58 157 q 24 141 32 144 q 2 134 15 138 q -26 129 -11 131 q -58 132 -42 128 q -37 164 -56 144 q 8 206 -18 183 q 63 251 35 229 q 115 293 92 274 q 29 462 58 372 q 0 650 0 551 q 10 729 0 676 q 36 840 21 782 q 67 948 51 897 q 96 1019 83 999 q 177 1138 126 1074 q 290 1258 228 1201 q 420 1351 351 1314 q 556 1389 489 1389 l 663 1389 q 747 1372 701 1389 q 835 1327 792 1354 q 917 1268 879 1300 q 979 1207 954 1236 q 1027 1251 999 1225 q 1086 1301 1056 1278 q 1145 1340 1117 1324 q 1194 1353 1174 1356 q 1178 1303 1192 1332 q 1144 1243 1164 1275 q 1099 1180 1124 1211 q 1054 1122 1075 1149 m 390 368 q 449 312 414 342 q 523 256 483 282 q 603 214 563 231 q 682 197 644 197 l 753 197 q 849 226 806 197 q 927 297 893 254 q 988 388 961 339 q 1033 478 1014 436 l 1033 643 q 974 783 1006 713 q 897 913 942 853 q 687 678 796 790 q 469 450 578 567 q 431 408 450 429 q 390 368 411 388 z "},"":{"ha":1303,"x_min":0,"x_max":1299,"o":"m 1299 206 q 1175 240 1222 206 q 1118 360 1118 281 l 1118 1144 q 1139 1285 1118 1236 q 1189 1357 1160 1335 q 1174 1379 1189 1369 q 1144 1389 1158 1389 q 1064 1367 1129 1389 q 990 1344 999 1344 q 910 1363 972 1344 q 836 1382 843 1382 l 822 1382 q 803 1357 803 1382 q 826 1314 814 1335 q 851 1271 839 1293 q 874 1125 874 1221 l 874 604 l 886 610 q 888 604 888 610 l 888 354 q 781 258 888 332 l 675 186 q 593 233 661 186 q 453 356 503 296 q 379 528 379 444 l 379 790 q 389 883 379 850 q 393 894 390 889 q 399 907 396 900 l 386 907 q 392 911 389 910 q 396 914 394 913 q 404 926 404 919 q 406 943 404 932 q 407 963 407 954 l 407 982 q 406 1004 407 990 q 406 1033 406 1018 q 405 1062 406 1047 q 404 1086 404 1076 q 311 1315 404 1226 q 218 1376 278 1347 q 103 1293 204 1376 q 0 1189 0 1211 q 39 1151 0 1151 q 117 1138 94 1151 q 154 1054 154 1117 l 154 875 q 147 849 154 860 q 135 842 144 843 l 135 469 q 239 213 135 335 q 431 54 311 126 q 533 0 519 0 q 644 65 556 0 q 868 225 844 215 l 888 225 q 964 72 888 157 q 1047 0 1028 0 q 1122 44 1090 25 q 1174 76 1153 63 q 1299 181 1299 157 l 1299 206 m 349 1619 q 378 1681 349 1647 q 447 1714 407 1714 q 504 1694 478 1714 q 550 1629 531 1674 l 639 1425 l 639 1397 l 600 1397 l 460 1497 q 349 1619 349 1576 z "},"":{"ha":1303,"x_min":0,"x_max":1299,"o":"m 821 1600 q 710 1478 821 1557 l 569 1378 l 531 1378 l 531 1406 l 619 1610 q 665 1674 639 1653 q 722 1694 692 1694 q 792 1661 763 1694 q 821 1600 821 1628 m 1299 181 q 1174 76 1299 157 q 1122 44 1153 63 q 1047 0 1090 25 q 964 72 1028 0 q 888 225 888 157 l 868 225 q 644 65 844 215 q 533 0 556 0 q 431 54 519 0 q 239 213 311 126 q 135 469 135 335 l 135 842 q 147 849 144 843 q 154 875 154 860 l 154 1054 q 117 1138 154 1117 q 39 1151 94 1151 q 0 1189 0 1151 q 103 1293 0 1211 q 218 1376 204 1376 q 311 1315 278 1347 q 404 1086 404 1226 q 405 1062 404 1076 q 406 1033 406 1047 q 406 1004 406 1018 q 407 982 407 990 l 407 963 q 406 943 407 954 q 404 926 404 932 q 396 914 404 919 q 392 911 394 913 q 386 907 389 910 l 399 907 q 393 894 396 900 q 389 883 390 889 q 379 790 379 850 l 379 528 q 453 356 379 444 q 593 233 503 296 q 675 186 661 186 l 781 258 q 888 354 888 332 l 888 604 q 886 610 888 610 l 874 604 l 874 1125 q 851 1271 874 1221 q 826 1314 839 1293 q 803 1357 814 1335 q 822 1382 803 1382 l 836 1382 q 910 1363 843 1382 q 990 1344 972 1344 q 1064 1367 999 1344 q 1144 1389 1129 1389 q 1174 1379 1158 1389 q 1189 1357 1189 1369 q 1139 1285 1160 1335 q 1118 1144 1118 1236 l 1118 360 q 1175 240 1118 281 q 1299 206 1222 206 l 1299 181 z "},"":{"ha":1303,"x_min":0,"x_max":1299,"o":"m 1299 206 q 1175 240 1222 206 q 1118 360 1118 281 l 1118 1144 q 1139 1285 1118 1236 q 1189 1357 1160 1335 q 1174 1379 1189 1369 q 1144 1389 1158 1389 q 1064 1367 1129 1389 q 990 1344 999 1344 q 910 1363 972 1344 q 836 1382 843 1382 l 822 1382 q 803 1357 803 1382 q 826 1314 814 1335 q 851 1271 839 1293 q 874 1125 874 1221 l 874 604 l 886 610 q 888 604 888 610 l 888 354 q 781 258 888 332 l 675 186 q 593 233 661 186 q 453 356 503 296 q 379 528 379 444 l 379 790 q 389 883 379 850 q 393 894 390 889 q 399 907 396 900 l 386 907 q 392 911 389 910 q 396 914 394 913 q 404 926 404 919 q 406 943 404 932 q 407 963 407 954 l 407 982 q 406 1004 407 990 q 406 1033 406 1018 q 405 1062 406 1047 q 404 1086 404 1076 q 311 1315 404 1226 q 218 1376 278 1347 q 103 1293 204 1376 q 0 1189 0 1211 q 39 1151 0 1151 q 117 1138 94 1151 q 154 1054 154 1117 l 154 875 q 147 849 154 860 q 135 842 144 843 l 135 469 q 239 213 135 335 q 431 54 311 126 q 533 0 519 0 q 644 65 556 0 q 868 225 844 215 l 888 225 q 964 72 888 157 q 1047 0 1028 0 q 1122 44 1090 25 q 1174 76 1153 63 q 1299 181 1299 157 l 1299 206 m 400 1422 l 367 1433 l 375 1457 q 418 1510 393 1475 q 471 1585 443 1546 q 528 1664 499 1625 q 586 1731 558 1703 q 614 1763 597 1750 q 650 1775 631 1775 q 672 1769 661 1775 q 706 1746 690 1764 q 766 1681 735 1721 q 827 1598 797 1640 q 884 1517 857 1556 q 931 1460 911 1479 l 939 1438 l 906 1425 q 859 1451 889 1433 q 794 1494 829 1469 q 721 1544 758 1518 q 653 1593 683 1569 q 584 1543 621 1569 q 512 1492 547 1517 q 447 1449 476 1468 q 400 1422 417 1431 z "},"":{"ha":1303,"x_min":0,"x_max":1299,"o":"m 599 1556 q 543 1435 599 1519 q 440 1343 482 1343 q 400 1413 421 1343 q 379 1542 379 1483 q 409 1631 379 1600 q 483 1661 439 1661 q 527 1652 506 1661 q 564 1628 549 1643 q 589 1595 579 1614 q 599 1556 599 1576 m 861 1560 q 806 1439 861 1524 q 703 1347 744 1347 q 663 1417 683 1347 q 642 1546 642 1488 q 672 1635 642 1604 q 746 1665 701 1665 q 790 1656 768 1665 q 826 1633 811 1647 q 851 1599 842 1618 q 861 1560 861 1581 m 1299 181 q 1174 76 1299 157 q 1122 44 1153 63 q 1047 0 1090 25 q 964 72 1028 0 q 888 225 888 157 l 868 225 q 644 65 844 215 q 533 0 556 0 q 431 54 519 0 q 239 213 311 126 q 135 469 135 335 l 135 842 q 147 849 144 843 q 154 875 154 860 l 154 1054 q 117 1138 154 1117 q 39 1151 94 1151 q 0 1189 0 1151 q 103 1293 0 1211 q 218 1376 204 1376 q 311 1315 278 1347 q 404 1086 404 1226 q 405 1062 404 1076 q 406 1033 406 1047 q 406 1004 406 1018 q 407 982 407 990 l 407 963 q 406 943 407 954 q 404 926 404 932 q 396 914 404 919 q 392 911 394 913 q 386 907 389 910 l 399 907 q 393 894 396 900 q 389 883 390 889 q 379 790 379 850 l 379 528 q 453 356 379 444 q 593 233 503 296 q 675 186 661 186 l 781 258 q 888 354 888 332 l 888 604 q 886 610 888 610 l 874 604 l 874 1125 q 851 1271 874 1221 q 826 1314 839 1293 q 803 1357 814 1335 q 822 1382 803 1382 l 836 1382 q 910 1363 843 1382 q 990 1344 972 1344 q 1064 1367 999 1344 q 1144 1389 1129 1389 q 1174 1379 1158 1389 q 1189 1357 1189 1369 q 1139 1285 1160 1335 q 1118 1144 1118 1236 l 1118 360 q 1175 240 1118 281 q 1299 206 1222 206 l 1299 181 z "},"":{"ha":1347,"x_min":0,"x_max":1342,"o":"m 961 1626 q 850 1504 961 1583 l 710 1404 l 671 1404 l 671 1432 l 760 1636 q 806 1701 779 1681 q 863 1721 832 1721 q 932 1688 903 1721 q 961 1626 961 1654 m 1342 996 q 1307 854 1342 933 q 1262 757 1290 814 q 1192 626 1233 700 l 994 281 q 867 53 915 140 q 800 -65 819 -33 q 771 -110 785 -89 q 742 -150 757 -132 q 689 -207 713 -182 q 647 -247 665 -232 q 469 -346 536 -346 l 351 -346 q 261 -325 325 -346 q 182 -275 182 -300 l 254 -161 q 331 -46 328 -46 l 364 -111 q 517 -176 397 -176 q 681 -89 610 -176 q 733 0 706 -57 q 599 78 672 24 q 458 250 515 139 l 357 572 q 342 634 356 582 q 301 782 328 686 q 253 950 272 888 q 224 1035 235 1013 q 187 1106 201 1079 q 165 1139 172 1132 q 106 1165 140 1165 q 58 1153 68 1165 q 33 1140 47 1140 q 26 1144 31 1140 q 15 1155 21 1149 q 4 1168 8 1161 q 0 1179 0 1175 q 121 1290 0 1192 q 263 1389 244 1389 q 428 1225 360 1389 q 538 849 463 1143 q 608 604 574 707 q 669 432 642 501 q 695 367 685 396 q 715 321 706 339 q 850 210 776 210 q 935 342 856 210 q 1043 529 1015 472 l 1106 654 q 1154 771 1138 717 q 1171 871 1171 825 q 1113 992 1171 931 q 982 1160 982 1126 l 982 1251 q 1036 1339 982 1289 q 1132 1389 1090 1389 l 1186 1389 q 1260 1361 1213 1389 q 1317 1285 1317 1325 q 1311 1246 1317 1251 q 1278 1233 1304 1239 q 1269 1272 1275 1258 q 1240 1304 1258 1304 q 1203 1288 1219 1304 q 1186 1251 1186 1271 q 1264 1171 1186 1233 q 1342 1050 1342 1108 l 1342 996 z "},"":{"ha":1010,"x_min":-1,"x_max":917,"o":"m 917 465 q 767 153 917 313 q 506 0 622 0 l 450 0 q 385 32 446 0 q 317 61 351 50 l 317 -250 q 327 -277 317 -257 q 357 -317 338 -297 l 357 -365 l 322 -365 q 283 -350 299 -356 q 260 -342 267 -344 q 194 -331 222 -331 q 140 -341 171 -331 q 89 -351 108 -351 l 53 -351 l 53 -310 q 69 -297 63 -303 q 81 -285 75 -290 q 115 -164 115 -249 l 115 115 q 85 106 97 113 q 49 89 63 94 q 33 82 36 83 q 25 104 25 96 q 29 111 25 108 q 33 115 33 113 q 74 193 33 172 q 115 243 115 215 l 115 647 q 115 694 115 657 q 116 780 115 731 q 116 884 117 829 q 113 986 115 939 q 108 1065 111 1033 q 100 1101 106 1097 q 60 1110 89 1108 q -1 1111 31 1111 l -1 1151 q 26 1174 4 1157 q 92 1219 49 1190 q 201 1285 185 1285 q 231 1282 210 1285 q 274 1274 253 1279 q 313 1258 296 1268 q 331 1235 331 1249 l 336 750 l 614 924 q 803 782 711 886 q 917 519 917 654 l 917 465 m 775 396 q 704 615 775 521 q 569 728 654 681 q 497 760 510 760 l 482 747 q 428 711 458 728 q 358 675 397 694 l 354 518 l 343 518 q 346 483 344 514 q 347 411 347 451 q 343 343 347 369 l 343 307 q 443 264 393 294 q 572 160 515 219 l 654 160 l 736 250 q 775 396 775 306 z "},"":{"ha":1135,"x_min":0,"x_max":1004,"o":"m 1004 949 l 661 583 q 751 526 707 553 q 828 469 794 500 q 883 395 863 438 q 904 290 904 353 q 903 235 904 257 q 897 193 901 213 q 881 153 892 174 q 854 106 871 133 q 758 -17 814 38 q 643 -122 701 -71 q 530 -229 585 -174 q 436 -356 475 -285 q 424 -375 431 -367 q 403 -383 418 -383 q 374 -366 388 -383 q 360 -333 360 -349 q 383 -272 360 -307 q 443 -195 407 -236 q 521 -110 479 -154 q 599 -22 563 -67 q 658 69 635 24 q 682 154 682 114 l 682 218 q 667 274 682 249 q 629 319 653 300 q 576 350 606 339 q 518 361 547 361 q 454 349 481 361 q 396 318 428 336 q 376 335 383 322 q 368 361 368 349 q 388 398 368 372 q 440 456 408 424 q 506 523 471 488 q 573 592 542 558 q 625 653 604 625 q 647 697 646 681 q 589 723 632 704 q 499 762 546 742 q 411 797 451 782 q 360 813 371 813 q 301 800 324 813 q 263 773 278 788 q 239 746 249 758 q 217 733 229 733 q 195 747 208 733 q 182 769 182 760 q 189 802 182 785 q 206 837 196 819 q 227 869 215 854 q 249 897 239 885 q 342 976 290 947 q 461 1006 394 1006 q 549 992 506 1006 q 633 963 592 979 q 712 933 674 946 q 783 919 750 919 q 830 931 804 919 q 881 956 856 942 q 927 981 906 969 q 961 992 949 992 q 992 980 982 992 q 1004 949 1001 968 m 292 675 l 292 192 q 296 143 292 163 q 307 107 300 124 q 325 74 314 90 q 350 33 336 57 q 324 0 350 10 q 302 6 317 1 q 272 15 288 10 q 242 23 256 19 q 225 26 228 26 l 165 26 q 126 13 151 26 q 72 0 100 0 q 46 26 46 0 q 53 53 46 40 q 69 77 61 65 q 85 101 78 89 q 93 125 93 113 l 93 668 q 60 662 69 668 q 49 648 51 656 q 42 634 46 640 q 26 628 39 628 q 8 640 15 628 q 0 661 0 651 q 10 706 0 678 q 33 763 19 733 q 64 817 47 792 q 93 853 81 842 l 93 1025 q 127 1142 93 1078 q 213 1260 161 1206 q 327 1352 265 1315 q 443 1389 389 1389 l 478 1389 q 517 1385 490 1389 q 572 1372 544 1381 q 621 1351 600 1364 q 642 1322 642 1339 q 615 1278 631 1303 q 583 1229 600 1254 q 549 1181 567 1204 q 517 1144 532 1158 q 488 1170 506 1156 q 451 1199 471 1185 q 413 1222 432 1213 q 378 1231 393 1231 l 297 1231 l 297 879 l 299 878 l 292 878 l 297 879 l 292 675 z "},"":{"ha":1031,"x_min":0,"x_max":936,"o":"m 671 664 q 632 589 650 622 q 599 532 614 556 q 586 513 593 522 q 571 492 579 503 l 571 226 l 528 208 q 451 193 489 193 q 283 289 356 193 q 186 506 186 415 q 193 537 186 519 q 200 558 200 554 q 246 711 200 646 q 358 778 293 778 q 471 711 400 778 q 597 644 542 644 q 615 650 606 647 q 638 653 625 653 q 671 644 656 653 l 671 664 m 936 139 q 856 179 936 149 q 776 299 776 210 l 776 597 q 817 738 776 672 q 903 857 851 796 l 903 883 l 876 883 q 751 818 794 818 q 640 871 718 818 q 525 924 563 924 q 165 735 340 924 q 0 399 0 557 q 126 103 0 225 q 332 0 233 0 q 460 76 346 0 q 578 153 574 153 l 656 53 q 731 7 692 7 q 840 74 740 7 l 936 139 m 261 1203 q 290 1264 261 1231 q 360 1297 319 1297 q 417 1277 390 1297 q 463 1213 443 1257 l 551 1008 l 551 981 l 513 981 l 372 1081 q 261 1203 261 1160 z "},"":{"ha":1031,"x_min":0,"x_max":936,"o":"m 715 1203 q 604 1081 715 1160 l 464 981 l 425 981 l 425 1008 l 514 1213 q 560 1277 533 1257 q 617 1297 586 1297 q 686 1264 657 1297 q 715 1203 715 1231 m 840 74 q 731 7 740 7 q 656 53 692 7 l 578 153 q 460 76 574 153 q 332 0 346 0 q 126 103 233 0 q 0 399 0 225 q 165 735 0 557 q 525 924 340 924 q 640 871 563 924 q 751 818 718 818 q 876 883 794 818 l 903 883 l 903 857 q 817 738 851 796 q 776 597 776 672 l 776 299 q 856 179 776 210 q 936 139 936 149 l 840 74 m 671 644 q 638 653 656 653 q 615 650 625 653 q 597 644 606 647 q 471 711 542 644 q 358 778 400 778 q 246 711 293 778 q 200 558 200 646 q 193 537 200 554 q 186 506 186 519 q 283 289 186 415 q 451 193 356 193 q 528 208 489 193 l 571 226 l 571 492 q 586 513 579 503 q 599 532 593 522 q 632 589 614 556 q 671 664 650 622 l 671 644 z "},"":{"ha":1031,"x_min":0,"x_max":936,"o":"m 671 664 q 632 589 650 622 q 599 532 614 556 q 586 513 593 522 q 571 492 579 503 l 571 226 l 528 208 q 451 193 489 193 q 283 289 356 193 q 186 506 186 415 q 193 537 186 519 q 200 558 200 554 q 246 711 200 646 q 358 778 293 778 q 471 711 400 778 q 597 644 542 644 q 615 650 606 647 q 638 653 625 653 q 671 644 656 653 l 671 664 m 936 139 q 856 179 936 149 q 776 299 776 210 l 776 597 q 817 738 776 672 q 903 857 851 796 l 903 883 l 876 883 q 751 818 794 818 q 640 871 718 818 q 525 924 563 924 q 165 735 340 924 q 0 399 0 557 q 126 103 0 225 q 332 0 233 0 q 460 76 346 0 q 578 153 574 153 l 656 53 q 731 7 692 7 q 840 74 740 7 l 936 139 m 247 957 l 215 968 l 224 992 q 267 1045 242 1010 q 319 1120 292 1081 q 377 1199 347 1160 q 435 1265 407 1238 q 462 1297 446 1285 q 497 1310 478 1310 q 521 1304 510 1310 q 554 1281 539 1299 q 615 1215 583 1256 q 676 1133 646 1175 q 732 1052 706 1090 q 778 994 758 1014 l 786 972 l 754 960 q 708 986 738 968 q 642 1028 678 1004 q 569 1078 607 1053 q 501 1128 532 1104 q 433 1078 469 1104 q 360 1027 396 1051 q 294 984 325 1003 q 247 957 264 965 z "},"":{"ha":1031,"x_min":0,"x_max":936,"o":"m 228 1076 q 315 1219 246 1161 q 444 1279 383 1279 q 460 1278 456 1279 l 554 1261 q 628 1230 592 1244 q 689 1211 665 1215 q 706 1210 694 1210 q 770 1229 742 1210 q 818 1281 799 1249 l 857 1274 q 856 1251 857 1256 q 849 1229 850 1239 q 765 1078 836 1157 q 633 1000 694 1000 q 619 1001 622 1000 l 556 1013 q 531 1022 550 1014 q 476 1049 511 1031 q 422 1069 440 1067 q 396 1076 414 1071 q 350 1089 378 1081 q 271 1106 296 1106 q 242 1099 253 1106 q 228 1076 231 1093 m 840 74 q 731 7 740 7 q 656 53 692 7 l 578 153 q 460 76 574 153 q 332 0 346 0 q 126 103 233 0 q 0 399 0 225 q 165 735 0 557 q 525 924 340 924 q 640 871 563 924 q 751 818 718 818 q 876 883 794 818 l 903 883 l 903 857 q 817 738 851 796 q 776 597 776 672 l 776 299 q 856 179 776 210 q 936 139 936 149 l 840 74 m 671 644 q 638 653 656 653 q 615 650 625 653 q 597 644 606 647 q 471 711 542 644 q 358 778 400 778 q 246 711 293 778 q 200 558 200 646 q 193 537 200 554 q 186 506 186 519 q 283 289 186 415 q 451 193 356 193 q 528 208 489 193 l 571 226 l 571 492 q 586 513 579 503 q 599 532 593 522 q 632 589 614 556 q 671 664 650 622 l 671 644 z "},"":{"ha":1031,"x_min":0,"x_max":936,"o":"m 554 1210 q 443 1088 554 1169 l 303 988 l 264 988 l 264 1015 l 353 1219 q 399 1284 372 1264 q 456 1304 425 1304 q 525 1271 496 1304 q 554 1210 554 1238 m 810 1203 q 699 1081 810 1158 l 558 981 l 519 981 l 519 1008 l 608 1213 q 654 1277 628 1257 q 711 1297 681 1297 q 781 1264 751 1297 q 810 1203 810 1231 m 840 74 q 731 7 740 7 q 656 53 692 7 l 578 153 q 460 76 574 153 q 332 0 346 0 q 126 103 233 0 q 0 399 0 225 q 165 735 0 557 q 525 924 340 924 q 640 871 563 924 q 751 818 718 818 q 876 883 794 818 l 903 883 l 903 857 q 817 738 851 796 q 776 597 776 672 l 776 299 q 856 179 776 210 q 936 139 936 149 l 840 74 m 671 644 q 638 653 656 653 q 615 650 625 653 q 597 644 606 647 q 471 711 542 644 q 358 778 400 778 q 246 711 293 778 q 200 558 200 646 q 193 537 200 554 q 186 506 186 519 q 283 289 186 415 q 451 193 356 193 q 528 208 489 193 l 571 226 l 571 492 q 586 513 579 503 q 599 532 593 522 q 632 589 614 556 q 671 664 650 622 l 671 644 z "},"":{"ha":1031,"x_min":0,"x_max":936,"o":"m 697 1122 q 639 1022 697 1068 q 549 985 589 985 q 438 1031 483 985 q 401 1096 401 1069 l 401 1122 q 446 1208 401 1163 q 538 1258 493 1258 l 564 1258 q 649 1221 604 1258 q 697 1122 697 1178 m 651 1075 l 651 1101 l 632 1131 q 582 1181 608 1161 q 504 1208 546 1208 q 464 1192 482 1208 q 447 1154 447 1176 q 500 1078 447 1119 q 596 1036 554 1036 q 628 1047 614 1036 l 651 1075 m 840 74 q 731 7 740 7 q 656 53 692 7 l 578 153 q 460 76 574 153 q 332 0 346 0 q 126 103 233 0 q 0 399 0 225 q 165 735 0 557 q 525 924 340 924 q 640 871 563 924 q 751 818 718 818 q 876 883 794 818 l 903 883 l 903 857 q 817 738 851 796 q 776 597 776 672 l 776 299 q 856 179 776 210 q 936 139 936 149 l 840 74 m 671 644 q 638 653 656 653 q 615 650 625 653 q 597 644 606 647 q 471 711 542 644 q 358 778 400 778 q 246 711 293 778 q 200 558 200 646 q 193 537 200 554 q 186 506 186 519 q 283 289 186 415 q 451 193 356 193 q 528 208 489 193 l 571 226 l 571 492 q 586 513 579 503 q 599 532 593 522 q 632 589 614 556 q 671 664 650 622 l 671 644 z "},"":{"ha":1519,"x_min":0,"x_max":1475,"o":"m 1475 728 q 1369 640 1475 711 q 1277 581 1328 613 q 1165 514 1226 550 l 1029 436 q 935 381 967 400 q 903 356 903 363 q 938 313 922 332 q 969 283 954 294 q 1168 210 1060 210 q 1321 260 1256 210 l 1428 369 q 1451 358 1446 369 q 1456 324 1456 346 q 1340 107 1456 218 q 1129 -3 1226 -3 l 1036 -3 q 865 90 961 -3 l 840 74 q 731 7 740 7 q 656 53 692 7 l 578 153 q 460 76 574 153 q 332 0 346 0 q 126 103 233 0 q 0 399 0 225 q 165 735 0 557 q 525 924 340 924 q 640 871 563 924 q 751 818 718 818 q 876 883 794 818 l 903 883 l 903 857 l 899 853 q 1069 921 985 921 l 1136 921 q 1328 833 1182 921 q 1475 728 1475 746 m 1222 642 q 1069 785 1158 672 q 996 821 1040 821 q 901 771 943 821 q 868 713 885 742 q 836 654 851 683 l 836 522 q 850 490 847 517 q 883 436 851 467 q 917 462 889 443 q 997 510 946 481 q 1110 576 1054 543 q 1222 642 1165 608 m 663 649 q 638 653 651 653 q 615 650 625 653 q 597 644 606 647 q 471 711 542 644 q 358 778 400 778 q 246 711 293 778 q 200 558 200 646 q 193 537 200 554 q 186 506 186 519 q 283 289 186 415 q 451 193 356 193 q 528 208 489 193 l 571 226 l 571 492 q 586 513 579 503 q 599 532 593 522 q 628 583 613 554 q 663 649 644 613 z "},"":{"ha":807,"x_min":0,"x_max":733,"o":"m 733 256 q 633 99 733 186 q 392 0 518 0 q 93 153 210 0 q 0 379 0 275 l 0 531 q 115 778 0 643 q 386 924 242 924 q 438 917 407 924 q 508 894 468 911 l 582 864 l 635 864 q 658 872 646 864 q 700 892 689 892 q 733 864 733 892 q 671 769 733 833 q 536 694 597 694 q 351 747 474 694 q 254 774 293 774 q 140 713 189 774 q 104 636 104 665 l 104 564 q 217 361 104 479 q 432 236 335 236 l 517 236 q 561 246 539 236 q 606 270 583 256 q 649 303 628 285 q 693 340 671 322 l 733 340 l 733 256 m 535 114 q 397 31 522 103 q 451 -64 403 18 q 489 -158 489 -126 l 489 -211 q 460 -278 489 -235 q 424 -322 431 -322 l 335 -272 q 247 -206 247 -224 q 307 -175 247 -185 q 365 -108 365 -165 q 331 -24 365 -81 q 250 133 297 33 l 535 114 z "},"":{"ha":833,"x_min":0,"x_max":758,"o":"m 506 644 q 393 578 449 611 q 281 513 338 544 q 167 439 176 451 q 133 493 135 469 q 119 525 131 519 l 119 657 q 151 715 135 686 q 185 774 168 744 q 279 824 226 824 q 353 788 324 824 q 506 644 442 675 m 758 731 q 611 836 758 749 q 419 924 465 924 l 353 924 q 113 788 233 924 q 0 551 0 660 l 0 372 q 114 129 0 257 q 319 0 228 0 l 413 0 q 624 110 510 0 q 739 326 739 221 q 734 360 739 349 q 711 372 729 372 l 604 263 q 451 213 539 213 q 253 286 343 213 q 222 316 238 297 q 186 358 206 335 q 218 384 186 365 q 313 439 250 403 l 449 517 q 560 583 510 551 q 653 643 611 615 q 758 731 758 714 m 71 1226 q 100 1288 71 1254 q 169 1321 129 1321 q 226 1301 200 1321 q 272 1236 253 1281 l 361 1032 l 361 1004 l 322 1004 l 182 1104 q 71 1226 71 1183 z "},"":{"ha":833,"x_min":0,"x_max":758,"o":"m 503 1203 q 392 1081 503 1160 l 251 981 l 213 981 l 213 1008 l 301 1213 q 347 1276 321 1256 q 404 1297 374 1297 q 474 1264 444 1297 q 503 1203 503 1231 m 758 731 q 653 643 758 714 q 560 583 611 615 q 449 517 510 551 l 313 439 q 218 384 250 403 q 186 358 186 365 q 222 316 206 335 q 253 286 238 297 q 451 213 343 213 q 604 263 539 213 l 711 372 q 734 360 729 372 q 739 326 739 349 q 624 110 739 221 q 413 0 510 0 l 319 0 q 114 129 228 0 q 0 372 0 257 l 0 551 q 113 788 0 660 q 353 924 233 924 l 419 924 q 611 836 465 924 q 758 731 758 749 m 506 644 q 353 788 442 675 q 279 824 324 824 q 185 774 226 824 q 151 715 168 744 q 119 657 135 686 l 119 525 q 133 493 131 519 q 167 439 135 469 q 281 513 176 451 q 393 578 338 544 q 506 644 449 611 z "},"":{"ha":833,"x_min":0,"x_max":758,"o":"m 506 644 q 393 578 449 611 q 281 513 338 544 q 167 439 176 451 q 133 493 135 469 q 119 525 131 519 l 119 657 q 151 715 135 686 q 185 774 168 744 q 279 824 226 824 q 353 788 324 824 q 506 644 442 675 m 758 731 q 611 836 758 749 q 419 924 465 924 l 353 924 q 113 788 233 924 q 0 551 0 660 l 0 372 q 114 129 0 257 q 319 0 228 0 l 413 0 q 624 110 510 0 q 739 326 739 221 q 734 360 739 349 q 711 372 729 372 l 604 263 q 451 213 539 213 q 253 286 343 213 q 222 316 238 297 q 186 358 206 335 q 218 384 186 365 q 313 439 250 403 l 449 517 q 560 583 510 551 q 653 643 611 615 q 758 731 758 714 m 132 933 l 99 944 l 107 968 q 150 1021 125 986 q 203 1095 175 1056 q 260 1174 231 1135 q 318 1242 290 1214 q 346 1273 329 1260 q 382 1286 363 1286 q 393 1285 388 1286 q 406 1281 399 1283 q 438 1257 425 1274 q 498 1192 467 1232 q 560 1109 529 1151 q 617 1028 590 1067 q 663 971 643 990 l 671 947 l 638 936 q 591 963 621 944 q 526 1005 561 981 q 453 1055 490 1029 q 385 1104 415 1081 q 316 1054 353 1081 q 244 1003 279 1028 q 178 960 208 979 q 132 933 149 942 z "},"":{"ha":833,"x_min":0,"x_max":758,"o":"m 482 1231 q 371 1108 482 1186 l 231 1008 l 192 1008 l 192 1036 l 281 1240 q 326 1305 300 1285 q 383 1325 353 1325 q 453 1292 424 1325 q 482 1231 482 1258 m 739 1222 q 628 1100 739 1179 l 488 1000 l 449 1000 l 449 1028 l 538 1232 q 583 1297 557 1276 q 640 1317 610 1317 q 710 1283 681 1317 q 739 1222 739 1250 m 758 731 q 653 643 758 714 q 560 583 611 615 q 449 517 510 551 l 313 439 q 218 384 250 403 q 186 358 186 365 q 222 316 206 335 q 253 286 238 297 q 451 213 343 213 q 604 263 539 213 l 711 372 q 734 360 729 372 q 739 326 739 349 q 624 110 739 221 q 413 0 510 0 l 319 0 q 114 129 228 0 q 0 372 0 257 l 0 551 q 113 788 0 660 q 353 924 233 924 l 419 924 q 611 836 465 924 q 758 731 758 749 m 506 644 q 353 788 442 675 q 279 824 324 824 q 185 774 226 824 q 151 715 168 744 q 119 657 135 686 l 119 525 q 133 493 131 519 q 167 439 135 469 q 281 513 176 451 q 393 578 338 544 q 506 644 449 611 z "},"":{"ha":464,"x_min":-39,"x_max":421,"o":"m 421 21 q 405 42 415 29 q 381 75 394 56 q 363 111 368 92 q 358 153 358 131 l 358 754 q 338 803 347 782 q 321 839 328 825 q 242 924 278 924 q 126 864 228 924 q 0 781 21 804 q 49 746 26 746 q 113 731 89 746 q 138 675 138 717 l 138 181 q 118 97 138 136 l 83 28 l 83 0 l 421 0 l 421 21 m -39 1231 q -10 1292 -39 1258 q 60 1325 19 1325 q 117 1305 90 1325 q 163 1240 143 1285 l 251 1036 l 251 1008 l 213 1008 l 72 1108 q -39 1231 -39 1186 z "},"":{"ha":464,"x_min":0,"x_max":503,"o":"m 503 1203 q 392 1081 503 1160 l 251 981 l 213 981 l 213 1008 l 301 1213 q 347 1276 321 1256 q 404 1297 374 1297 q 474 1264 444 1297 q 503 1203 503 1231 m 421 0 l 83 0 l 83 28 l 118 97 q 138 181 138 136 l 138 675 q 113 731 138 717 q 49 746 89 746 q 0 781 26 746 q 126 864 21 804 q 242 924 228 924 q 321 839 278 924 q 338 803 328 825 q 358 754 347 782 l 358 153 q 363 111 358 131 q 381 75 368 92 q 405 42 394 56 q 421 21 415 29 l 421 0 z "},"":{"ha":464,"x_min":-49,"x_max":522,"o":"m 421 21 q 405 42 415 29 q 381 75 394 56 q 363 111 368 92 q 358 153 358 131 l 358 754 q 338 803 347 782 q 321 839 328 825 q 242 924 278 924 q 126 864 228 924 q 0 781 21 804 q 49 746 26 746 q 113 731 89 746 q 138 675 138 717 l 138 181 q 118 97 138 136 l 83 28 l 83 0 l 421 0 l 421 21 m -17 897 l -49 908 l -40 932 q 3 985 -22 950 q 56 1059 28 1019 q 113 1138 83 1099 q 171 1206 143 1178 q 198 1238 182 1225 q 233 1250 214 1250 q 257 1244 246 1250 q 290 1221 275 1239 q 351 1156 319 1196 q 412 1073 382 1115 q 468 992 442 1031 q 514 935 494 954 l 522 911 l 490 900 q 444 926 474 908 q 378 969 414 944 q 306 1019 343 993 q 238 1068 268 1044 q 169 1018 206 1044 q 97 967 132 992 q 31 924 61 943 q -17 897 0 906 z "},"":{"ha":464,"x_min":0,"x_max":621,"o":"m 372 1224 q 261 1101 372 1179 l 121 1001 l 82 1001 l 82 1029 l 171 1233 q 217 1298 190 1278 q 274 1318 243 1318 q 343 1285 314 1318 q 372 1224 372 1251 m 621 1215 q 510 1093 621 1172 l 369 993 l 331 993 l 331 1021 l 419 1225 q 465 1290 439 1269 q 522 1310 492 1310 q 592 1276 563 1310 q 621 1215 621 1243 m 421 0 l 83 0 l 83 28 l 118 97 q 138 181 138 136 l 138 675 q 113 731 138 717 q 49 746 89 746 q 0 781 26 746 q 126 864 21 804 q 242 924 228 924 q 321 839 278 924 q 338 803 328 825 q 358 754 347 782 l 358 153 q 363 111 358 131 q 381 75 368 92 q 405 42 394 56 q 421 21 415 29 l 421 0 z "},"":{"ha":965,"x_min":63,"x_max":897,"o":"m 238 426 q 270 355 240 401 q 339 264 300 308 q 382 229 358 242 q 429 210 406 217 q 474 201 453 203 q 510 199 494 199 q 526 199 519 199 q 539 205 532 200 q 556 220 546 210 q 583 249 565 231 q 617 295 601 267 q 645 353 633 324 q 663 410 657 383 q 669 450 669 436 l 665 639 q 630 710 643 689 q 608 738 617 732 q 514 774 553 774 q 467 769 493 774 q 414 753 442 764 q 360 726 386 743 q 311 685 333 708 q 247 592 269 639 q 229 507 225 546 l 238 426 m 507 1294 q 523 1308 518 1303 q 532 1317 528 1313 q 579 1358 549 1331 q 641 1413 610 1386 q 698 1461 672 1440 q 731 1483 724 1482 q 731 1474 733 1483 q 719 1446 728 1465 q 690 1389 710 1426 q 663 1344 678 1367 q 631 1302 647 1322 q 599 1265 614 1282 q 571 1239 583 1249 q 626 1188 601 1211 q 681 1128 650 1164 q 749 1043 718 1082 q 803 964 779 1004 q 845 879 826 924 q 879 778 864 835 q 897 633 897 713 q 890 485 897 554 q 867 322 882 403 q 835 231 850 269 q 806 165 821 192 q 607 10 725 10 q 421 119 581 10 q 356 165 394 138 q 268 229 318 193 q 113 403 163 325 q 63 549 63 482 l 63 608 q 167 817 63 700 q 349 933 271 933 q 513 868 385 933 q 567 841 544 851 q 608 823 590 831 q 639 810 625 815 q 667 800 653 804 l 638 858 q 609 910 625 883 q 578 961 593 938 q 537 1015 560 986 q 492 1068 514 1044 q 439 1125 467 1096 q 431 1134 435 1129 q 421 1144 426 1139 q 378 1121 397 1132 q 351 1107 358 1110 q 292 1067 326 1090 q 228 1021 258 1043 q 174 985 197 999 q 149 975 151 971 q 155 1013 139 988 q 202 1068 171 1038 q 275 1133 233 1099 q 358 1197 317 1167 q 283 1254 322 1226 q 208 1305 243 1282 q 149 1344 174 1328 q 118 1365 124 1360 q 102 1381 108 1374 q 95 1399 96 1389 q 101 1424 94 1410 q 128 1464 108 1439 q 144 1484 138 1474 q 160 1499 150 1494 q 188 1498 169 1503 q 242 1472 207 1493 q 286 1449 247 1469 q 378 1392 325 1428 q 433 1353 397 1379 q 507 1294 468 1326 z "},"":{"ha":1110,"x_min":0,"x_max":1008,"o":"m 160 1049 q 247 1192 178 1133 q 376 1251 315 1251 q 392 1250 388 1251 l 486 1233 q 560 1202 524 1217 q 621 1183 597 1188 q 638 1182 626 1182 q 702 1201 674 1182 q 750 1253 731 1221 l 789 1246 q 788 1224 789 1228 q 781 1201 782 1211 q 697 1050 768 1129 q 565 972 626 972 q 551 974 554 972 l 488 985 q 463 994 482 986 q 408 1021 443 1003 q 354 1042 372 1039 q 328 1048 346 1043 q 282 1061 310 1053 q 203 1078 228 1078 q 174 1072 185 1078 q 160 1049 163 1065 m 1008 108 q 922 42 1008 99 q 835 -12 894 22 q 751 43 819 -12 q 674 149 674 108 l 674 581 q 651 665 674 635 q 551 754 629 699 l 349 636 l 349 135 q 371 54 349 68 q 383 21 383 46 l 383 0 l 335 0 q 317 11 329 6 q 222 33 274 33 q 121 0 185 33 l 94 0 q 92 12 93 7 q 92 22 92 17 q 94 33 94 28 q 117 108 94 50 q 140 182 140 171 l 140 661 q 69 751 140 726 q 0 789 0 775 q 22 816 0 796 q 90 865 44 836 l 181 924 q 236 903 208 924 q 288 840 264 883 l 356 721 l 681 917 q 821 806 750 889 q 894 642 894 715 l 894 263 q 951 135 894 138 q 1008 108 1008 132 z "},"":{"ha":917,"x_min":0,"x_max":833,"o":"m 638 211 q 549 175 599 175 q 279 314 428 175 q 129 575 129 453 q 178 701 129 649 q 290 756 228 756 q 510 664 406 756 q 581 589 546 632 q 649 492 617 546 l 704 394 l 704 304 l 638 211 m 833 464 q 694 797 833 654 q 458 924 572 924 l 382 924 q 125 754 257 924 q 0 464 0 593 l 0 375 q 104 157 0 283 q 414 0 233 0 q 669 129 528 0 q 833 464 833 279 m 147 1225 q 176 1286 147 1253 q 246 1319 206 1319 q 303 1299 276 1319 q 349 1235 329 1279 l 438 1031 l 438 1003 l 399 1003 l 258 1103 q 147 1225 147 1182 z "},"":{"ha":917,"x_min":0,"x_max":833,"o":"m 678 1211 q 567 1089 678 1167 l 426 989 l 388 989 l 388 1017 l 476 1221 q 522 1285 496 1264 q 579 1306 549 1306 q 649 1272 619 1306 q 678 1211 678 1239 m 833 464 q 669 129 833 279 q 414 0 528 0 q 104 157 233 0 q 0 375 0 283 l 0 464 q 125 754 0 593 q 382 924 257 924 l 458 924 q 694 797 572 924 q 833 464 833 654 m 704 304 l 704 394 l 649 492 q 581 589 617 546 q 510 664 546 632 q 290 756 406 756 q 178 701 228 756 q 129 575 129 649 q 279 314 129 453 q 549 175 428 175 q 638 211 599 175 l 704 304 z "},"":{"ha":917,"x_min":0,"x_max":833,"o":"m 638 211 q 549 175 599 175 q 279 314 428 175 q 129 575 129 453 q 178 701 129 649 q 290 756 228 756 q 510 664 406 756 q 581 589 546 632 q 649 492 617 546 l 704 394 l 704 304 l 638 211 m 833 464 q 694 797 833 654 q 458 924 572 924 l 382 924 q 125 754 257 924 q 0 464 0 593 l 0 375 q 104 157 0 283 q 414 0 233 0 q 669 129 528 0 q 833 464 833 279 m 178 918 l 146 929 l 154 953 q 197 1006 172 971 q 250 1080 222 1040 q 307 1159 278 1119 q 364 1226 336 1199 q 392 1258 375 1244 q 428 1271 408 1271 q 451 1265 440 1271 q 485 1242 469 1260 q 545 1176 514 1217 q 606 1094 576 1136 q 663 1013 636 1051 q 708 956 689 975 l 717 932 l 685 921 q 638 947 668 929 q 573 990 608 965 q 500 1040 538 1014 q 432 1089 463 1065 q 363 1039 400 1065 q 291 988 326 1013 q 225 945 256 964 q 178 918 194 926 z "},"":{"ha":917,"x_min":0,"x_max":833,"o":"m 118 1083 q 150 1162 128 1126 q 206 1226 172 1197 q 335 1286 275 1286 q 350 1285 346 1286 l 444 1268 q 519 1237 482 1251 q 579 1218 556 1222 q 596 1217 585 1217 q 660 1236 632 1217 q 708 1288 689 1256 l 747 1281 q 746 1258 747 1263 q 739 1236 740 1246 q 656 1085 726 1161 q 524 1007 586 1007 q 510 1008 513 1007 l 446 1019 q 421 1029 440 1021 q 367 1056 401 1038 q 313 1076 331 1074 q 286 1083 304 1078 q 240 1096 268 1088 q 161 1113 186 1113 q 132 1106 143 1113 q 118 1083 121 1100 m 833 464 q 669 129 833 279 q 414 0 528 0 q 104 157 233 0 q 0 375 0 283 l 0 464 q 125 754 0 593 q 382 924 257 924 l 458 924 q 694 797 572 924 q 833 464 833 654 m 704 304 l 704 394 l 649 492 q 581 589 617 546 q 510 664 546 632 q 290 756 406 756 q 178 701 228 756 q 129 575 129 649 q 279 314 129 453 q 549 175 428 175 q 638 211 599 175 l 704 304 z "},"":{"ha":917,"x_min":0,"x_max":833,"o":"m 513 1214 q 401 1092 513 1171 l 261 992 l 222 992 l 222 1019 l 311 1224 q 357 1288 331 1267 q 414 1308 383 1308 q 483 1275 454 1308 q 513 1214 513 1242 m 760 1204 q 649 1082 760 1160 l 508 982 l 469 982 l 469 1010 l 558 1214 q 604 1278 578 1258 q 661 1299 631 1299 q 731 1265 701 1299 q 760 1204 760 1232 m 833 464 q 669 129 833 279 q 414 0 528 0 q 104 157 233 0 q 0 375 0 283 l 0 464 q 125 754 0 593 q 382 924 257 924 l 458 924 q 694 797 572 924 q 833 464 833 654 m 704 304 l 704 394 l 649 492 q 581 589 617 546 q 510 664 546 632 q 290 756 406 756 q 178 701 228 756 q 129 575 129 649 q 279 314 129 453 q 549 175 428 175 q 638 211 599 175 l 704 304 z "},"":{"ha":732,"x_min":42,"x_max":683,"o":"m 360 78 q 299 146 328 117 q 232 203 269 175 l 368 338 q 443 274 410 313 q 483 192 476 236 l 360 78 m 42 433 l 42 526 l 683 526 l 683 433 l 42 433 m 360 603 q 299 671 328 642 q 232 728 269 700 l 368 863 q 443 799 410 838 q 483 717 476 761 l 360 603 z "},"":{"ha":917,"x_min":-97,"x_max":867,"o":"m 867 940 q 832 888 847 910 q 801 847 817 865 q 766 810 785 828 q 719 771 747 793 q 807 629 781 703 q 833 464 833 556 q 788 278 833 361 q 669 129 743 196 q 615 83 644 106 q 552 41 585 60 q 485 11 519 22 q 414 0 450 0 q 254 33 322 0 q 126 135 186 67 q 99 119 110 125 q 77 106 88 113 q 55 93 67 100 q 25 76 43 86 q 0 67 17 72 q -35 56 -17 61 q -72 50 -54 51 q -97 53 -89 49 q -69 77 -89 61 q -22 112 -49 93 q 31 150 4 131 q 81 188 58 169 q 33 258 50 228 q 10 317 17 288 q 1 381 3 347 q 0 464 0 415 q 35 606 0 526 q 124 756 69 685 q 247 875 179 826 q 382 924 315 924 l 458 924 q 573 893 521 924 q 669 822 625 863 q 713 859 689 840 q 761 894 736 878 q 813 924 786 911 q 867 940 840 936 m 704 304 l 704 394 q 644 499 674 447 q 574 599 614 551 q 515 519 544 557 q 456 443 486 481 q 390 367 425 406 q 314 283 356 328 q 366 243 339 263 q 423 208 393 224 q 484 184 453 193 q 549 175 515 175 q 601 187 579 175 q 642 217 624 199 q 674 259 660 236 q 704 304 689 282 m 511 663 q 410 730 467 704 q 290 756 353 756 q 226 740 256 756 q 174 698 196 724 q 141 640 153 672 q 129 575 129 608 q 164 453 129 507 q 243 353 199 399 q 260 370 253 364 q 274 384 267 376 q 292 403 282 392 q 322 435 303 414 q 417 549 371 489 q 511 663 463 608 z "},"":{"ha":1092,"x_min":0,"x_max":993,"o":"m 993 160 q 931 176 958 169 q 881 188 903 182 l 844 272 l 844 719 q 859 779 851 751 q 876 831 867 807 q 904 883 888 858 q 899 908 904 899 q 878 917 894 917 q 836 903 864 917 q 800 890 807 890 l 721 890 q 687 904 703 897 q 639 911 671 911 l 606 911 l 606 883 q 628 853 619 868 q 644 826 638 839 q 653 799 653 807 l 653 297 q 582 207 653 254 q 493 167 521 167 q 354 242 408 167 q 306 404 306 311 l 306 551 q 315 574 306 568 q 325 585 318 575 l 325 746 q 282 879 325 822 q 233 924 249 924 q 111 856 222 924 q 0 772 0 786 q 24 749 0 749 q 38 750 25 749 q 60 751 50 751 q 93 739 81 751 q 106 690 106 726 l 106 239 q 221 90 106 181 q 379 -1 321 13 l 653 167 q 793 -1 753 -1 q 849 29 804 -1 q 993 132 901 64 l 993 160 m 215 1201 q 244 1263 215 1229 q 314 1296 274 1296 q 371 1275 344 1296 q 417 1211 397 1254 l 506 1007 l 506 979 l 467 979 l 326 1079 q 215 1201 215 1158 z "},"":{"ha":1092,"x_min":0,"x_max":993,"o":"m 676 1201 q 565 1079 676 1158 l 425 979 l 386 979 l 386 1007 l 475 1211 q 521 1275 494 1254 q 578 1296 547 1296 q 647 1263 618 1296 q 676 1201 676 1229 m 993 132 q 849 29 901 64 q 793 -1 804 -1 q 653 167 753 -1 l 379 -1 q 221 90 321 13 q 106 239 106 181 l 106 690 q 93 739 106 726 q 60 751 81 751 q 38 750 50 751 q 24 749 25 749 q 0 772 0 749 q 111 856 0 786 q 233 924 222 924 q 282 879 249 924 q 325 746 325 822 l 325 585 q 315 574 318 575 q 306 551 306 568 l 306 404 q 354 242 306 311 q 493 167 408 167 q 582 207 521 167 q 653 297 653 254 l 653 799 q 644 826 653 807 q 628 853 638 839 q 606 883 619 868 l 606 911 l 639 911 q 687 904 671 911 q 721 890 703 897 l 800 890 q 836 903 807 890 q 878 917 864 917 q 899 908 894 917 q 904 883 904 899 q 876 831 888 858 q 859 779 867 807 q 844 719 851 751 l 844 272 l 881 188 q 931 176 903 182 q 993 160 958 169 l 993 132 z "},"":{"ha":1092,"x_min":0,"x_max":993,"o":"m 993 160 q 931 176 958 169 q 881 188 903 182 l 844 272 l 844 719 q 859 779 851 751 q 876 831 867 807 q 904 883 888 858 q 899 908 904 899 q 878 917 894 917 q 836 903 864 917 q 800 890 807 890 l 721 890 q 687 904 703 897 q 639 911 671 911 l 606 911 l 606 883 q 628 853 619 868 q 644 826 638 839 q 653 799 653 807 l 653 297 q 582 207 653 254 q 493 167 521 167 q 354 242 408 167 q 306 404 306 311 l 306 551 q 315 574 306 568 q 325 585 318 575 l 325 746 q 282 879 325 822 q 233 924 249 924 q 111 856 222 924 q 0 772 0 786 q 24 749 0 749 q 38 750 25 749 q 60 751 50 751 q 93 739 81 751 q 106 690 106 726 l 106 239 q 221 90 106 181 q 379 -1 321 13 l 653 167 q 793 -1 753 -1 q 849 29 804 -1 q 993 132 901 64 l 993 160 m 232 992 l 200 1003 l 208 1026 q 251 1080 226 1044 q 304 1155 276 1115 q 362 1233 332 1194 q 419 1300 392 1272 q 447 1332 431 1319 q 482 1344 463 1344 q 506 1339 494 1344 q 539 1317 522 1333 q 599 1251 568 1292 q 660 1167 631 1210 q 717 1088 690 1125 q 764 1031 744 1050 l 772 1007 l 739 994 q 692 1022 722 1003 q 627 1064 663 1040 q 554 1113 592 1088 q 486 1163 517 1139 q 417 1113 454 1139 q 345 1062 381 1086 q 279 1019 310 1038 q 232 992 249 1000 z "},"":{"ha":1092,"x_min":0,"x_max":993,"o":"m 526 1211 q 415 1089 526 1168 l 275 989 l 236 989 l 236 1017 l 325 1221 q 371 1285 344 1265 q 428 1306 397 1306 q 497 1272 468 1306 q 526 1211 526 1239 m 792 1200 q 681 1078 792 1156 l 540 978 l 501 978 l 501 1006 l 590 1210 q 636 1274 610 1254 q 693 1294 663 1294 q 763 1261 733 1294 q 792 1200 792 1228 m 993 132 q 849 29 901 64 q 793 -1 804 -1 q 653 167 753 -1 l 379 -1 q 221 90 321 13 q 106 239 106 181 l 106 690 q 93 739 106 726 q 60 751 81 751 q 38 750 50 751 q 24 749 25 749 q 0 772 0 749 q 111 856 0 786 q 233 924 222 924 q 282 879 249 924 q 325 746 325 822 l 325 585 q 315 574 318 575 q 306 551 306 568 l 306 404 q 354 242 306 311 q 493 167 408 167 q 582 207 521 167 q 653 297 653 254 l 653 799 q 644 826 653 807 q 628 853 638 839 q 606 883 619 868 l 606 911 l 639 911 q 687 904 671 911 q 721 890 703 897 l 800 890 q 836 903 807 890 q 878 917 864 917 q 899 908 894 917 q 904 883 904 899 q 876 831 888 858 q 859 779 867 807 q 844 719 851 751 l 844 272 l 881 188 q 931 176 903 182 q 993 160 958 169 l 993 132 z "},"":{"ha":946,"x_min":0,"x_max":858,"o":"m 672 1188 q 561 1065 672 1143 l 421 965 l 382 965 l 382 993 l 471 1197 q 517 1262 490 1242 q 574 1282 543 1282 q 643 1249 614 1282 q 672 1188 672 1215 m 858 714 q 831 607 858 675 q 744 443 804 539 l 532 103 q 445 -51 474 10 q 417 -139 417 -111 q 475 -206 417 -196 q 535 -236 535 -215 q 447 -303 535 -254 l 358 -353 q 322 -308 351 -353 q 293 -242 293 -265 l 293 -189 q 331 -94 293 -157 q 385 0 379 -12 q 247 83 260 72 q 150 235 150 156 l 150 656 q 117 735 150 710 q 26 760 85 760 q 9 767 18 760 q 0 786 0 775 q 94 858 0 793 l 189 924 q 283 842 222 924 q 346 728 346 760 l 346 365 q 388 238 346 293 q 476 181 429 181 q 523 223 492 181 q 601 353 554 265 l 696 528 l 696 656 q 618 739 696 719 q 542 775 542 757 q 644 854 542 793 l 747 917 q 824 864 783 917 q 858 779 858 817 l 858 714 z "},"":{"ha":1628,"x_min":0,"x_max":1621,"o":"m 692 1147 l 696 378 l 968 250 q 1032 220 1008 231 q 1064 207 1056 210 q 1117 203 1081 203 q 1288 307 1206 203 q 1382 597 1382 426 l 1382 711 q 1218 1054 1382 899 q 963 1189 1075 1189 l 817 1189 q 692 1147 785 1189 m 1621 857 l 1621 785 q 1510 444 1621 638 q 1394 276 1457 353 q 1257 135 1332 199 q 985 0 1104 0 q 913 7 949 0 q 842 35 876 14 l 689 126 l 689 -147 q 710 -268 689 -226 l 758 -332 q 747 -353 758 -343 q 718 -364 736 -364 q 660 -347 696 -354 q 571 -339 624 -339 q 513 -349 536 -339 q 453 -371 458 -371 q 424 -356 435 -371 q 413 -319 413 -340 q 439 -262 413 -314 q 453 -211 453 -236 l 453 260 l 378 260 q 306 142 326 218 q 274 119 300 119 q 245 134 258 119 q 232 161 232 149 q 333 318 232 254 l 453 378 l 449 1035 l 403 1014 q 200 957 272 957 q 64 990 119 957 q 0 1097 0 1029 q 21 1147 0 1125 q 61 1169 42 1169 q 85 1160 74 1165 q 113 1142 96 1154 l 113 1050 q 150 1028 129 1043 q 189 1024 156 1024 q 397 1118 246 1024 l 449 1150 l 447 1401 q 361 1518 447 1507 q 321 1554 321 1525 q 339 1586 321 1576 q 429 1619 381 1600 q 535 1667 478 1639 q 589 1698 556 1678 q 668 1749 622 1718 q 758 1794 736 1794 q 783 1767 783 1794 l 721 1668 q 690 1594 690 1621 l 692 1294 q 1015 1389 878 1389 l 1103 1389 q 1476 1206 1318 1389 q 1621 857 1621 1038 z "},"":{"ha":946,"x_min":0,"x_max":858,"o":"m 526 1211 q 415 1089 526 1168 l 275 989 l 236 989 l 236 1017 l 325 1221 q 371 1285 344 1265 q 428 1306 397 1306 q 497 1272 468 1306 q 526 1211 526 1239 m 792 1200 q 681 1078 792 1156 l 540 978 l 501 978 l 501 1006 l 590 1210 q 636 1274 610 1254 q 693 1294 663 1294 q 763 1261 733 1294 q 792 1200 792 1228 m 858 714 q 831 607 858 675 q 744 443 804 539 l 532 103 q 445 -51 474 10 q 417 -139 417 -111 q 475 -206 417 -196 q 535 -236 535 -215 q 447 -303 535 -254 l 358 -353 q 322 -308 351 -353 q 293 -242 293 -265 l 293 -189 q 331 -94 293 -157 q 385 0 379 -12 q 247 83 260 72 q 150 235 150 156 l 150 656 q 117 735 150 710 q 26 760 85 760 q 9 767 18 760 q 0 786 0 775 q 94 858 0 793 l 189 924 q 283 842 222 924 q 346 728 346 760 l 346 365 q 388 238 346 293 q 476 181 429 181 q 523 223 492 181 q 601 353 554 265 l 696 528 l 696 656 q 618 739 696 719 q 542 775 542 757 q 644 854 542 793 l 747 917 q 824 864 783 917 q 858 779 858 817 l 858 714 z "},"":{"ha":0,"x_min":-67,"x_max":1264,"o":"m 435 789 q 444 797 428 781 q 493 839 461 813 q 567 894 525 865 q 650 942 608 924 l 632 851 q 547 744 588 785 q 467 681 507 704 q 394 627 433 660 q 303 575 354 594 q 229 544 254 557 q 192 524 204 532 q 176 511 179 515 q 168 504 172 507 q 110 468 143 489 q 43 430 76 447 q -19 401 10 413 q -64 392 -47 389 q -53 435 -67 411 q -13 488 -39 460 q 47 544 13 515 q 117 598 81 572 q 191 647 154 624 q 260 685 228 669 q 332 715 307 703 q 373 737 357 726 q 401 759 389 747 q 435 789 414 771 m 1264 46 q 1252 9 1264 18 q 1210 0 1240 0 l 978 33 l 614 33 l 479 33 q 397 31 432 33 q 336 26 361 29 l 240 14 l 121 14 l 100 14 l 93 8 q 78 1 82 1 q 61 40 61 1 q 101 82 61 75 q 160 100 140 88 l 160 1050 q 79 1175 160 1140 q 0 1222 0 1210 q 88 1268 0 1249 q 274 1310 207 1292 l 447 1360 q 558 1389 544 1389 l 732 1389 q 784 1375 763 1382 q 821 1363 806 1368 q 911 1289 911 1326 q 897 1263 911 1276 q 864 1250 883 1250 q 814 1273 839 1263 q 764 1293 789 1283 q 658 1315 706 1315 q 463 1239 526 1315 q 406 1050 406 1169 l 406 126 l 432 126 q 613 231 483 144 q 825 299 714 299 q 887 290 856 299 q 950 261 918 281 q 1010 220 986 238 q 1050 193 1035 203 q 1058 256 1051 199 q 1063 309 1061 283 q 1064 358 1064 335 q 1072 438 1064 408 q 1090 525 1090 500 l 1090 592 q 1086 618 1090 601 q 1076 651 1082 635 q 1061 684 1069 668 q 1044 711 1053 700 l 1044 751 l 1083 751 q 1169 637 1142 693 q 1197 506 1197 581 l 1197 286 q 1196 261 1196 281 q 1242 113 1196 201 q 1264 46 1264 69 z "},"":{"ha":392,"x_min":-182,"x_max":469,"o":"m 294 736 q 330 758 310 744 q 368 788 350 771 q 399 822 386 804 q 414 860 413 840 l 451 844 q 467 780 469 808 q 449 727 465 751 q 407 684 433 703 q 351 650 381 665 q 283 617 325 636 q 196 578 240 599 q 109 538 151 557 q 40 504 67 518 l 14 489 q -32 460 -10 476 q -77 426 -54 443 q -122 392 -100 408 q -164 367 -143 376 q -168 364 -165 365 q -174 364 -171 363 q -169 364 -171 367 q -165 360 -167 361 l -164 354 q -160 478 -182 425 q -72 563 -137 531 l 294 736 m 356 1363 q 334 1338 343 1349 q 319 1319 325 1328 q 282 1235 282 1267 l 282 215 q 317 68 282 107 q 335 26 335 49 q 326 5 335 10 q 301 0 317 0 q 247 19 297 0 q 181 40 199 40 q 111 27 150 40 q 33 0 72 14 l 7 0 l 7 47 q 42 117 24 64 q 60 188 60 167 l 60 1114 q 19 1183 60 1151 q 0 1214 0 1199 q 80 1265 44 1243 q 139 1301 115 1286 q 322 1389 285 1389 q 344 1381 336 1389 q 356 1363 349 1378 z "},"":{"ha":2206,"x_min":0,"x_max":2185,"o":"m 2185 1315 q 2090 1157 2185 1243 q 1907 1071 1997 1071 q 1744 1113 1874 1071 q 1599 1154 1615 1154 l 1471 1154 q 1294 1056 1397 1154 q 1181 821 1181 944 l 1181 704 q 1192 657 1181 683 q 1226 621 1204 631 q 1294 789 1226 713 q 1419 858 1360 858 l 1515 858 q 1596 841 1556 849 q 1657 833 1636 833 q 1724 857 1693 833 q 1772 924 1756 881 l 1811 924 q 1813 911 1813 919 l 1813 901 q 1811 886 1811 892 q 1811 878 1811 881 q 1751 710 1811 799 q 1625 614 1686 614 l 1560 614 q 1494 631 1542 614 q 1413 647 1446 647 q 1318 615 1367 647 q 1271 538 1271 585 q 1328 454 1271 519 q 1479 326 1399 375 q 1696 261 1590 261 l 1889 261 q 1959 274 1925 261 q 2021 319 1993 288 l 2139 447 q 2167 431 2163 447 q 2171 389 2171 415 q 2013 139 2171 281 q 1728 -3 1856 -3 l 1599 -3 q 1461 32 1539 -3 q 1207 242 1328 93 q 1099 425 1140 325 q 1009 271 1058 340 q 901 143 960 201 q 606 0 757 0 q 204 189 393 0 q 0 650 0 390 q 44 868 0 715 q 96 1019 82 999 q 176 1135 131 1079 q 276 1244 221 1192 q 556 1389 429 1389 l 663 1389 q 829 1331 726 1389 q 982 1204 915 1283 q 1038 1144 1013 1174 q 1082 1086 1063 1114 q 1136 990 1115 1038 q 1246 1161 1189 1096 q 1418 1293 1300 1219 q 1669 1386 1571 1386 l 1753 1386 q 1890 1340 1771 1386 q 2029 1296 2011 1296 q 2118 1344 2078 1296 q 2151 1367 2136 1367 q 2178 1353 2171 1367 q 2185 1315 2185 1340 m 1033 478 l 1033 643 q 949 829 994 740 q 842 975 899 924 q 783 1035 810 1010 q 736 1076 756 1060 q 517 1179 610 1179 l 408 1179 q 258 1085 338 1179 q 179 918 179 990 l 179 751 q 261 540 179 672 q 294 490 272 522 q 351 414 317 458 q 538 247 433 306 q 682 197 622 197 l 753 197 q 958 338 860 197 q 1033 478 989 382 z "},"":{"ha":1482,"x_min":0,"x_max":1468,"o":"m 1468 731 q 1363 643 1468 714 q 1270 583 1321 615 q 1158 517 1219 551 l 1022 439 q 928 384 960 403 q 896 358 896 365 q 931 316 915 335 q 963 286 947 297 q 1161 213 1053 213 q 1314 263 1249 213 l 1421 372 q 1444 360 1439 372 q 1449 326 1449 349 q 1333 110 1449 221 q 1122 0 1219 0 l 1029 0 q 824 129 938 0 q 785 176 801 153 q 754 224 768 200 q 669 129 721 176 q 414 0 528 0 q 104 157 233 0 q 0 375 0 283 l 0 464 q 125 754 0 593 q 382 924 257 924 l 458 924 q 694 797 572 924 q 763 711 736 753 q 822 788 788 749 q 1063 924 943 924 l 1129 924 q 1321 836 1175 924 q 1468 731 1468 749 m 1215 644 q 1063 788 1151 675 q 989 824 1033 824 q 894 774 936 824 q 861 715 878 744 q 829 657 844 686 l 829 531 l 829 525 q 843 493 840 519 q 876 439 844 469 q 990 513 886 451 q 1103 578 1047 544 q 1215 644 1158 611 m 704 304 l 704 394 l 649 492 q 581 589 617 546 q 510 664 546 632 q 290 756 406 756 q 178 701 228 756 q 129 575 129 649 q 279 314 129 453 q 549 175 428 175 q 638 211 599 175 l 704 304 m 829 525 l 829 531 l 829 525 z "},"":{"ha":1328,"x_min":0,"x_max":1247,"o":"m 1247 582 q 1210 694 1247 617 q 1093 851 1161 793 q 885 931 999 931 q 742 892 814 931 q 658 826 682 861 l 478 826 q 251 918 361 826 q 149 1085 149 1004 q 199 1185 149 1136 q 317 1233 251 1233 q 392 1218 349 1233 q 489 1171 435 1203 q 587 1113 538 1143 q 689 1053 636 1082 q 789 1008 742 1022 q 878 994 836 994 q 1054 1071 978 994 q 1156 1267 1156 1172 q 1143 1294 1156 1283 q 1124 1306 1131 1306 q 1075 1263 1106 1306 q 989 1221 1043 1221 q 845 1278 917 1249 q 701 1336 774 1308 q 451 1389 569 1389 q 179 1276 310 1389 q 32 982 32 1151 q 178 686 32 804 q 485 575 314 575 l 504 575 q 565 689 504 649 q 711 731 628 731 q 903 639 817 731 q 989 426 989 549 q 875 189 989 294 q 600 83 761 83 q 304 183 422 83 q 200 381 200 272 q 228 467 200 443 q 329 490 256 490 l 329 510 q 282 578 329 549 q 233 599 258 592 q 181 607 208 607 q 57 556 113 607 q 0 433 0 503 l 0 368 q 17 325 0 351 q 32 304 19 318 q 245 78 111 157 q 563 0 379 0 l 697 0 q 1006 97 869 0 q 1188 306 1119 178 q 1247 504 1247 415 l 1247 582 m 826 1854 l 858 1843 l 851 1819 q 809 1765 833 1800 q 758 1690 785 1731 q 701 1610 731 1650 q 644 1542 672 1569 q 617 1509 633 1522 q 582 1496 601 1496 q 558 1501 569 1496 q 525 1524 542 1507 q 464 1589 496 1549 q 401 1671 432 1629 q 343 1749 371 1713 q 296 1806 315 1786 l 288 1829 l 319 1842 q 367 1815 336 1833 q 433 1774 397 1797 q 506 1726 468 1751 q 575 1678 543 1700 q 642 1729 606 1701 q 715 1782 679 1757 q 780 1826 750 1807 q 826 1854 810 1846 z "},"":{"ha":879,"x_min":0,"x_max":799,"o":"m 799 413 q 722 575 799 504 q 596 636 657 636 l 543 636 q 468 607 507 636 q 360 544 382 544 q 182 603 254 544 q 118 707 118 653 q 151 793 118 761 q 183 813 160 801 q 335 753 236 813 q 465 694 435 694 l 524 694 q 628 760 592 694 l 688 864 l 688 883 l 654 883 q 619 864 636 883 q 590 844 603 844 q 452 897 519 871 q 314 924 385 924 q 124 851 200 924 q 39 649 39 775 q 26 622 28 636 q 38 579 32 600 q 50 536 43 558 q 150 390 81 447 q 393 314 243 314 l 393 340 q 381 355 389 346 q 374 379 374 364 q 399 436 374 400 q 471 478 429 478 q 567 429 525 478 q 608 321 608 381 q 533 149 608 225 q 353 72 458 72 q 206 110 268 72 q 143 210 143 149 q 179 293 143 269 q 196 314 196 303 q 171 336 196 325 q 111 354 133 354 q 35 315 69 354 q 0 229 0 279 q 117 54 0 118 q 347 0 214 0 q 675 118 539 0 q 799 340 799 225 l 799 413 m 631 1374 l 663 1363 l 656 1339 q 613 1285 638 1319 q 562 1210 589 1250 q 506 1129 535 1169 q 449 1061 476 1089 q 422 1028 439 1042 q 386 1015 406 1015 q 364 1021 374 1015 q 331 1043 344 1028 q 269 1108 301 1068 q 206 1190 236 1149 q 147 1269 175 1232 q 100 1325 119 1306 l 92 1349 l 124 1361 q 171 1335 140 1353 q 238 1294 201 1317 q 311 1245 274 1271 q 381 1197 349 1219 q 448 1249 411 1221 q 519 1301 485 1276 q 584 1346 554 1326 q 631 1374 614 1365 z "},"":{"ha":1347,"x_min":0,"x_max":1342,"o":"m 814 1529 q 703 1407 814 1486 l 563 1307 l 524 1307 l 524 1335 l 613 1539 q 658 1603 632 1582 q 715 1624 685 1624 q 785 1590 756 1624 q 814 1529 814 1557 m 1069 1521 q 958 1399 1069 1476 l 818 1299 l 779 1299 l 779 1326 l 868 1531 q 914 1595 888 1575 q 971 1615 940 1615 q 1040 1582 1011 1615 q 1069 1521 1069 1549 m 1342 996 q 1307 854 1342 933 q 1262 757 1290 814 q 1192 626 1233 700 l 994 281 q 867 53 915 140 q 800 -65 819 -33 q 771 -110 785 -89 q 742 -150 757 -132 q 689 -207 713 -182 q 647 -247 665 -232 q 469 -346 536 -346 l 351 -346 q 261 -325 325 -346 q 182 -275 182 -300 l 254 -161 q 331 -46 328 -46 l 364 -111 q 517 -176 397 -176 q 681 -89 610 -176 q 733 0 706 -57 q 599 78 672 24 q 458 250 515 139 l 357 572 q 342 634 356 582 q 301 782 328 686 q 253 950 272 888 q 224 1035 235 1013 q 187 1106 201 1079 q 165 1139 172 1132 q 106 1165 140 1165 q 58 1153 68 1165 q 33 1140 47 1140 q 26 1144 31 1140 q 15 1155 21 1149 q 4 1168 8 1161 q 0 1179 0 1175 q 121 1290 0 1192 q 263 1389 244 1389 q 428 1225 360 1389 q 538 849 463 1143 q 608 604 574 707 q 669 432 642 501 q 695 367 685 396 q 715 321 706 339 q 850 210 776 210 q 935 342 856 210 q 1043 529 1015 472 l 1106 654 q 1154 771 1138 717 q 1171 871 1171 825 q 1113 992 1171 931 q 982 1160 982 1126 l 982 1251 q 1036 1339 982 1289 q 1132 1389 1090 1389 l 1186 1389 q 1260 1361 1213 1389 q 1317 1285 1317 1325 q 1311 1246 1317 1251 q 1278 1233 1304 1239 q 1269 1272 1275 1258 q 1240 1304 1258 1304 q 1203 1288 1219 1304 q 1186 1251 1186 1271 q 1264 1171 1186 1233 q 1342 1050 1342 1108 l 1342 996 z "},"":{"ha":1374,"x_min":-19,"x_max":1311,"o":"m 1311 313 q 1299 351 1311 336 q 1265 365 1288 365 q 1192 275 1240 365 q 1069 176 1147 188 q 1043 222 1056 203 q 1017 254 1031 242 q 801 332 935 332 l 692 332 q 447 274 607 332 q 300 215 371 247 l 288 222 l 685 639 q 743 597 736 624 l 769 489 l 789 489 q 911 629 868 596 q 955 665 935 647 q 992 697 975 682 l 854 842 l 1304 1324 q 1278 1357 1299 1329 q 1258 1369 1267 1369 q 1147 1324 1236 1369 q 965 1278 1057 1278 l 900 1278 q 707 1314 819 1278 q 450 1389 478 1389 l 319 1389 q 85 1274 204 1389 q -19 1115 -19 1171 q 19 1076 -19 1076 q 61 1106 40 1076 q 157 1213 94 1151 l 176 1213 q 258 1101 200 1140 q 392 1063 317 1063 l 567 1063 q 654 1072 604 1063 q 763 1099 704 1082 q 890 1136 822 1115 q 1031 1181 957 1157 q 997 1126 1031 1157 q 935 1066 963 1094 q 886 1011 908 1038 q 837 953 863 982 q 783 897 811 925 q 724 847 733 847 l 665 847 q 436 724 556 847 q 339 588 339 622 l 339 561 l 378 561 q 467 644 414 614 q 574 678 533 685 l 581 665 l 0 58 q 21 25 10 43 q 58 13 31 13 q 154 65 86 13 q 332 118 222 118 l 411 118 l 635 39 q 801 0 743 0 l 874 0 q 1110 68 999 0 q 1260 204 1199 122 q 1311 313 1311 272 m 928 1772 l 961 1763 l 953 1738 q 910 1685 935 1719 q 859 1610 886 1650 q 803 1529 832 1569 q 746 1461 774 1489 q 719 1428 736 1442 q 683 1415 703 1415 q 661 1421 671 1415 q 628 1443 642 1428 q 566 1508 599 1468 q 503 1590 533 1549 q 444 1669 472 1632 q 397 1725 417 1706 l 389 1749 l 421 1761 q 468 1735 438 1753 q 535 1694 499 1717 q 608 1645 571 1671 q 678 1597 646 1619 q 745 1648 708 1621 q 817 1700 782 1675 q 881 1744 851 1725 q 928 1772 911 1764 z "},"":{"ha":899,"x_min":0,"x_max":818,"o":"m 818 267 q 807 278 818 272 q 785 285 796 285 q 728 235 775 285 q 651 186 679 186 l 572 186 q 548 188 564 186 q 508 194 532 189 q 430 210 485 199 q 286 239 375 221 q 429 433 297 271 q 534 562 474 489 q 671 726 594 635 q 799 878 797 878 l 799 917 l 744 917 q 642 886 718 899 q 572 878 618 882 q 467 893 536 878 q 363 916 400 908 q 319 924 326 924 l 226 924 q 63 810 139 924 q 0 671 0 715 q 14 642 0 656 q 19 636 17 639 q 28 631 22 633 q 68 681 57 631 q 121 764 81 732 q 142 735 132 749 q 164 707 153 721 q 239 671 196 671 l 313 671 q 447 707 340 671 l 560 744 l 585 744 l 457 589 l 376 490 q 345 445 361 471 q 306 392 329 419 l 113 157 q 48 75 68 104 q 28 40 28 46 q 54 13 28 13 q 117 33 76 13 q 179 54 156 54 l 286 54 q 426 17 297 54 q 518 0 482 0 q 710 108 594 0 q 818 267 818 210 m 693 1338 l 726 1326 l 718 1303 q 676 1249 700 1283 q 624 1174 651 1214 q 568 1094 597 1133 q 513 1026 539 1054 q 485 994 501 1007 q 450 981 469 981 q 426 986 438 981 q 393 1008 407 993 q 332 1074 364 1033 q 269 1156 300 1114 q 210 1234 238 1197 q 164 1290 183 1271 l 154 1314 l 188 1326 q 234 1300 204 1318 q 300 1259 264 1282 q 374 1210 336 1236 q 443 1163 411 1185 q 510 1213 474 1186 q 582 1265 547 1240 q 647 1310 617 1290 q 693 1338 676 1329 z "},"":{"ha":1092,"x_min":0,"x_max":0,"o":""},"":{"ha":693,"x_min":56,"x_max":628,"o":"m 89 939 l 56 950 l 64 974 q 107 1026 82 992 q 160 1101 132 1061 q 217 1180 188 1140 q 275 1247 247 1219 q 302 1278 286 1265 q 339 1292 318 1292 q 361 1286 350 1292 q 394 1263 379 1281 q 455 1197 424 1238 q 516 1115 486 1157 q 573 1034 546 1072 q 619 976 600 996 l 628 953 l 594 942 q 548 968 578 950 q 483 1010 518 986 q 410 1060 447 1035 q 342 1110 372 1086 q 273 1060 310 1086 q 201 1009 236 1033 q 135 966 165 985 q 89 939 106 947 z "},"":{"ha":654,"x_min":53,"x_max":625,"o":"m 592 1342 l 625 1331 l 617 1307 q 574 1253 599 1288 q 523 1178 550 1218 q 467 1098 496 1138 q 411 1031 438 1058 q 384 998 400 1011 q 349 985 368 985 q 325 990 336 985 q 292 1013 308 994 q 231 1077 263 1038 q 168 1158 199 1117 q 110 1238 138 1200 q 63 1294 82 1275 l 53 1318 l 86 1331 q 133 1304 103 1322 q 199 1263 163 1286 q 272 1215 235 1240 q 342 1167 310 1189 q 409 1217 372 1190 q 481 1269 446 1244 q 545 1314 515 1294 q 592 1342 575 1333 z "},"":{"ha":931,"x_min":50,"x_max":899,"o":"m 731 471 l 50 457 l 58 483 l 196 606 l 279 601 q 331 602 293 601 q 419 604 369 603 q 526 608 469 606 q 635 613 583 610 q 725 617 686 615 q 779 621 764 619 q 861 633 815 625 l 888 632 l 899 618 l 731 471 z "},"":{"ha":1228,"x_min":46,"x_max":1176,"o":"m 1008 510 l 46 483 l 54 510 l 193 632 l 276 629 q 349 630 290 628 q 489 634 407 632 q 664 640 571 636 q 840 648 757 644 q 983 654 922 651 q 1058 660 1043 657 q 1139 672 1092 663 l 1167 671 l 1176 656 l 1008 510 z "},"":{"ha":317,"x_min":119,"x_max":389,"o":"m 389 1319 q 360 1236 379 1300 q 308 1063 340 1172 q 214 926 271 926 q 144 960 175 926 q 119 1015 119 986 q 224 1192 119 1058 q 296 1281 264 1243 q 354 1344 328 1318 l 389 1344 l 389 1319 z "},"":{"ha":317,"x_min":33,"x_max":303,"o":"m 303 1290 q 200 1115 303 1247 q 127 1026 160 1064 q 68 961 94 988 l 33 961 l 33 986 q 63 1070 43 1007 q 114 1242 83 1133 q 208 1379 153 1379 q 275 1349 249 1379 q 303 1290 303 1317 z "},"":{"ha":317,"x_min":-61,"x_max":208,"o":"m 208 85 q 106 -90 208 42 q 33 -180 65 -142 q -26 -244 0 -218 l -61 -244 l -61 -219 q -31 -135 -51 -199 q 19 36 -11 -72 q 114 174 58 174 q 181 143 154 174 q 208 85 208 111 z "},"":{"ha":567,"x_min":139,"x_max":631,"o":"m 408 1343 q 379 1260 399 1324 q 328 1086 360 1196 q 233 950 290 950 q 164 983 194 950 q 139 1039 139 1010 q 243 1215 139 1082 q 315 1304 283 1267 q 374 1368 347 1342 l 408 1368 l 408 1343 m 631 1339 q 601 1256 621 1319 q 550 1082 582 1192 q 456 946 513 946 q 386 979 417 946 q 361 1035 361 1006 q 465 1211 361 1078 q 538 1300 506 1263 q 596 1364 569 1338 l 631 1364 l 631 1339 z "},"":{"ha":567,"x_min":14,"x_max":506,"o":"m 283 1307 q 181 1132 283 1264 q 108 1042 140 1081 q 49 978 75 1004 l 14 978 l 14 1003 q 44 1087 24 1024 q 94 1258 64 1150 q 189 1396 133 1396 q 256 1365 229 1396 q 283 1307 283 1333 m 506 1303 q 403 1128 506 1260 q 330 1038 363 1076 q 271 974 297 1000 l 236 974 l 236 999 q 266 1083 246 1019 q 317 1254 286 1146 q 411 1392 356 1392 q 478 1361 451 1392 q 506 1303 506 1329 z "},"":{"ha":567,"x_min":-32,"x_max":460,"o":"m 238 150 q 135 -25 238 107 q 62 -115 94 -76 q 3 -179 29 -153 l -32 -179 l -32 -154 q 49 101 -15 -115 q 143 239 86 239 q 210 208 183 239 q 238 150 238 176 m 460 146 q 357 -29 460 103 q 284 -119 317 -81 q 225 -183 251 -157 l 190 -183 l 190 -158 q 271 97 207 -119 q 365 235 308 235 q 432 204 406 235 q 460 146 460 172 z "},"":{"ha":676,"x_min":32,"x_max":644,"o":"m 182 528 q 149 526 163 528 q 125 521 136 525 q 103 509 114 517 q 78 488 93 501 q 51 474 61 474 q 38 480 43 474 q 32 494 32 486 q 33 510 32 500 q 38 532 35 519 q 43 578 43 550 q 39 626 43 603 q 35 661 35 649 q 54 685 35 685 q 88 661 68 685 q 103 646 96 651 q 119 637 110 640 q 142 633 129 633 q 175 632 156 632 q 203 633 179 632 q 274 635 228 633 q 275 655 275 646 q 275 671 275 664 q 274 719 275 693 q 272 770 274 746 q 267 815 269 794 q 264 843 265 835 q 229 886 258 869 q 208 903 214 896 q 201 917 201 910 q 210 933 201 926 q 235 939 219 939 q 247 938 239 939 q 264 936 256 938 q 307 931 288 933 q 340 929 326 929 q 355 929 349 929 q 369 931 361 929 q 391 934 378 932 q 429 940 404 936 q 443 942 433 942 q 478 919 478 942 q 474 908 478 913 q 453 890 469 903 q 428 865 438 879 q 415 824 419 851 q 409 752 410 797 q 408 633 408 707 q 430 632 419 632 q 444 632 440 632 q 574 646 544 632 q 586 655 581 650 q 607 682 592 660 q 624 690 615 690 q 644 661 644 690 q 644 656 644 658 q 643 644 644 653 q 639 621 642 636 q 632 578 636 606 q 631 561 631 572 q 635 515 631 542 q 637 502 636 508 q 638 492 638 496 q 618 467 638 467 q 592 486 606 467 q 570 510 579 501 q 547 524 561 519 q 509 529 532 528 q 446 531 486 531 l 407 531 l 407 515 q 408 272 407 379 q 413 83 410 164 q 417 -14 415 21 q 423 -67 419 -49 q 433 -92 426 -85 q 453 -108 440 -100 q 475 -139 475 -125 q 446 -161 475 -161 q 428 -160 440 -161 q 406 -156 417 -158 q 372 -150 386 -151 q 344 -149 357 -149 q 315 -151 338 -149 q 261 -157 293 -153 q 247 -159 254 -158 q 233 -160 239 -160 q 199 -139 199 -160 q 205 -122 199 -129 q 239 -96 211 -115 q 253 -81 247 -89 q 262 -53 258 -72 q 267 5 265 -33 q 271 110 269 43 q 274 278 272 176 q 276 528 275 379 l 258 528 l 182 528 z "},"":{"ha":299,"x_min":22,"x_max":275,"o":"m 147 383 q 118 418 132 403 q 93 444 104 433 q 62 471 79 458 q 22 497 44 483 q 71 563 31 526 l 136 621 q 219 583 181 615 q 275 503 258 550 l 147 383 z "},"":{"ha":1138,"x_min":72,"x_max":1074,"o":"m 292 157 q 284 113 292 140 q 247 53 276 85 q 188 11 219 22 q 133 0 156 0 q 92 43 113 0 q 72 143 72 89 q 83 194 72 172 q 109 231 93 215 q 143 254 125 246 q 176 263 161 263 q 220 255 199 264 q 257 231 242 246 q 282 197 272 217 q 292 157 292 178 m 1074 163 q 1071 140 1074 154 q 1061 108 1068 125 q 1044 72 1054 90 q 1019 38 1033 53 q 992 15 1006 22 q 965 6 978 8 q 939 5 951 4 q 915 6 926 6 q 874 49 894 6 q 865 76 869 60 q 858 112 861 93 q 854 149 856 131 q 853 181 853 167 q 861 226 853 210 q 883 253 869 243 q 917 265 897 263 q 958 268 936 268 q 1002 259 981 268 q 1039 235 1024 250 q 1064 202 1054 221 q 1074 163 1074 183 m 674 160 q 674 138 674 151 q 672 109 674 125 q 662 76 669 93 q 640 43 654 58 q 609 19 626 28 q 574 8 592 11 q 542 3 557 4 q 515 3 526 3 q 474 46 492 3 q 455 103 463 68 q 447 167 447 139 q 481 244 447 224 q 558 265 514 265 q 602 256 581 265 q 639 233 624 247 q 664 199 654 218 q 674 160 674 181 z "},"":{"ha":1342,"x_min":0,"x_max":1325,"o":"m 1283 194 q 1217 328 1283 265 q 1113 385 1156 386 l 1082 383 q 997 399 1036 382 q 985 374 990 388 q 981 338 981 361 q 1031 235 981 285 q 1169 181 1086 181 q 1269 132 1214 181 q 1274 145 1274 140 q 1276 153 1275 150 q 1283 194 1283 183 m 1325 283 q 1313 192 1325 239 q 1279 99 1301 146 l 1249 100 q 1143 43 1208 101 q 1122 58 1133 50 q 1100 72 1111 65 q 1076 87 1096 76 q 1018 118 1056 97 q 969 190 988 147 q 951 285 951 232 q 960 357 951 322 q 992 431 969 392 q 1063 465 1032 446 q 1129 519 1094 485 q 1192 479 1158 500 q 1249 450 1225 458 q 1278 424 1260 443 q 1311 385 1299 397 q 1321 334 1317 356 q 1325 283 1325 313 m 332 700 q 265 833 332 771 q 161 890 207 892 l 131 889 q 46 904 85 888 q 33 844 33 885 q 82 740 33 789 q 218 686 136 686 q 325 636 267 686 q 332 700 332 654 m 876 197 q 811 331 876 269 q 756 374 782 358 q 707 386 729 389 l 675 385 q 631 388 651 383 q 590 401 610 393 q 579 377 583 390 q 575 340 575 364 q 625 238 575 285 q 764 182 682 182 q 864 135 808 182 q 867 147 867 143 q 869 156 868 151 q 876 197 876 183 m 374 789 q 362 698 374 744 q 328 604 350 651 l 297 606 q 249 589 279 607 q 192 546 219 571 q 136 587 164 569 q 71 625 108 604 q 21 699 42 654 q 0 790 0 743 q 9 863 0 828 q 40 936 18 897 q 112 970 81 951 q 178 1025 143 989 l 250 976 q 273 965 261 971 q 296 956 285 960 q 335 921 311 947 q 363 890 356 896 q 374 789 374 846 m 260 43 l 169 15 l 640 1018 l 717 1047 l 260 43 m 918 285 q 907 194 918 240 q 872 100 896 147 l 842 103 q 736 46 801 104 q 693 75 715 63 q 613 119 685 82 q 563 192 582 149 q 544 288 544 235 q 554 360 544 325 q 585 433 564 394 q 656 467 625 449 q 722 522 688 486 q 786 482 753 503 q 842 453 819 461 q 856 442 849 449 q 871 425 863 436 q 891 401 882 410 q 906 386 900 392 q 915 336 911 358 q 918 285 918 314 z "},"":{"ha":457,"x_min":31,"x_max":453,"o":"m 453 733 q 409 676 436 706 q 346 614 382 646 q 279 559 313 586 q 214 504 246 532 l 399 176 l 204 61 q 203 90 204 75 q 196 122 203 106 l 31 500 q 93 547 63 521 q 154 603 124 572 q 256 733 224 672 l 453 733 l 453 733 z "},"":{"ha":457,"x_min":36,"x_max":438,"o":"m 438 314 q 324 200 383 272 q 231 65 264 128 l 36 65 q 136 182 71 113 q 192 238 161 208 q 258 303 222 268 l 74 633 l 268 746 q 271 715 269 731 q 278 686 272 700 l 438 314 l 438 314 z "},"":{"ha":582,"x_min":11,"x_max":644,"o":"m 86 -193 q 74 -192 79 -192 q 64 -194 69 -193 q 41 -199 50 -197 q 28 -200 32 -200 q 11 -181 11 -200 q 25 -144 11 -172 q 49 -94 38 -118 q 72 -37 60 -69 q 101 40 85 -6 q 140 153 117 85 q 196 317 164 221 q 272 549 228 414 q 340 756 308 657 q 394 935 371 854 q 433 1077 418 1017 q 451 1168 447 1138 q 460 1213 456 1204 q 479 1222 464 1222 q 490 1222 482 1222 q 508 1219 499 1221 q 524 1217 515 1218 q 540 1217 533 1217 q 593 1221 565 1217 q 628 1225 614 1225 q 644 1211 644 1225 q 641 1192 644 1203 q 626 1165 638 1182 q 583 1075 611 1143 q 517 906 554 1007 q 435 678 479 806 q 346 407 392 550 q 288 218 314 307 q 244 53 263 129 q 213 -82 225 -22 q 199 -181 201 -142 q 176 -203 194 -203 q 155 -201 171 -203 q 117 -194 139 -199 l 86 -193 z "},"":{"ha":1063,"x_min":15,"x_max":1029,"o":"m 788 683 l 654 569 l 15 557 l 22 576 l 131 671 l 197 668 q 244 669 207 668 q 333 671 282 669 q 442 674 385 672 q 552 677 500 675 q 642 681 604 679 q 693 685 681 683 q 722 690 707 688 q 757 696 738 692 l 779 694 l 788 683 m 788 510 l 654 397 l 15 381 l 22 403 l 131 499 l 197 499 q 247 499 208 499 q 337 501 285 500 q 447 505 389 503 q 558 508 506 507 q 649 511 610 510 q 700 514 688 513 q 727 517 713 515 q 757 521 742 518 l 779 519 l 788 510 m 319 424 q 326 408 319 417 q 339 389 332 399 q 353 371 346 379 q 365 358 361 363 q 425 301 392 328 q 495 253 458 274 q 572 220 532 232 q 656 208 613 208 l 807 208 q 911 254 869 208 l 1004 353 q 1027 338 1025 354 q 1029 308 1029 322 q 1012 242 1029 276 q 966 174 994 208 q 901 110 938 140 q 826 56 865 79 q 749 18 788 32 q 681 4 711 4 l 579 4 q 451 39 514 4 q 333 126 388 74 q 237 240 278 178 q 175 357 196 303 q 158 409 164 386 q 151 455 153 432 q 149 501 149 478 q 149 557 149 525 q 163 647 149 601 q 196 733 178 693 q 240 824 218 785 q 290 894 263 863 q 352 952 317 925 q 436 1008 388 979 q 531 1057 478 1033 q 635 1081 585 1081 l 700 1081 q 735 1072 706 1081 q 799 1050 764 1063 q 868 1026 835 1038 q 918 1010 901 1014 q 938 1006 928 1007 q 956 999 949 1006 q 972 966 965 990 q 978 929 978 942 q 959 897 978 914 q 915 867 940 881 q 863 844 889 853 q 822 836 836 836 q 765 846 799 836 q 695 868 731 856 q 628 890 660 881 q 579 900 597 900 l 478 900 q 402 875 439 900 q 339 824 365 850 q 274 742 300 788 q 249 643 249 696 l 249 551 q 258 508 249 531 q 282 469 268 486 l 319 424 z "},"":{"ha":819,"x_min":43,"x_max":767,"o":"m 597 325 l 43 308 l 51 336 l 189 460 l 272 460 q 317 460 288 460 q 385 463 347 461 q 463 466 422 464 q 542 469 504 468 q 610 473 581 471 q 656 476 640 475 q 690 481 672 479 q 729 486 708 482 l 756 483 l 767 471 l 597 325 m 597 549 l 43 535 l 51 560 l 189 682 l 272 679 q 345 680 293 678 q 457 685 397 682 q 570 691 517 688 q 647 697 624 694 q 684 703 664 700 q 729 711 704 706 l 756 710 l 767 694 l 597 549 z "},"":{"ha":906,"x_min":0,"x_max":822,"o":"m 479 501 l 640 393 q 722 229 722 322 l 722 150 q 672 24 722 108 q 500 -172 608 -87 q 254 -437 293 -333 q 221 -465 243 -465 q 191 -447 204 -465 q 178 -415 178 -429 q 261 -279 178 -378 l 417 -100 q 481 -4 461 -49 q 500 72 500 40 l 500 136 q 443 240 500 190 q 336 279 400 279 q 269 267 299 279 l 214 236 q 194 253 203 236 q 186 279 186 269 q 258 374 186 300 l 392 513 q 447 578 429 551 q 465 615 465 604 q 388 649 421 635 q 333 672 356 663 q 178 731 193 731 q 81 690 114 731 q 35 651 50 651 q 13 665 25 651 q 0 688 0 679 q 67 815 0 733 q 279 924 154 924 q 413 897 343 924 q 601 838 571 838 q 699 874 631 838 q 779 910 767 910 q 811 896 801 910 q 822 867 817 888 l 479 501 z "},"":{"ha":1389,"x_min":0,"x_max":0,"o":""}}}
